M48
; DRILL file {KiCad 8.0.2} date 2024-05-06T11:08:47+0900
; FORMAT={-:-/ absolute / inch / decimal}
; #@! TF.CreationDate,2024-05-06T11:08:47+09:00
; #@! TF.GenerationSoftware,Kicad,Pcbnew,8.0.2
; #@! TF.FileFunction,Plated,1,6,PTH
FMAT,2
INCH
; #@! TA.AperFunction,Plated,PTH,ViaDrill
T1C0.0118
; #@! TA.AperFunction,Plated,PTH,ComponentDrill
T2C0.0197
; #@! TA.AperFunction,Plated,PTH,ComponentDrill
T3C0.0315
; #@! TA.AperFunction,Plated,PTH,ComponentDrill
T4C0.0394
; #@! TA.AperFunction,Plated,PTH,ComponentDrill
T5C0.0669
; #@! TA.AperFunction,Plated,PTH,ComponentDrill
T6C0.0709
; #@! TA.AperFunction,Plated,PTH,ComponentDrill
T7C0.1260
%
G90
G05
T1
X4.5039Y-4.9528
X4.5039Y-4.9921
X4.5512Y-4.9528
X4.5512Y-4.9921
X4.8976Y-4.7776
X5.3346Y-4.9902
T2
X3.878Y-4.1909
X3.878Y-5.4941
X3.9056Y-4.1241
X3.9056Y-4.2578
X3.9056Y-5.4273
X3.9056Y-5.5609
X3.9724Y-4.0965
X3.9724Y-4.2854
X3.9724Y-5.3996
X3.9724Y-5.5886
X4.0393Y-4.1241
X4.0393Y-4.2578
X4.0393Y-5.4273
X4.0393Y-5.5609
X4.0669Y-4.1909
X4.0669Y-5.4941
X5.1811Y-4.1909
X5.1811Y-5.4941
X5.2088Y-4.1241
X5.2088Y-4.2578
X5.2088Y-5.4273
X5.2088Y-5.5609
X5.2756Y-4.0965
X5.2756Y-4.2854
X5.2756Y-5.3996
X5.2756Y-5.5886
X5.3424Y-4.1241
X5.3424Y-4.2578
X5.3424Y-5.4273
X5.3424Y-5.5609
X5.3701Y-4.1909
X5.3701Y-5.4941
T3
X3.9528Y-4.4213
X3.9528Y-4.5
X3.9528Y-4.6772
X3.9528Y-4.7559
X3.9528Y-4.9331
X3.9528Y-5.0118
X3.9528Y-5.189
X3.9528Y-5.2677
X5.3031Y-4.4685
X5.3031Y-4.5472
T4
X4.2579Y-5.5059
X4.6909Y-5.5059
T5
X4.376Y-5.1122
X4.5728Y-5.1122
T6
X4.9803Y-5.2874
X4.9803Y-5.4843
T7
X3.9724Y-4.1909
X3.9724Y-5.4941
X5.2756Y-4.1909
X5.2756Y-5.4941
M30
