%TF.GenerationSoftware,KiCad,Pcbnew,8.0.2*%
%TF.CreationDate,2024-05-06T11:08:46+09:00*%
%TF.ProjectId,5V-3A-BEC,35562d33-412d-4424-9543-2e6b69636164,0.1*%
%TF.SameCoordinates,Original*%
%TF.FileFunction,Paste,Top*%
%TF.FilePolarity,Positive*%
%FSLAX46Y46*%
G04 Gerber Fmt 4.6, Leading zero omitted, Abs format (unit mm)*
G04 Created by KiCad (PCBNEW 8.0.2) date 2024-05-06 11:08:46*
%MOMM*%
%LPD*%
G01*
G04 APERTURE LIST*
G04 Aperture macros list*
%AMRoundRect*
0 Rectangle with rounded corners*
0 $1 Rounding radius*
0 $2 $3 $4 $5 $6 $7 $8 $9 X,Y pos of 4 corners*
0 Add a 4 corners polygon primitive as box body*
4,1,4,$2,$3,$4,$5,$6,$7,$8,$9,$2,$3,0*
0 Add four circle primitives for the rounded corners*
1,1,$1+$1,$2,$3*
1,1,$1+$1,$4,$5*
1,1,$1+$1,$6,$7*
1,1,$1+$1,$8,$9*
0 Add four rect primitives between the rounded corners*
20,1,$1+$1,$2,$3,$4,$5,0*
20,1,$1+$1,$4,$5,$6,$7,0*
20,1,$1+$1,$6,$7,$8,$9,0*
20,1,$1+$1,$8,$9,$2,$3,0*%
G04 Aperture macros list end*
%ADD10R,2.200000X2.100000*%
%ADD11RoundRect,0.237500X0.237500X-0.300000X0.237500X0.300000X-0.237500X0.300000X-0.237500X-0.300000X0*%
%ADD12RoundRect,0.237500X-0.237500X0.287500X-0.237500X-0.287500X0.237500X-0.287500X0.237500X0.287500X0*%
%ADD13RoundRect,0.150000X0.587500X0.150000X-0.587500X0.150000X-0.587500X-0.150000X0.587500X-0.150000X0*%
%ADD14RoundRect,0.250000X-0.412500X-0.650000X0.412500X-0.650000X0.412500X0.650000X-0.412500X0.650000X0*%
%ADD15RoundRect,0.237500X0.250000X0.237500X-0.250000X0.237500X-0.250000X-0.237500X0.250000X-0.237500X0*%
%ADD16RoundRect,0.250000X0.475000X-0.337500X0.475000X0.337500X-0.475000X0.337500X-0.475000X-0.337500X0*%
%ADD17RoundRect,0.250000X0.412500X0.650000X-0.412500X0.650000X-0.412500X-0.650000X0.412500X-0.650000X0*%
%ADD18RoundRect,0.237500X-0.250000X-0.237500X0.250000X-0.237500X0.250000X0.237500X-0.250000X0.237500X0*%
%ADD19R,1.525000X0.650000*%
%ADD20R,2.600000X3.100000*%
%ADD21RoundRect,0.250000X0.337500X0.475000X-0.337500X0.475000X-0.337500X-0.475000X0.337500X-0.475000X0*%
%ADD22R,4.100000X4.100000*%
%ADD23RoundRect,0.237500X-0.237500X0.250000X-0.237500X-0.250000X0.237500X-0.250000X0.237500X0.250000X0*%
%ADD24RoundRect,0.250000X0.650000X-0.412500X0.650000X0.412500X-0.650000X0.412500X-0.650000X-0.412500X0*%
%ADD25R,1.450000X0.390000*%
G04 APERTURE END LIST*
D10*
%TO.C,D2*%
X126200000Y-111800000D03*
X121800000Y-111800000D03*
%TD*%
D11*
%TO.C,C8*%
X124862500Y-126550000D03*
X124862500Y-124825000D03*
%TD*%
D12*
%TO.C,D1*%
X135500000Y-123850000D03*
X135500000Y-125600000D03*
%TD*%
D13*
%TO.C,Q1*%
X128537500Y-125100000D03*
X128537500Y-123200000D03*
X126662500Y-124150000D03*
%TD*%
D11*
%TO.C,C1*%
X117170000Y-116400000D03*
X117170000Y-114675000D03*
%TD*%
D14*
%TO.C,C7*%
X126237500Y-129000000D03*
X129362500Y-129000000D03*
%TD*%
D15*
%TO.C,R5*%
X128712500Y-126650000D03*
X126887500Y-126650000D03*
%TD*%
D16*
%TO.C,C6*%
X129800000Y-119800000D03*
X129800000Y-117725000D03*
%TD*%
D17*
%TO.C,C3*%
X113312500Y-124150000D03*
X110187500Y-124150000D03*
%TD*%
%TO.C,C4*%
X113312500Y-121750000D03*
X110187500Y-121750000D03*
%TD*%
D18*
%TO.C,R1*%
X113175000Y-119000000D03*
X115000000Y-119000000D03*
%TD*%
%TO.C,R2*%
X115400000Y-123750000D03*
X117225000Y-123750000D03*
%TD*%
D19*
%TO.C,IC1*%
X118996000Y-116477500D03*
X118996000Y-117747500D03*
X118996000Y-119017500D03*
X118996000Y-120287500D03*
X124420000Y-120287500D03*
X124420000Y-119017500D03*
X124420000Y-117747500D03*
X124420000Y-116477500D03*
D20*
X121708000Y-118382500D03*
%TD*%
D18*
%TO.C,R3*%
X115400000Y-122250000D03*
X117225000Y-122250000D03*
%TD*%
D21*
%TO.C,C2*%
X112787500Y-126750000D03*
X110712500Y-126750000D03*
%TD*%
D22*
%TO.C,L1*%
X111120000Y-105987500D03*
X111120000Y-115487500D03*
%TD*%
D23*
%TO.C,R4*%
X135500000Y-120325000D03*
X135500000Y-122150000D03*
%TD*%
D24*
%TO.C,C5*%
X127400000Y-120800000D03*
X127400000Y-117675000D03*
%TD*%
D25*
%TO.C,Z1*%
X131362500Y-123390000D03*
X131362500Y-126500000D03*
%TD*%
M02*
