%TF.GenerationSoftware,KiCad,Pcbnew,8.0.2*%
%TF.CreationDate,2024-05-06T11:08:46+09:00*%
%TF.ProjectId,5V-3A-BEC,35562d33-412d-4424-9543-2e6b69636164,0.1*%
%TF.SameCoordinates,Original*%
%TF.FileFunction,Legend,Top*%
%TF.FilePolarity,Positive*%
%FSLAX46Y46*%
G04 Gerber Fmt 4.6, Leading zero omitted, Abs format (unit mm)*
G04 Created by KiCad (PCBNEW 8.0.2) date 2024-05-06 11:08:46*
%MOMM*%
%LPD*%
G01*
G04 APERTURE LIST*
G04 Aperture macros list*
%AMRoundRect*
0 Rectangle with rounded corners*
0 $1 Rounding radius*
0 $2 $3 $4 $5 $6 $7 $8 $9 X,Y pos of 4 corners*
0 Add a 4 corners polygon primitive as box body*
4,1,4,$2,$3,$4,$5,$6,$7,$8,$9,$2,$3,0*
0 Add four circle primitives for the rounded corners*
1,1,$1+$1,$2,$3*
1,1,$1+$1,$4,$5*
1,1,$1+$1,$6,$7*
1,1,$1+$1,$8,$9*
0 Add four rect primitives between the rounded corners*
20,1,$1+$1,$2,$3,$4,$5,0*
20,1,$1+$1,$4,$5,$6,$7,0*
20,1,$1+$1,$6,$7,$8,$9,0*
20,1,$1+$1,$8,$9,$2,$3,0*%
G04 Aperture macros list end*
%ADD10C,0.100000*%
%ADD11C,0.200000*%
%ADD12C,0.120000*%
%ADD13R,2.200000X2.100000*%
%ADD14RoundRect,0.237500X0.237500X-0.300000X0.237500X0.300000X-0.237500X0.300000X-0.237500X-0.300000X0*%
%ADD15C,1.200000*%
%ADD16C,1.300000*%
%ADD17RoundRect,0.237500X-0.237500X0.287500X-0.237500X-0.287500X0.237500X-0.287500X0.237500X0.287500X0*%
%ADD18RoundRect,0.150000X0.587500X0.150000X-0.587500X0.150000X-0.587500X-0.150000X0.587500X-0.150000X0*%
%ADD19C,0.800000*%
%ADD20C,6.400000*%
%ADD21RoundRect,0.250000X-0.412500X-0.650000X0.412500X-0.650000X0.412500X0.650000X-0.412500X0.650000X0*%
%ADD22RoundRect,0.237500X0.250000X0.237500X-0.250000X0.237500X-0.250000X-0.237500X0.250000X-0.237500X0*%
%ADD23RoundRect,0.250000X0.475000X-0.337500X0.475000X0.337500X-0.475000X0.337500X-0.475000X-0.337500X0*%
%ADD24RoundRect,0.250000X0.412500X0.650000X-0.412500X0.650000X-0.412500X-0.650000X0.412500X-0.650000X0*%
%ADD25RoundRect,0.237500X-0.250000X-0.237500X0.250000X-0.237500X0.250000X0.237500X-0.250000X0.237500X0*%
%ADD26R,1.525000X0.650000*%
%ADD27R,2.600000X3.100000*%
%ADD28C,2.550000*%
%ADD29C,1.500000*%
%ADD30RoundRect,0.250000X0.337500X0.475000X-0.337500X0.475000X-0.337500X-0.475000X0.337500X-0.475000X0*%
%ADD31C,2.700000*%
%ADD32R,4.100000X4.100000*%
%ADD33RoundRect,0.237500X-0.237500X0.250000X-0.237500X-0.250000X0.237500X-0.250000X0.237500X0.250000X0*%
%ADD34RoundRect,0.250000X0.650000X-0.412500X0.650000X0.412500X-0.650000X0.412500X-0.650000X-0.412500X0*%
%ADD35R,1.450000X0.390000*%
G04 APERTURE END LIST*
D10*
G36*
X104884189Y-120466067D02*
G01*
X104969146Y-120491530D01*
X105021912Y-120540870D01*
X105021946Y-120540993D01*
X105051338Y-120594257D01*
X105051493Y-120597427D01*
X105084007Y-120715240D01*
X105083333Y-120718633D01*
X105086057Y-120803900D01*
X105084826Y-120806507D01*
X105057997Y-120926101D01*
X105055279Y-120929605D01*
X105030932Y-120983682D01*
X104978214Y-121040062D01*
X104900323Y-121068697D01*
X104900000Y-121068633D01*
X104783081Y-121071028D01*
X104779887Y-120467679D01*
X104883301Y-120465561D01*
X104884189Y-120466067D01*
G37*
G36*
X105261111Y-121246411D02*
G01*
X103138889Y-121246411D01*
X103138889Y-120718633D01*
X103216667Y-120718633D01*
X103219504Y-120807453D01*
X103217212Y-120811274D01*
X103218160Y-120830760D01*
X103251473Y-120951468D01*
X103250126Y-120955511D01*
X103255279Y-120974327D01*
X103287140Y-121032062D01*
X103287140Y-121037767D01*
X103297978Y-121053988D01*
X103363183Y-121114959D01*
X103367240Y-121123073D01*
X103379074Y-121129818D01*
X103380866Y-121131494D01*
X103382014Y-121131494D01*
X103384189Y-121132734D01*
X103476414Y-121160375D01*
X103480866Y-121164827D01*
X103500000Y-121168633D01*
X103503453Y-121168479D01*
X103503544Y-121168507D01*
X103503612Y-121168472D01*
X103558210Y-121166050D01*
X103563123Y-121168507D01*
X103582478Y-121166067D01*
X103676521Y-121131494D01*
X103685802Y-121131494D01*
X103697153Y-121123908D01*
X103699427Y-121123073D01*
X103699940Y-121122046D01*
X103702023Y-121120655D01*
X103746185Y-121071108D01*
X103746194Y-121071100D01*
X103750000Y-121051966D01*
X103746194Y-120799499D01*
X103719134Y-120772439D01*
X103700000Y-120768633D01*
X103547533Y-120772439D01*
X103520473Y-120799499D01*
X103520473Y-120837767D01*
X103547533Y-120864827D01*
X103566667Y-120868633D01*
X103650722Y-120866534D01*
X103653178Y-121029474D01*
X103643184Y-121040686D01*
X103566990Y-121068697D01*
X103566667Y-121068633D01*
X103514909Y-121070928D01*
X103430854Y-121045735D01*
X103378088Y-120996395D01*
X103378055Y-120996272D01*
X103348661Y-120943007D01*
X103348507Y-120939839D01*
X103315992Y-120822025D01*
X103316667Y-120818633D01*
X103313942Y-120733365D01*
X103315174Y-120730760D01*
X103342002Y-120611164D01*
X103344721Y-120607661D01*
X103369068Y-120553583D01*
X103421786Y-120497203D01*
X103499676Y-120468568D01*
X103500000Y-120468633D01*
X103583444Y-120465967D01*
X103663123Y-120501840D01*
X103699428Y-120489738D01*
X103716541Y-120455510D01*
X103704440Y-120419206D01*
X103703702Y-120418633D01*
X103950000Y-120418633D01*
X103953806Y-121137767D01*
X103980866Y-121164827D01*
X104019134Y-121164827D01*
X104046194Y-121137767D01*
X104050000Y-121118633D01*
X104047257Y-120600426D01*
X104353770Y-121131128D01*
X104353806Y-121137767D01*
X104362798Y-121146759D01*
X104369386Y-121158165D01*
X104376010Y-121159971D01*
X104380866Y-121164827D01*
X104393814Y-121164827D01*
X104406306Y-121168234D01*
X104412268Y-121164827D01*
X104419134Y-121164827D01*
X104428287Y-121155673D01*
X104439532Y-121149248D01*
X104441339Y-121142621D01*
X104446194Y-121137767D01*
X104450000Y-121118633D01*
X104446295Y-120418633D01*
X104683333Y-120418633D01*
X104687139Y-121137767D01*
X104714199Y-121164827D01*
X104733333Y-121168633D01*
X104890278Y-121165418D01*
X104896456Y-121168507D01*
X104915811Y-121166067D01*
X105009854Y-121131494D01*
X105019134Y-121131494D01*
X105030484Y-121123909D01*
X105032760Y-121123073D01*
X105033273Y-121122045D01*
X105035355Y-121120655D01*
X105093625Y-121058338D01*
X105099427Y-121056405D01*
X105111388Y-121040993D01*
X105112820Y-121037811D01*
X105112861Y-121037768D01*
X105112861Y-121037721D01*
X105137289Y-120983462D01*
X105140174Y-120981732D01*
X105148507Y-120964093D01*
X105176069Y-120841224D01*
X105179527Y-120837767D01*
X105183333Y-120818633D01*
X105180495Y-120729812D01*
X105182788Y-120725992D01*
X105181840Y-120706506D01*
X105148526Y-120585798D01*
X105149874Y-120581756D01*
X105144722Y-120562940D01*
X105112861Y-120505204D01*
X105112861Y-120499498D01*
X105102022Y-120483277D01*
X105036816Y-120422306D01*
X105032760Y-120414193D01*
X105020925Y-120407447D01*
X105019134Y-120405772D01*
X105017986Y-120405772D01*
X105015811Y-120404532D01*
X104923585Y-120376890D01*
X104919134Y-120372439D01*
X104900000Y-120368633D01*
X104714199Y-120372439D01*
X104687139Y-120399499D01*
X104683333Y-120418633D01*
X104446295Y-120418633D01*
X104446194Y-120399499D01*
X104419134Y-120372439D01*
X104380866Y-120372439D01*
X104353806Y-120399499D01*
X104350000Y-120418633D01*
X104352742Y-120936839D01*
X104046229Y-120406135D01*
X104046194Y-120399499D01*
X104037203Y-120390508D01*
X104030615Y-120379101D01*
X104023988Y-120377293D01*
X104019134Y-120372439D01*
X104006187Y-120372439D01*
X103993694Y-120369032D01*
X103987732Y-120372439D01*
X103980866Y-120372439D01*
X103971712Y-120381592D01*
X103960468Y-120388018D01*
X103958660Y-120394644D01*
X103953806Y-120399499D01*
X103950000Y-120418633D01*
X103703702Y-120418633D01*
X103689028Y-120407245D01*
X103625206Y-120378511D01*
X103619134Y-120372439D01*
X103605847Y-120369796D01*
X103603544Y-120368759D01*
X103602456Y-120369121D01*
X103600000Y-120368633D01*
X103509100Y-120371536D01*
X103503544Y-120368759D01*
X103484189Y-120371199D01*
X103390146Y-120405772D01*
X103380866Y-120405772D01*
X103369515Y-120413356D01*
X103367240Y-120414193D01*
X103366726Y-120415220D01*
X103364645Y-120416611D01*
X103306377Y-120478925D01*
X103300574Y-120480860D01*
X103288613Y-120496272D01*
X103287178Y-120499457D01*
X103287140Y-120499499D01*
X103287140Y-120499543D01*
X103262710Y-120553803D01*
X103259826Y-120555534D01*
X103251493Y-120573174D01*
X103223930Y-120696041D01*
X103220473Y-120699499D01*
X103216667Y-120718633D01*
X103138889Y-120718633D01*
X103138889Y-120290855D01*
X105261111Y-120290855D01*
X105261111Y-121246411D01*
G37*
G36*
X131783301Y-113569353D02*
G01*
X131583611Y-113571509D01*
X131682143Y-113270886D01*
X131783301Y-113569353D01*
G37*
G36*
X132044318Y-113946411D02*
G01*
X130055555Y-113946411D01*
X130055555Y-113118633D01*
X130133333Y-113118633D01*
X130137139Y-113837767D01*
X130164199Y-113864827D01*
X130183333Y-113868633D01*
X130535801Y-113864827D01*
X130562861Y-113837767D01*
X130562861Y-113799499D01*
X130535801Y-113772439D01*
X130516667Y-113768633D01*
X130233084Y-113771695D01*
X130231653Y-113501237D01*
X130435801Y-113498160D01*
X130462861Y-113471100D01*
X130462861Y-113432832D01*
X130435801Y-113405772D01*
X130416667Y-113401966D01*
X130231142Y-113404762D01*
X130229890Y-113168130D01*
X130535801Y-113164827D01*
X130562861Y-113137767D01*
X130562861Y-113118633D01*
X130766666Y-113118633D01*
X130770472Y-113837767D01*
X130797532Y-113864827D01*
X130835800Y-113864827D01*
X130862860Y-113837767D01*
X130866666Y-113818633D01*
X130863923Y-113300426D01*
X131170436Y-113831128D01*
X131170472Y-113837767D01*
X131179464Y-113846759D01*
X131186052Y-113858165D01*
X131192676Y-113859971D01*
X131197532Y-113864827D01*
X131210480Y-113864827D01*
X131222972Y-113868234D01*
X131228934Y-113864827D01*
X131235800Y-113864827D01*
X131244953Y-113855673D01*
X131256198Y-113849248D01*
X131258005Y-113842621D01*
X131262860Y-113837767D01*
X131265961Y-113822177D01*
X131400125Y-113822177D01*
X131417239Y-113856406D01*
X131453543Y-113868507D01*
X131487772Y-113851393D01*
X131497433Y-113834444D01*
X131551903Y-113668252D01*
X131815855Y-113665402D01*
X131878893Y-113851393D01*
X131913122Y-113868507D01*
X131949426Y-113856406D01*
X131966540Y-113822178D01*
X131964100Y-113802822D01*
X131896193Y-113602463D01*
X131896193Y-113599499D01*
X131894672Y-113597978D01*
X131732125Y-113118387D01*
X131733207Y-113115089D01*
X131726380Y-113101436D01*
X131721106Y-113085873D01*
X131717763Y-113084202D01*
X131716093Y-113080860D01*
X131701053Y-113075846D01*
X131686877Y-113068759D01*
X131683333Y-113069940D01*
X131679789Y-113068759D01*
X131665612Y-113075846D01*
X131650573Y-113080860D01*
X131648902Y-113084202D01*
X131645560Y-113085873D01*
X131635899Y-113102822D01*
X131474395Y-113595575D01*
X131470472Y-113599499D01*
X131470472Y-113607545D01*
X131400125Y-113822177D01*
X131265961Y-113822177D01*
X131266666Y-113818633D01*
X131262860Y-113099499D01*
X131235800Y-113072439D01*
X131197532Y-113072439D01*
X131170472Y-113099499D01*
X131166666Y-113118633D01*
X131169408Y-113636839D01*
X130862895Y-113106135D01*
X130862860Y-113099499D01*
X130853869Y-113090508D01*
X130847281Y-113079101D01*
X130840654Y-113077293D01*
X130835800Y-113072439D01*
X130822853Y-113072439D01*
X130810360Y-113069032D01*
X130804398Y-113072439D01*
X130797532Y-113072439D01*
X130788378Y-113081592D01*
X130777134Y-113088018D01*
X130775326Y-113094644D01*
X130770472Y-113099499D01*
X130766666Y-113118633D01*
X130562861Y-113118633D01*
X130562861Y-113099499D01*
X130535801Y-113072439D01*
X130516667Y-113068633D01*
X130164199Y-113072439D01*
X130137139Y-113099499D01*
X130133333Y-113118633D01*
X130055555Y-113118633D01*
X130055555Y-112990855D01*
X132044318Y-112990855D01*
X132044318Y-113946411D01*
G37*
G36*
X134083722Y-125327418D02*
G01*
X134108358Y-125349379D01*
X134135389Y-125398360D01*
X134138212Y-125610346D01*
X133868013Y-125611776D01*
X133865321Y-125409657D01*
X133887719Y-125359908D01*
X133909679Y-125335273D01*
X133958899Y-125308111D01*
X134035410Y-125305667D01*
X134083722Y-125327418D01*
G37*
G36*
X134083722Y-123827418D02*
G01*
X134108358Y-123849379D01*
X134135389Y-123898360D01*
X134136755Y-124000943D01*
X134136484Y-124002481D01*
X134136781Y-124002905D01*
X134138212Y-124110346D01*
X133868013Y-124111776D01*
X133865321Y-123909657D01*
X133887719Y-123859908D01*
X133909679Y-123835273D01*
X133958899Y-123808111D01*
X134035410Y-123805667D01*
X134083722Y-123827418D01*
G37*
G36*
X134645976Y-125786111D02*
G01*
X133690855Y-125786111D01*
X133690855Y-125391666D01*
X133768633Y-125391666D01*
X133772439Y-125677467D01*
X133799499Y-125704527D01*
X133818633Y-125708333D01*
X134537767Y-125704527D01*
X134564827Y-125677467D01*
X134564827Y-125639199D01*
X134537767Y-125612139D01*
X134518633Y-125608333D01*
X134234654Y-125609835D01*
X134231834Y-125398138D01*
X134235174Y-125388121D01*
X134231524Y-125374793D01*
X134231494Y-125372532D01*
X134230682Y-125371720D01*
X134230021Y-125369305D01*
X134198160Y-125311570D01*
X134198160Y-125305867D01*
X134187322Y-125289645D01*
X134184838Y-125287431D01*
X134184726Y-125287227D01*
X134184539Y-125287164D01*
X134157914Y-125263430D01*
X134156406Y-125258906D01*
X134140994Y-125246945D01*
X134137814Y-125245513D01*
X134137768Y-125245472D01*
X134137722Y-125245472D01*
X134077172Y-125218211D01*
X134071100Y-125212139D01*
X134057813Y-125209496D01*
X134055510Y-125208459D01*
X134054422Y-125208821D01*
X134051966Y-125208333D01*
X133957133Y-125211362D01*
X133948422Y-125208459D01*
X133935268Y-125212061D01*
X133932832Y-125212139D01*
X133932020Y-125212950D01*
X133929605Y-125213612D01*
X133871871Y-125245472D01*
X133866165Y-125245472D01*
X133849944Y-125256311D01*
X133847731Y-125258793D01*
X133847527Y-125258906D01*
X133847464Y-125259092D01*
X133823730Y-125285718D01*
X133819206Y-125287227D01*
X133807245Y-125302639D01*
X133805812Y-125305820D01*
X133805772Y-125305866D01*
X133805772Y-125305910D01*
X133778511Y-125366459D01*
X133772439Y-125372532D01*
X133769796Y-125385816D01*
X133768759Y-125388121D01*
X133769121Y-125389209D01*
X133768633Y-125391666D01*
X133690855Y-125391666D01*
X133690855Y-124432914D01*
X133769263Y-124432914D01*
X133789320Y-124465506D01*
X133807052Y-124473640D01*
X134322604Y-124593587D01*
X134018292Y-124677054D01*
X134012047Y-124675436D01*
X134001114Y-124681765D01*
X133988243Y-124685296D01*
X133984827Y-124691194D01*
X133978929Y-124694610D01*
X133975580Y-124707168D01*
X133969069Y-124718415D01*
X133970825Y-124725000D01*
X133969069Y-124731586D01*
X133975580Y-124742832D01*
X133978929Y-124755390D01*
X133984827Y-124758805D01*
X133988243Y-124764704D01*
X134005750Y-124773312D01*
X134321034Y-124854996D01*
X133789320Y-124984494D01*
X133769263Y-125017086D01*
X133778127Y-125054313D01*
X133810719Y-125074370D01*
X133830214Y-125073640D01*
X134518209Y-124906081D01*
X134525218Y-124907897D01*
X134535721Y-124901816D01*
X134547946Y-124898839D01*
X134551865Y-124892469D01*
X134558337Y-124888723D01*
X134561522Y-124876778D01*
X134568003Y-124866247D01*
X134566270Y-124858971D01*
X134568197Y-124851747D01*
X134562003Y-124841048D01*
X134559139Y-124829020D01*
X134552769Y-124825100D01*
X134549023Y-124818629D01*
X134531516Y-124810021D01*
X134205566Y-124725573D01*
X134519641Y-124639429D01*
X134526548Y-124641036D01*
X134536811Y-124634719D01*
X134549024Y-124631370D01*
X134552770Y-124624898D01*
X134559139Y-124620979D01*
X134562002Y-124608952D01*
X134568198Y-124598251D01*
X134566271Y-124591025D01*
X134568003Y-124583752D01*
X134561523Y-124573222D01*
X134558337Y-124561275D01*
X134551864Y-124557528D01*
X134547946Y-124551160D01*
X134530214Y-124543026D01*
X133810719Y-124375630D01*
X133778127Y-124395687D01*
X133769263Y-124432914D01*
X133690855Y-124432914D01*
X133690855Y-123891666D01*
X133768633Y-123891666D01*
X133772439Y-124177467D01*
X133799499Y-124204527D01*
X133818633Y-124208333D01*
X134537767Y-124204527D01*
X134564827Y-124177467D01*
X134564827Y-124139199D01*
X134537767Y-124112139D01*
X134518633Y-124108333D01*
X134234654Y-124109835D01*
X134233441Y-124018739D01*
X134560799Y-123785204D01*
X134567449Y-123747518D01*
X134545504Y-123716167D01*
X134507818Y-123709517D01*
X134489960Y-123717371D01*
X134231879Y-123901484D01*
X134231834Y-123898138D01*
X134235174Y-123888121D01*
X134231524Y-123874793D01*
X134231494Y-123872532D01*
X134230682Y-123871720D01*
X134230021Y-123869305D01*
X134198160Y-123811570D01*
X134198160Y-123805867D01*
X134187322Y-123789645D01*
X134184838Y-123787431D01*
X134184726Y-123787227D01*
X134184539Y-123787164D01*
X134157914Y-123763430D01*
X134156406Y-123758906D01*
X134140994Y-123746945D01*
X134137814Y-123745513D01*
X134137768Y-123745472D01*
X134137722Y-123745472D01*
X134077172Y-123718211D01*
X134071100Y-123712139D01*
X134057813Y-123709496D01*
X134055510Y-123708459D01*
X134054422Y-123708821D01*
X134051966Y-123708333D01*
X133957133Y-123711362D01*
X133948422Y-123708459D01*
X133935268Y-123712061D01*
X133932832Y-123712139D01*
X133932020Y-123712950D01*
X133929605Y-123713612D01*
X133871871Y-123745472D01*
X133866165Y-123745472D01*
X133849944Y-123756311D01*
X133847731Y-123758793D01*
X133847527Y-123758906D01*
X133847464Y-123759092D01*
X133823730Y-123785718D01*
X133819206Y-123787227D01*
X133807245Y-123802639D01*
X133805812Y-123805820D01*
X133805772Y-123805866D01*
X133805772Y-123805910D01*
X133778511Y-123866459D01*
X133772439Y-123872532D01*
X133769796Y-123885816D01*
X133768759Y-123888121D01*
X133769121Y-123889209D01*
X133768633Y-123891666D01*
X133690855Y-123891666D01*
X133690855Y-123630555D01*
X134645976Y-123630555D01*
X134645976Y-125786111D01*
G37*
G36*
X105327652Y-125746411D02*
G01*
X103176027Y-125746411D01*
X103176027Y-125332832D01*
X103253805Y-125332832D01*
X103253805Y-125371100D01*
X103280865Y-125398160D01*
X103299999Y-125401966D01*
X103518837Y-125400458D01*
X103520472Y-125637767D01*
X103547532Y-125664827D01*
X103585800Y-125664827D01*
X103612860Y-125637767D01*
X103616666Y-125618633D01*
X103615158Y-125399794D01*
X103852467Y-125398160D01*
X103879527Y-125371100D01*
X103879527Y-125332832D01*
X103852467Y-125305772D01*
X103833333Y-125301966D01*
X103614494Y-125303473D01*
X103614239Y-125266409D01*
X104085464Y-125266409D01*
X104087139Y-125268456D01*
X104087139Y-125271100D01*
X104099039Y-125283000D01*
X104109698Y-125296027D01*
X104112329Y-125296290D01*
X104114199Y-125298160D01*
X104131027Y-125298160D01*
X104147776Y-125299835D01*
X104149823Y-125298160D01*
X104152467Y-125298160D01*
X104168688Y-125287321D01*
X104191045Y-125262239D01*
X104240116Y-125235161D01*
X104382574Y-125232242D01*
X104431755Y-125254385D01*
X104456393Y-125276346D01*
X104483471Y-125325416D01*
X104486390Y-125467874D01*
X104464247Y-125517056D01*
X104442286Y-125541692D01*
X104393216Y-125568771D01*
X104250758Y-125571690D01*
X104201575Y-125549547D01*
X104152468Y-125505772D01*
X104114199Y-125505772D01*
X104087139Y-125532831D01*
X104087139Y-125571100D01*
X104097977Y-125587321D01*
X104127386Y-125613536D01*
X104128894Y-125618060D01*
X104144306Y-125630021D01*
X104147483Y-125631451D01*
X104147531Y-125631494D01*
X104147578Y-125631494D01*
X104208125Y-125658753D01*
X104214199Y-125664827D01*
X104227485Y-125667469D01*
X104229789Y-125668507D01*
X104230876Y-125668144D01*
X104233333Y-125668633D01*
X104394046Y-125665340D01*
X104403545Y-125668507D01*
X104416808Y-125664874D01*
X104419134Y-125664827D01*
X104419945Y-125664015D01*
X104422361Y-125663354D01*
X104480095Y-125631494D01*
X104485800Y-125631494D01*
X104502021Y-125620655D01*
X104504232Y-125618173D01*
X104504439Y-125618060D01*
X104504501Y-125617872D01*
X104528235Y-125591247D01*
X104532760Y-125589739D01*
X104544721Y-125574327D01*
X104546152Y-125571147D01*
X104546194Y-125571101D01*
X104546194Y-125571055D01*
X104573453Y-125510507D01*
X104579527Y-125504434D01*
X104582169Y-125491147D01*
X104583207Y-125488844D01*
X104582844Y-125487756D01*
X104583333Y-125485300D01*
X104580040Y-125324587D01*
X104583207Y-125315089D01*
X104579574Y-125301822D01*
X104579527Y-125299499D01*
X104578716Y-125298688D01*
X104578055Y-125296273D01*
X104546194Y-125238537D01*
X104546194Y-125232831D01*
X104535355Y-125216610D01*
X104532871Y-125214396D01*
X104532760Y-125214194D01*
X104532575Y-125214132D01*
X104505946Y-125190397D01*
X104504439Y-125185873D01*
X104489027Y-125173912D01*
X104485845Y-125172479D01*
X104485800Y-125172439D01*
X104485755Y-125172439D01*
X104425206Y-125145178D01*
X104419134Y-125139106D01*
X104405849Y-125136463D01*
X104403545Y-125135426D01*
X104402456Y-125135788D01*
X104400000Y-125135300D01*
X104239287Y-125138592D01*
X104229789Y-125135426D01*
X104216522Y-125139058D01*
X104214199Y-125139106D01*
X104213388Y-125139916D01*
X104210973Y-125140578D01*
X104192553Y-125150742D01*
X104208830Y-124968177D01*
X104519134Y-124964827D01*
X104546194Y-124937767D01*
X104546194Y-124915089D01*
X104683459Y-124915089D01*
X104685899Y-124934444D01*
X104917873Y-125618878D01*
X104916793Y-125622177D01*
X104923619Y-125635829D01*
X104928894Y-125651393D01*
X104932236Y-125653063D01*
X104933907Y-125656406D01*
X104948946Y-125661419D01*
X104963123Y-125668507D01*
X104966667Y-125667325D01*
X104970211Y-125668507D01*
X104984387Y-125661419D01*
X104999427Y-125656406D01*
X105001097Y-125653063D01*
X105004440Y-125651393D01*
X105014101Y-125634444D01*
X105249874Y-124915088D01*
X105232760Y-124880860D01*
X105196456Y-124868759D01*
X105162227Y-124885873D01*
X105152566Y-124902821D01*
X104967856Y-125466379D01*
X104771106Y-124885873D01*
X104736877Y-124868759D01*
X104700573Y-124880860D01*
X104683459Y-124915089D01*
X104546194Y-124915089D01*
X104546194Y-124899499D01*
X104519134Y-124872439D01*
X104500000Y-124868633D01*
X104166873Y-124872230D01*
X104152223Y-124870765D01*
X104150212Y-124872410D01*
X104147532Y-124872439D01*
X104135629Y-124884341D01*
X104122605Y-124894998D01*
X104121565Y-124898405D01*
X104120472Y-124899499D01*
X104120472Y-124901991D01*
X104116914Y-124913658D01*
X104088604Y-125231188D01*
X104087139Y-125232832D01*
X104087139Y-125247621D01*
X104085464Y-125266409D01*
X103614239Y-125266409D01*
X103612860Y-125066166D01*
X103585800Y-125039106D01*
X103547532Y-125039106D01*
X103520472Y-125066166D01*
X103516666Y-125085300D01*
X103518173Y-125304137D01*
X103280865Y-125305772D01*
X103253805Y-125332832D01*
X103176027Y-125332832D01*
X103176027Y-124790855D01*
X105327652Y-124790855D01*
X105327652Y-125746411D01*
G37*
G36*
X126016636Y-104469353D02*
G01*
X125816946Y-104471509D01*
X125915478Y-104170886D01*
X126016636Y-104469353D01*
G37*
G36*
X122881756Y-104087718D02*
G01*
X122906392Y-104109679D01*
X122934672Y-104160924D01*
X122934827Y-104164093D01*
X122967341Y-104281907D01*
X122966667Y-104285300D01*
X122969763Y-104436446D01*
X122968160Y-104439840D01*
X122941331Y-104559435D01*
X122938613Y-104562939D01*
X122914247Y-104617055D01*
X122892287Y-104641692D01*
X122842897Y-104668948D01*
X122798994Y-104670895D01*
X122751576Y-104649547D01*
X122726941Y-104627586D01*
X122698661Y-104576341D01*
X122698507Y-104573173D01*
X122665992Y-104455358D01*
X122666667Y-104451966D01*
X122663570Y-104300820D01*
X122665174Y-104297427D01*
X122692002Y-104177830D01*
X122694721Y-104174327D01*
X122719086Y-104120210D01*
X122741047Y-104095572D01*
X122790436Y-104068317D01*
X122834339Y-104066370D01*
X122881756Y-104087718D01*
G37*
G36*
X127748423Y-104087718D02*
G01*
X127773059Y-104109679D01*
X127801339Y-104160924D01*
X127801494Y-104164093D01*
X127834008Y-104281907D01*
X127833334Y-104285300D01*
X127836430Y-104436446D01*
X127834827Y-104439840D01*
X127807998Y-104559435D01*
X127805280Y-104562939D01*
X127780914Y-104617055D01*
X127758954Y-104641692D01*
X127709564Y-104668948D01*
X127665661Y-104670895D01*
X127618243Y-104649547D01*
X127593608Y-104627586D01*
X127565328Y-104576341D01*
X127565174Y-104573173D01*
X127532659Y-104455358D01*
X127533334Y-104451966D01*
X127530237Y-104300820D01*
X127531841Y-104297427D01*
X127558669Y-104177830D01*
X127561388Y-104174327D01*
X127585753Y-104120210D01*
X127607714Y-104095572D01*
X127657103Y-104068317D01*
X127701006Y-104066370D01*
X127748423Y-104087718D01*
G37*
G36*
X119581755Y-104087718D02*
G01*
X119606391Y-104109679D01*
X119633553Y-104158899D01*
X119635997Y-104235409D01*
X119614245Y-104283725D01*
X119592287Y-104308358D01*
X119543305Y-104335389D01*
X119331318Y-104338212D01*
X119329888Y-104068013D01*
X119532008Y-104065321D01*
X119581755Y-104087718D01*
G37*
G36*
X129007306Y-104913078D02*
G01*
X118526027Y-104913078D01*
X118526027Y-103999499D01*
X118603805Y-103999499D01*
X118603805Y-104037767D01*
X118630865Y-104064827D01*
X118649999Y-104068633D01*
X118800256Y-104067268D01*
X118803805Y-104737767D01*
X118830865Y-104764827D01*
X118869133Y-104764827D01*
X118896193Y-104737767D01*
X118899999Y-104718633D01*
X118896547Y-104066394D01*
X119069133Y-104064827D01*
X119096193Y-104037767D01*
X119096193Y-104018633D01*
X119233332Y-104018633D01*
X119237138Y-104737767D01*
X119264198Y-104764827D01*
X119302466Y-104764827D01*
X119329526Y-104737767D01*
X119333332Y-104718633D01*
X119331829Y-104434654D01*
X119543526Y-104431835D01*
X119553544Y-104435174D01*
X119566871Y-104431524D01*
X119569133Y-104431494D01*
X119569944Y-104430682D01*
X119572360Y-104430021D01*
X119630095Y-104398160D01*
X119635800Y-104398160D01*
X119652021Y-104387321D01*
X119654232Y-104384839D01*
X119654439Y-104384726D01*
X119654501Y-104384538D01*
X119678234Y-104357913D01*
X119682759Y-104356405D01*
X119694720Y-104340993D01*
X119696151Y-104337813D01*
X119696193Y-104337767D01*
X119696193Y-104337721D01*
X119723452Y-104277173D01*
X119729526Y-104271100D01*
X119732168Y-104257813D01*
X119733206Y-104255510D01*
X119732843Y-104254422D01*
X119733332Y-104251966D01*
X119730302Y-104157133D01*
X119732025Y-104151966D01*
X119899999Y-104151966D01*
X119902762Y-104214264D01*
X119900125Y-104222177D01*
X119903691Y-104235198D01*
X119903805Y-104237767D01*
X119904616Y-104238578D01*
X119905278Y-104240993D01*
X119937138Y-104298728D01*
X119937138Y-104304435D01*
X119947977Y-104320656D01*
X119950459Y-104322868D01*
X119950572Y-104323073D01*
X119950758Y-104323135D01*
X119977384Y-104346868D01*
X119978893Y-104351393D01*
X119994305Y-104363354D01*
X119997488Y-104364787D01*
X119997533Y-104364827D01*
X119997577Y-104364827D01*
X120051833Y-104389254D01*
X120053565Y-104392140D01*
X120071205Y-104400473D01*
X120190802Y-104427303D01*
X120194305Y-104430021D01*
X120248421Y-104454385D01*
X120273059Y-104476346D01*
X120300314Y-104525735D01*
X120302261Y-104569638D01*
X120280913Y-104617056D01*
X120258952Y-104641692D01*
X120209882Y-104668771D01*
X120066697Y-104671704D01*
X120065810Y-104671199D01*
X119946455Y-104635426D01*
X119912226Y-104652540D01*
X119900125Y-104688844D01*
X119917239Y-104723073D01*
X119934188Y-104732734D01*
X120026413Y-104760375D01*
X120030865Y-104764827D01*
X120049999Y-104768633D01*
X120210712Y-104765340D01*
X120220211Y-104768507D01*
X120233474Y-104764874D01*
X120235800Y-104764827D01*
X120236611Y-104764015D01*
X120239027Y-104763354D01*
X120296761Y-104731494D01*
X120302466Y-104731494D01*
X120318687Y-104720655D01*
X120320898Y-104718173D01*
X120321105Y-104718060D01*
X120321167Y-104717872D01*
X120344901Y-104691247D01*
X120349426Y-104689739D01*
X120361387Y-104674327D01*
X120362818Y-104671147D01*
X120362860Y-104671101D01*
X120362860Y-104671055D01*
X120390119Y-104610507D01*
X120396193Y-104604434D01*
X120398835Y-104591147D01*
X120399873Y-104588844D01*
X120399510Y-104587756D01*
X120399999Y-104585300D01*
X120397235Y-104523001D01*
X120399873Y-104515089D01*
X120396306Y-104502064D01*
X120396193Y-104499499D01*
X120395382Y-104498688D01*
X120394721Y-104496273D01*
X120362860Y-104438537D01*
X120362860Y-104432831D01*
X120352021Y-104416610D01*
X120349537Y-104414396D01*
X120349426Y-104414194D01*
X120349241Y-104414132D01*
X120322612Y-104390397D01*
X120321105Y-104385873D01*
X120305693Y-104373912D01*
X120302511Y-104372479D01*
X120302466Y-104372439D01*
X120302421Y-104372439D01*
X120289028Y-104366409D01*
X120568797Y-104366409D01*
X120570472Y-104368456D01*
X120570472Y-104371100D01*
X120582372Y-104383000D01*
X120593031Y-104396027D01*
X120595662Y-104396290D01*
X120597532Y-104398160D01*
X120614360Y-104398160D01*
X120631109Y-104399835D01*
X120633156Y-104398160D01*
X120635800Y-104398160D01*
X120652021Y-104387321D01*
X120674378Y-104362239D01*
X120723449Y-104335161D01*
X120865907Y-104332242D01*
X120915088Y-104354385D01*
X120939726Y-104376346D01*
X120966804Y-104425416D01*
X120969723Y-104567874D01*
X120947580Y-104617056D01*
X120925619Y-104641692D01*
X120876549Y-104668771D01*
X120734091Y-104671690D01*
X120684908Y-104649547D01*
X120635801Y-104605772D01*
X120597532Y-104605772D01*
X120570472Y-104632831D01*
X120570472Y-104671100D01*
X120581310Y-104687321D01*
X120610719Y-104713536D01*
X120612227Y-104718060D01*
X120627639Y-104730021D01*
X120630816Y-104731451D01*
X120630864Y-104731494D01*
X120630911Y-104731494D01*
X120691458Y-104758753D01*
X120697532Y-104764827D01*
X120710818Y-104767469D01*
X120713122Y-104768507D01*
X120714209Y-104768144D01*
X120716666Y-104768633D01*
X120877379Y-104765340D01*
X120886878Y-104768507D01*
X120900141Y-104764874D01*
X120902467Y-104764827D01*
X120903278Y-104764015D01*
X120905694Y-104763354D01*
X120963428Y-104731494D01*
X120969133Y-104731494D01*
X120985354Y-104720655D01*
X120987565Y-104718173D01*
X120987772Y-104718060D01*
X120987834Y-104717872D01*
X121011568Y-104691247D01*
X121016093Y-104689739D01*
X121028054Y-104674327D01*
X121029485Y-104671147D01*
X121029527Y-104671101D01*
X121029527Y-104671055D01*
X121056786Y-104610507D01*
X121062860Y-104604434D01*
X121065502Y-104591147D01*
X121066540Y-104588844D01*
X121066177Y-104587756D01*
X121066666Y-104585300D01*
X121064690Y-104488844D01*
X121233459Y-104488844D01*
X121237139Y-104496204D01*
X121237139Y-104504434D01*
X121245368Y-104512663D01*
X121250573Y-104523073D01*
X121258380Y-104525675D01*
X121264199Y-104531494D01*
X121283333Y-104535300D01*
X121568866Y-104532898D01*
X121570472Y-104737767D01*
X121597532Y-104764827D01*
X121635800Y-104764827D01*
X121662860Y-104737767D01*
X121666666Y-104718633D01*
X121665204Y-104532087D01*
X121735800Y-104531494D01*
X121762860Y-104504434D01*
X121762860Y-104466166D01*
X121735800Y-104439106D01*
X121716666Y-104435300D01*
X121664449Y-104435739D01*
X121662860Y-104232832D01*
X121635800Y-104205772D01*
X121597532Y-104205772D01*
X121570472Y-104232832D01*
X121566666Y-104251966D01*
X121568112Y-104436549D01*
X121351194Y-104438374D01*
X121494097Y-103999499D01*
X121870473Y-103999499D01*
X121870473Y-104037767D01*
X121897533Y-104064827D01*
X121916667Y-104068633D01*
X122243648Y-104065882D01*
X122080974Y-104255664D01*
X122070473Y-104266166D01*
X122070473Y-104267916D01*
X122069303Y-104269281D01*
X122070473Y-104286835D01*
X122070473Y-104304434D01*
X122071729Y-104305690D01*
X122071848Y-104307465D01*
X122085092Y-104319053D01*
X122097533Y-104331494D01*
X122099833Y-104331951D01*
X122100648Y-104332664D01*
X122102720Y-104332525D01*
X122116667Y-104335300D01*
X122200110Y-104332634D01*
X122248422Y-104354385D01*
X122273060Y-104376346D01*
X122300138Y-104425416D01*
X122303057Y-104567874D01*
X122280914Y-104617056D01*
X122258953Y-104641692D01*
X122209922Y-104668750D01*
X122034336Y-104671799D01*
X121984909Y-104649547D01*
X121935802Y-104605772D01*
X121897533Y-104605772D01*
X121870473Y-104632831D01*
X121870473Y-104671100D01*
X121881311Y-104687321D01*
X121910720Y-104713536D01*
X121912228Y-104718060D01*
X121927640Y-104730021D01*
X121930817Y-104731451D01*
X121930865Y-104731494D01*
X121930912Y-104731494D01*
X121991459Y-104758753D01*
X121997533Y-104764827D01*
X122010819Y-104767469D01*
X122013123Y-104768507D01*
X122014210Y-104768144D01*
X122016667Y-104768633D01*
X122210490Y-104765266D01*
X122220212Y-104768507D01*
X122233503Y-104764866D01*
X122235801Y-104764827D01*
X122236612Y-104764015D01*
X122239028Y-104763354D01*
X122296762Y-104731494D01*
X122302467Y-104731494D01*
X122318688Y-104720655D01*
X122320899Y-104718173D01*
X122321106Y-104718060D01*
X122321168Y-104717872D01*
X122344902Y-104691247D01*
X122349427Y-104689739D01*
X122361388Y-104674327D01*
X122362819Y-104671147D01*
X122362861Y-104671101D01*
X122362861Y-104671055D01*
X122390120Y-104610507D01*
X122396194Y-104604434D01*
X122398836Y-104591147D01*
X122399874Y-104588844D01*
X122399511Y-104587756D01*
X122400000Y-104585300D01*
X122396707Y-104424587D01*
X122399874Y-104415089D01*
X122396241Y-104401822D01*
X122396194Y-104399499D01*
X122395383Y-104398688D01*
X122394722Y-104396273D01*
X122362861Y-104338537D01*
X122362861Y-104332831D01*
X122352022Y-104316610D01*
X122349538Y-104314396D01*
X122349427Y-104314194D01*
X122349242Y-104314132D01*
X122322613Y-104290397D01*
X122321106Y-104285873D01*
X122320368Y-104285300D01*
X122566667Y-104285300D01*
X122569840Y-104440226D01*
X122567212Y-104444607D01*
X122568160Y-104464093D01*
X122601473Y-104584801D01*
X122600126Y-104588845D01*
X122605279Y-104607661D01*
X122637140Y-104665395D01*
X122637140Y-104671100D01*
X122647978Y-104687321D01*
X122650461Y-104689534D01*
X122650574Y-104689739D01*
X122650760Y-104689801D01*
X122677387Y-104713536D01*
X122678895Y-104718060D01*
X122694307Y-104730021D01*
X122697484Y-104731451D01*
X122697532Y-104731494D01*
X122697579Y-104731494D01*
X122758126Y-104758753D01*
X122764200Y-104764827D01*
X122777486Y-104767469D01*
X122779790Y-104768507D01*
X122780877Y-104768144D01*
X122783334Y-104768633D01*
X122845632Y-104765869D01*
X122853544Y-104768507D01*
X122862090Y-104766166D01*
X123103807Y-104766166D01*
X123103807Y-104804434D01*
X123130867Y-104831494D01*
X123150001Y-104835300D01*
X123702468Y-104831494D01*
X123729528Y-104804434D01*
X123729528Y-104766166D01*
X123702468Y-104739106D01*
X123683334Y-104735300D01*
X123130867Y-104739106D01*
X123103807Y-104766166D01*
X122862090Y-104766166D01*
X122866565Y-104764940D01*
X122869134Y-104764827D01*
X122869945Y-104764015D01*
X122872360Y-104763354D01*
X122930095Y-104731494D01*
X122935802Y-104731494D01*
X122952023Y-104720655D01*
X122954235Y-104718172D01*
X122954440Y-104718060D01*
X122954502Y-104717873D01*
X122978235Y-104691247D01*
X122982760Y-104689739D01*
X122994721Y-104674327D01*
X122996154Y-104671143D01*
X122996194Y-104671099D01*
X122996194Y-104671055D01*
X123020623Y-104616796D01*
X123023508Y-104615066D01*
X123031841Y-104597427D01*
X123059403Y-104474557D01*
X123062861Y-104471100D01*
X123066667Y-104451966D01*
X123064914Y-104366409D01*
X123768798Y-104366409D01*
X123770473Y-104368456D01*
X123770473Y-104371100D01*
X123782373Y-104383000D01*
X123793032Y-104396027D01*
X123795663Y-104396290D01*
X123797533Y-104398160D01*
X123814361Y-104398160D01*
X123831110Y-104399835D01*
X123833157Y-104398160D01*
X123835801Y-104398160D01*
X123852022Y-104387321D01*
X123874379Y-104362239D01*
X123923450Y-104335161D01*
X124065908Y-104332242D01*
X124115089Y-104354385D01*
X124139727Y-104376346D01*
X124166805Y-104425416D01*
X124169724Y-104567874D01*
X124147581Y-104617056D01*
X124125620Y-104641692D01*
X124076550Y-104668771D01*
X123934092Y-104671690D01*
X123884909Y-104649547D01*
X123835802Y-104605772D01*
X123797533Y-104605772D01*
X123770473Y-104632831D01*
X123770473Y-104671100D01*
X123781311Y-104687321D01*
X123810720Y-104713536D01*
X123812228Y-104718060D01*
X123827640Y-104730021D01*
X123830817Y-104731451D01*
X123830865Y-104731494D01*
X123830912Y-104731494D01*
X123891459Y-104758753D01*
X123897533Y-104764827D01*
X123910819Y-104767469D01*
X123913123Y-104768507D01*
X123914210Y-104768144D01*
X123916667Y-104768633D01*
X124077380Y-104765340D01*
X124086879Y-104768507D01*
X124100142Y-104764874D01*
X124102468Y-104764827D01*
X124103279Y-104764015D01*
X124105695Y-104763354D01*
X124163429Y-104731494D01*
X124169134Y-104731494D01*
X124185355Y-104720655D01*
X124187566Y-104718173D01*
X124187773Y-104718060D01*
X124187835Y-104717872D01*
X124211569Y-104691247D01*
X124216094Y-104689739D01*
X124228055Y-104674327D01*
X124229486Y-104671147D01*
X124229528Y-104671101D01*
X124229528Y-104671055D01*
X124256787Y-104610507D01*
X124262861Y-104604434D01*
X124265503Y-104591147D01*
X124266541Y-104588844D01*
X124266178Y-104587756D01*
X124266667Y-104585300D01*
X124263374Y-104424587D01*
X124266541Y-104415089D01*
X124262908Y-104401822D01*
X124262861Y-104399499D01*
X124262050Y-104398688D01*
X124261389Y-104396273D01*
X124229528Y-104338537D01*
X124229528Y-104332831D01*
X124218689Y-104316610D01*
X124216205Y-104314396D01*
X124216094Y-104314194D01*
X124215909Y-104314132D01*
X124189280Y-104290397D01*
X124187773Y-104285873D01*
X124172361Y-104273912D01*
X124169179Y-104272479D01*
X124169134Y-104272439D01*
X124169089Y-104272439D01*
X124108540Y-104245178D01*
X124102468Y-104239106D01*
X124089183Y-104236463D01*
X124086879Y-104235426D01*
X124085790Y-104235788D01*
X124083334Y-104235300D01*
X123922621Y-104238592D01*
X123913123Y-104235426D01*
X123899856Y-104239058D01*
X123897533Y-104239106D01*
X123896722Y-104239916D01*
X123894307Y-104240578D01*
X123875887Y-104250742D01*
X123892164Y-104068177D01*
X124202468Y-104064827D01*
X124229528Y-104037767D01*
X124229528Y-104015089D01*
X124366793Y-104015089D01*
X124369233Y-104034444D01*
X124601207Y-104718878D01*
X124600127Y-104722177D01*
X124606953Y-104735829D01*
X124612228Y-104751393D01*
X124615570Y-104753063D01*
X124617241Y-104756406D01*
X124632280Y-104761419D01*
X124646457Y-104768507D01*
X124650001Y-104767325D01*
X124653545Y-104768507D01*
X124667721Y-104761419D01*
X124682761Y-104756406D01*
X124684431Y-104753063D01*
X124687774Y-104751393D01*
X124697435Y-104734444D01*
X124933208Y-104015088D01*
X124925413Y-103999499D01*
X125003807Y-103999499D01*
X125003807Y-104037767D01*
X125030867Y-104064827D01*
X125050001Y-104068633D01*
X125376982Y-104065882D01*
X125214308Y-104255664D01*
X125203807Y-104266166D01*
X125203807Y-104267916D01*
X125202637Y-104269281D01*
X125203807Y-104286835D01*
X125203807Y-104304434D01*
X125205063Y-104305690D01*
X125205182Y-104307465D01*
X125218426Y-104319053D01*
X125230867Y-104331494D01*
X125233167Y-104331951D01*
X125233982Y-104332664D01*
X125236054Y-104332525D01*
X125250001Y-104335300D01*
X125333444Y-104332634D01*
X125381756Y-104354385D01*
X125406394Y-104376346D01*
X125433472Y-104425416D01*
X125436391Y-104567874D01*
X125414248Y-104617056D01*
X125392287Y-104641692D01*
X125343256Y-104668750D01*
X125167670Y-104671799D01*
X125118243Y-104649547D01*
X125069136Y-104605772D01*
X125030867Y-104605772D01*
X125003807Y-104632831D01*
X125003807Y-104671100D01*
X125014645Y-104687321D01*
X125044054Y-104713536D01*
X125045562Y-104718060D01*
X125060974Y-104730021D01*
X125064151Y-104731451D01*
X125064199Y-104731494D01*
X125064246Y-104731494D01*
X125124793Y-104758753D01*
X125130867Y-104764827D01*
X125144153Y-104767469D01*
X125146457Y-104768507D01*
X125147544Y-104768144D01*
X125150001Y-104768633D01*
X125343824Y-104765266D01*
X125353546Y-104768507D01*
X125366837Y-104764866D01*
X125369135Y-104764827D01*
X125369946Y-104764015D01*
X125372362Y-104763354D01*
X125430096Y-104731494D01*
X125435801Y-104731494D01*
X125449744Y-104722177D01*
X125633460Y-104722177D01*
X125650574Y-104756406D01*
X125686878Y-104768507D01*
X125721107Y-104751393D01*
X125730768Y-104734444D01*
X125785238Y-104568252D01*
X126049190Y-104565402D01*
X126112228Y-104751393D01*
X126146457Y-104768507D01*
X126178970Y-104757669D01*
X126170474Y-104766166D01*
X126170474Y-104804434D01*
X126197534Y-104831494D01*
X126216668Y-104835300D01*
X126769135Y-104831494D01*
X126796195Y-104804434D01*
X126796195Y-104766166D01*
X126769135Y-104739106D01*
X126750001Y-104735300D01*
X126197534Y-104739106D01*
X126185288Y-104751352D01*
X126199875Y-104722178D01*
X126197435Y-104702822D01*
X126129528Y-104502463D01*
X126129528Y-104499499D01*
X126128007Y-104497978D01*
X125965460Y-104018387D01*
X125966542Y-104015089D01*
X126766793Y-104015089D01*
X126769233Y-104034444D01*
X127001207Y-104718878D01*
X127000127Y-104722177D01*
X127006953Y-104735829D01*
X127012228Y-104751393D01*
X127015570Y-104753063D01*
X127017241Y-104756406D01*
X127032280Y-104761419D01*
X127046457Y-104768507D01*
X127050001Y-104767325D01*
X127053545Y-104768507D01*
X127067721Y-104761419D01*
X127082761Y-104756406D01*
X127084431Y-104753063D01*
X127087774Y-104751393D01*
X127097435Y-104734444D01*
X127244644Y-104285300D01*
X127433334Y-104285300D01*
X127436507Y-104440226D01*
X127433879Y-104444607D01*
X127434827Y-104464093D01*
X127468140Y-104584801D01*
X127466793Y-104588845D01*
X127471946Y-104607661D01*
X127503807Y-104665395D01*
X127503807Y-104671100D01*
X127514645Y-104687321D01*
X127517128Y-104689534D01*
X127517241Y-104689739D01*
X127517427Y-104689801D01*
X127544054Y-104713536D01*
X127545562Y-104718060D01*
X127560974Y-104730021D01*
X127564151Y-104731451D01*
X127564199Y-104731494D01*
X127564246Y-104731494D01*
X127624793Y-104758753D01*
X127630867Y-104764827D01*
X127644153Y-104767469D01*
X127646457Y-104768507D01*
X127647544Y-104768144D01*
X127650001Y-104768633D01*
X127712299Y-104765869D01*
X127720211Y-104768507D01*
X127733232Y-104764940D01*
X127735801Y-104764827D01*
X127736612Y-104764015D01*
X127739027Y-104763354D01*
X127796762Y-104731494D01*
X127802469Y-104731494D01*
X127818690Y-104720655D01*
X127820902Y-104718172D01*
X127821107Y-104718060D01*
X127821169Y-104717873D01*
X127844902Y-104691247D01*
X127849427Y-104689739D01*
X127861388Y-104674327D01*
X127862821Y-104671143D01*
X127862861Y-104671099D01*
X127862861Y-104671055D01*
X127865062Y-104666166D01*
X128103807Y-104666166D01*
X128103807Y-104704435D01*
X128103809Y-104704437D01*
X128114646Y-104720655D01*
X128164190Y-104764818D01*
X128164199Y-104764827D01*
X128164200Y-104764827D01*
X128202468Y-104764827D01*
X128218689Y-104753989D01*
X128262862Y-104704435D01*
X128262862Y-104666166D01*
X128262862Y-104666165D01*
X128252023Y-104649944D01*
X128202468Y-104605772D01*
X128164199Y-104605772D01*
X128147978Y-104616611D01*
X128103807Y-104666166D01*
X127865062Y-104666166D01*
X127887290Y-104616796D01*
X127890175Y-104615066D01*
X127898508Y-104597427D01*
X127926070Y-104474557D01*
X127929528Y-104471100D01*
X127933334Y-104451966D01*
X127930160Y-104297039D01*
X127932789Y-104292659D01*
X127931841Y-104273173D01*
X127917767Y-104222177D01*
X128433460Y-104222177D01*
X128450574Y-104256405D01*
X128486878Y-104268507D01*
X128505694Y-104263354D01*
X128563429Y-104231494D01*
X128569136Y-104231494D01*
X128585357Y-104220655D01*
X128634127Y-104168496D01*
X128636785Y-104670871D01*
X128464200Y-104672439D01*
X128437140Y-104699499D01*
X128437140Y-104737767D01*
X128464200Y-104764827D01*
X128483334Y-104768633D01*
X128902468Y-104764827D01*
X128929528Y-104737767D01*
X128929528Y-104699499D01*
X128902468Y-104672439D01*
X128883334Y-104668633D01*
X128733076Y-104669997D01*
X128729703Y-104032604D01*
X128732383Y-104028337D01*
X128729607Y-104014457D01*
X128729528Y-103999499D01*
X128725887Y-103995858D01*
X128724878Y-103990811D01*
X128712764Y-103982735D01*
X128702468Y-103972439D01*
X128697320Y-103972439D01*
X128693037Y-103969584D01*
X128678762Y-103972439D01*
X128664200Y-103972439D01*
X128660559Y-103976079D01*
X128655512Y-103977089D01*
X128641731Y-103990898D01*
X128585469Y-104080500D01*
X128581312Y-104083278D01*
X128527764Y-104140544D01*
X128527641Y-104140578D01*
X128445562Y-104185873D01*
X128433460Y-104222177D01*
X127917767Y-104222177D01*
X127898527Y-104152464D01*
X127899875Y-104148421D01*
X127894722Y-104129605D01*
X127862861Y-104071870D01*
X127862861Y-104066167D01*
X127852023Y-104049945D01*
X127849539Y-104047731D01*
X127849427Y-104047527D01*
X127849240Y-104047464D01*
X127822615Y-104023730D01*
X127821107Y-104019206D01*
X127805695Y-104007245D01*
X127802515Y-104005813D01*
X127802469Y-104005772D01*
X127802423Y-104005772D01*
X127741873Y-103978511D01*
X127735801Y-103972439D01*
X127722514Y-103969796D01*
X127720211Y-103968759D01*
X127719123Y-103969121D01*
X127716667Y-103968633D01*
X127654369Y-103971396D01*
X127646457Y-103968759D01*
X127633432Y-103972325D01*
X127630867Y-103972439D01*
X127630056Y-103973249D01*
X127627641Y-103973911D01*
X127569906Y-104005772D01*
X127564199Y-104005772D01*
X127547978Y-104016611D01*
X127545764Y-104019094D01*
X127545562Y-104019206D01*
X127545500Y-104019390D01*
X127521765Y-104046019D01*
X127517241Y-104047527D01*
X127505280Y-104062939D01*
X127503847Y-104066120D01*
X127503807Y-104066166D01*
X127503807Y-104066210D01*
X127479377Y-104120469D01*
X127476493Y-104122200D01*
X127468160Y-104139840D01*
X127440597Y-104262708D01*
X127437140Y-104266166D01*
X127433334Y-104285300D01*
X127244644Y-104285300D01*
X127333208Y-104015088D01*
X127316094Y-103980860D01*
X127279790Y-103968759D01*
X127245561Y-103985873D01*
X127235900Y-104002821D01*
X127051190Y-104566379D01*
X126854440Y-103985873D01*
X126820211Y-103968759D01*
X126783907Y-103980860D01*
X126766793Y-104015089D01*
X125966542Y-104015089D01*
X125959715Y-104001436D01*
X125954441Y-103985873D01*
X125951098Y-103984202D01*
X125949428Y-103980860D01*
X125934388Y-103975846D01*
X125920212Y-103968759D01*
X125916668Y-103969940D01*
X125913124Y-103968759D01*
X125898947Y-103975846D01*
X125883908Y-103980860D01*
X125882237Y-103984202D01*
X125878895Y-103985873D01*
X125869234Y-104002822D01*
X125707730Y-104495575D01*
X125703807Y-104499499D01*
X125703807Y-104507545D01*
X125633460Y-104722177D01*
X125449744Y-104722177D01*
X125452022Y-104720655D01*
X125454233Y-104718173D01*
X125454440Y-104718060D01*
X125454502Y-104717872D01*
X125478236Y-104691247D01*
X125482761Y-104689739D01*
X125494722Y-104674327D01*
X125496153Y-104671147D01*
X125496195Y-104671101D01*
X125496195Y-104671055D01*
X125523454Y-104610507D01*
X125529528Y-104604434D01*
X125532170Y-104591147D01*
X125533208Y-104588844D01*
X125532845Y-104587756D01*
X125533334Y-104585300D01*
X125530041Y-104424587D01*
X125533208Y-104415089D01*
X125529575Y-104401822D01*
X125529528Y-104399499D01*
X125528717Y-104398688D01*
X125528056Y-104396273D01*
X125496195Y-104338537D01*
X125496195Y-104332831D01*
X125485356Y-104316610D01*
X125482872Y-104314396D01*
X125482761Y-104314194D01*
X125482576Y-104314132D01*
X125455947Y-104290397D01*
X125454440Y-104285873D01*
X125439028Y-104273912D01*
X125435846Y-104272479D01*
X125435801Y-104272439D01*
X125435756Y-104272439D01*
X125375207Y-104245178D01*
X125369135Y-104239106D01*
X125357441Y-104236780D01*
X125519026Y-104048268D01*
X125529528Y-104037767D01*
X125529528Y-104036016D01*
X125530698Y-104034652D01*
X125529528Y-104017097D01*
X125529528Y-103999499D01*
X125528271Y-103998242D01*
X125528153Y-103996468D01*
X125514908Y-103984879D01*
X125502468Y-103972439D01*
X125500167Y-103971981D01*
X125499353Y-103971269D01*
X125497280Y-103971407D01*
X125483334Y-103968633D01*
X125030867Y-103972439D01*
X125003807Y-103999499D01*
X124925413Y-103999499D01*
X124916094Y-103980860D01*
X124879790Y-103968759D01*
X124845561Y-103985873D01*
X124835900Y-104002821D01*
X124651190Y-104566379D01*
X124454440Y-103985873D01*
X124420211Y-103968759D01*
X124383907Y-103980860D01*
X124366793Y-104015089D01*
X124229528Y-104015089D01*
X124229528Y-103999499D01*
X124202468Y-103972439D01*
X124183334Y-103968633D01*
X123850207Y-103972230D01*
X123835557Y-103970765D01*
X123833546Y-103972410D01*
X123830866Y-103972439D01*
X123818963Y-103984341D01*
X123805939Y-103994998D01*
X123804899Y-103998405D01*
X123803806Y-103999499D01*
X123803806Y-104001991D01*
X123800248Y-104013658D01*
X123771938Y-104331188D01*
X123770473Y-104332832D01*
X123770473Y-104347621D01*
X123768798Y-104366409D01*
X123064914Y-104366409D01*
X123063493Y-104297039D01*
X123066122Y-104292659D01*
X123065174Y-104273173D01*
X123031860Y-104152464D01*
X123033208Y-104148421D01*
X123028055Y-104129605D01*
X122996194Y-104071870D01*
X122996194Y-104066167D01*
X122985356Y-104049945D01*
X122982872Y-104047731D01*
X122982760Y-104047527D01*
X122982573Y-104047464D01*
X122955948Y-104023730D01*
X122954440Y-104019206D01*
X122939028Y-104007245D01*
X122935848Y-104005813D01*
X122935802Y-104005772D01*
X122935756Y-104005772D01*
X122875206Y-103978511D01*
X122869134Y-103972439D01*
X122855847Y-103969796D01*
X122853544Y-103968759D01*
X122852456Y-103969121D01*
X122850000Y-103968633D01*
X122787702Y-103971396D01*
X122779790Y-103968759D01*
X122766765Y-103972325D01*
X122764200Y-103972439D01*
X122763389Y-103973249D01*
X122760974Y-103973911D01*
X122703239Y-104005772D01*
X122697532Y-104005772D01*
X122681311Y-104016611D01*
X122679097Y-104019094D01*
X122678895Y-104019206D01*
X122678833Y-104019390D01*
X122655098Y-104046019D01*
X122650574Y-104047527D01*
X122638613Y-104062939D01*
X122637180Y-104066120D01*
X122637140Y-104066166D01*
X122637140Y-104066210D01*
X122612710Y-104120469D01*
X122609826Y-104122200D01*
X122601493Y-104139840D01*
X122573930Y-104262708D01*
X122570473Y-104266166D01*
X122566667Y-104285300D01*
X122320368Y-104285300D01*
X122305694Y-104273912D01*
X122302512Y-104272479D01*
X122302467Y-104272439D01*
X122302422Y-104272439D01*
X122241873Y-104245178D01*
X122235801Y-104239106D01*
X122224107Y-104236780D01*
X122385692Y-104048268D01*
X122396194Y-104037767D01*
X122396194Y-104036016D01*
X122397364Y-104034652D01*
X122396194Y-104017097D01*
X122396194Y-103999499D01*
X122394937Y-103998242D01*
X122394819Y-103996468D01*
X122381574Y-103984879D01*
X122369134Y-103972439D01*
X122366833Y-103971981D01*
X122366019Y-103971269D01*
X122363946Y-103971407D01*
X122350000Y-103968633D01*
X121897533Y-103972439D01*
X121870473Y-103999499D01*
X121494097Y-103999499D01*
X121499874Y-103981756D01*
X121482760Y-103947528D01*
X121446456Y-103935426D01*
X121412227Y-103952540D01*
X121402566Y-103969489D01*
X121242631Y-104460673D01*
X121237139Y-104466166D01*
X121237139Y-104477542D01*
X121233459Y-104488844D01*
X121064690Y-104488844D01*
X121063373Y-104424587D01*
X121066540Y-104415089D01*
X121062907Y-104401822D01*
X121062860Y-104399499D01*
X121062049Y-104398688D01*
X121061388Y-104396273D01*
X121029527Y-104338537D01*
X121029527Y-104332831D01*
X121018688Y-104316610D01*
X121016204Y-104314396D01*
X121016093Y-104314194D01*
X121015908Y-104314132D01*
X120989279Y-104290397D01*
X120987772Y-104285873D01*
X120972360Y-104273912D01*
X120969178Y-104272479D01*
X120969133Y-104272439D01*
X120969088Y-104272439D01*
X120908539Y-104245178D01*
X120902467Y-104239106D01*
X120889182Y-104236463D01*
X120886878Y-104235426D01*
X120885789Y-104235788D01*
X120883333Y-104235300D01*
X120722620Y-104238592D01*
X120713122Y-104235426D01*
X120699855Y-104239058D01*
X120697532Y-104239106D01*
X120696721Y-104239916D01*
X120694306Y-104240578D01*
X120675886Y-104250742D01*
X120692163Y-104068177D01*
X121002467Y-104064827D01*
X121029527Y-104037767D01*
X121029527Y-103999499D01*
X121002467Y-103972439D01*
X120983333Y-103968633D01*
X120650206Y-103972230D01*
X120635556Y-103970765D01*
X120633545Y-103972410D01*
X120630865Y-103972439D01*
X120618962Y-103984341D01*
X120605938Y-103994998D01*
X120604898Y-103998405D01*
X120603805Y-103999499D01*
X120603805Y-104001991D01*
X120600247Y-104013658D01*
X120571937Y-104331188D01*
X120570472Y-104332832D01*
X120570472Y-104347621D01*
X120568797Y-104366409D01*
X120289028Y-104366409D01*
X120248164Y-104348011D01*
X120246433Y-104345126D01*
X120228793Y-104336793D01*
X120109196Y-104309964D01*
X120105693Y-104307245D01*
X120051575Y-104282880D01*
X120026939Y-104260920D01*
X119999683Y-104211530D01*
X119997736Y-104167627D01*
X120019085Y-104120208D01*
X120041045Y-104095573D01*
X120090115Y-104068494D01*
X120233300Y-104065561D01*
X120234188Y-104066067D01*
X120353543Y-104101840D01*
X120387772Y-104084726D01*
X120399873Y-104048422D01*
X120382759Y-104014193D01*
X120365810Y-104004532D01*
X120273584Y-103976890D01*
X120269133Y-103972439D01*
X120249999Y-103968633D01*
X120089286Y-103971925D01*
X120079788Y-103968759D01*
X120066523Y-103972391D01*
X120064198Y-103972439D01*
X120063386Y-103973250D01*
X120060971Y-103973912D01*
X120003237Y-104005772D01*
X119997531Y-104005772D01*
X119981310Y-104016611D01*
X119979097Y-104019093D01*
X119978893Y-104019206D01*
X119978830Y-104019392D01*
X119955096Y-104046018D01*
X119950572Y-104047527D01*
X119938611Y-104062939D01*
X119937178Y-104066120D01*
X119937138Y-104066166D01*
X119937138Y-104066210D01*
X119909877Y-104126759D01*
X119903805Y-104132832D01*
X119901162Y-104146116D01*
X119900125Y-104148421D01*
X119900487Y-104149509D01*
X119899999Y-104151966D01*
X119732025Y-104151966D01*
X119733206Y-104148422D01*
X119729603Y-104135268D01*
X119729526Y-104132832D01*
X119728714Y-104132020D01*
X119728053Y-104129605D01*
X119696193Y-104071870D01*
X119696193Y-104066167D01*
X119685355Y-104049945D01*
X119682871Y-104047731D01*
X119682759Y-104047527D01*
X119682572Y-104047464D01*
X119655947Y-104023730D01*
X119654439Y-104019206D01*
X119639027Y-104007245D01*
X119635847Y-104005813D01*
X119635801Y-104005772D01*
X119635755Y-104005772D01*
X119575205Y-103978511D01*
X119569133Y-103972439D01*
X119555846Y-103969796D01*
X119553543Y-103968759D01*
X119552455Y-103969121D01*
X119549999Y-103968633D01*
X119264198Y-103972439D01*
X119237138Y-103999499D01*
X119233332Y-104018633D01*
X119096193Y-104018633D01*
X119096193Y-103999499D01*
X119069133Y-103972439D01*
X119049999Y-103968633D01*
X118630865Y-103972439D01*
X118603805Y-103999499D01*
X118526027Y-103999499D01*
X118526027Y-103857648D01*
X129007306Y-103857648D01*
X129007306Y-104913078D01*
G37*
G36*
X104816644Y-133456567D02*
G01*
X104901601Y-133482030D01*
X104954367Y-133531370D01*
X104954401Y-133531493D01*
X104983793Y-133584757D01*
X104983948Y-133587927D01*
X105016462Y-133705740D01*
X105015788Y-133709133D01*
X105018512Y-133794400D01*
X105017281Y-133797007D01*
X104990452Y-133916601D01*
X104987734Y-133920105D01*
X104963387Y-133974182D01*
X104910669Y-134030562D01*
X104832778Y-134059197D01*
X104832455Y-134059133D01*
X104715536Y-134061528D01*
X104712342Y-133458179D01*
X104815756Y-133456061D01*
X104816644Y-133456567D01*
G37*
G36*
X105193566Y-134236911D02*
G01*
X103071344Y-134236911D01*
X103071344Y-133709133D01*
X103149122Y-133709133D01*
X103151959Y-133797953D01*
X103149667Y-133801774D01*
X103150615Y-133821260D01*
X103183928Y-133941968D01*
X103182581Y-133946011D01*
X103187734Y-133964827D01*
X103219595Y-134022562D01*
X103219595Y-134028267D01*
X103230433Y-134044488D01*
X103295638Y-134105459D01*
X103299695Y-134113573D01*
X103311529Y-134120318D01*
X103313321Y-134121994D01*
X103314469Y-134121994D01*
X103316644Y-134123234D01*
X103408869Y-134150875D01*
X103413321Y-134155327D01*
X103432455Y-134159133D01*
X103435908Y-134158979D01*
X103435999Y-134159007D01*
X103436067Y-134158972D01*
X103490665Y-134156550D01*
X103495578Y-134159007D01*
X103514933Y-134156567D01*
X103608976Y-134121994D01*
X103618257Y-134121994D01*
X103629608Y-134114408D01*
X103631882Y-134113573D01*
X103632395Y-134112546D01*
X103634478Y-134111155D01*
X103678640Y-134061608D01*
X103678649Y-134061600D01*
X103682455Y-134042466D01*
X103678649Y-133789999D01*
X103651589Y-133762939D01*
X103632455Y-133759133D01*
X103479988Y-133762939D01*
X103452928Y-133789999D01*
X103452928Y-133828267D01*
X103479988Y-133855327D01*
X103499122Y-133859133D01*
X103583177Y-133857034D01*
X103585633Y-134019974D01*
X103575639Y-134031186D01*
X103499445Y-134059197D01*
X103499122Y-134059133D01*
X103447364Y-134061428D01*
X103363309Y-134036235D01*
X103310543Y-133986895D01*
X103310510Y-133986772D01*
X103281116Y-133933507D01*
X103280962Y-133930339D01*
X103248447Y-133812525D01*
X103249122Y-133809133D01*
X103246397Y-133723865D01*
X103247629Y-133721260D01*
X103274457Y-133601664D01*
X103277176Y-133598161D01*
X103301523Y-133544083D01*
X103354241Y-133487703D01*
X103432131Y-133459068D01*
X103432455Y-133459133D01*
X103515899Y-133456467D01*
X103595578Y-133492340D01*
X103631883Y-133480238D01*
X103648996Y-133446010D01*
X103636895Y-133409706D01*
X103636157Y-133409133D01*
X103882455Y-133409133D01*
X103886261Y-134128267D01*
X103913321Y-134155327D01*
X103951589Y-134155327D01*
X103978649Y-134128267D01*
X103982455Y-134109133D01*
X103979712Y-133590926D01*
X104286225Y-134121628D01*
X104286261Y-134128267D01*
X104295253Y-134137259D01*
X104301841Y-134148665D01*
X104308465Y-134150471D01*
X104313321Y-134155327D01*
X104326269Y-134155327D01*
X104338761Y-134158734D01*
X104344723Y-134155327D01*
X104351589Y-134155327D01*
X104360742Y-134146173D01*
X104371987Y-134139748D01*
X104373794Y-134133121D01*
X104378649Y-134128267D01*
X104382455Y-134109133D01*
X104378750Y-133409133D01*
X104615788Y-133409133D01*
X104619594Y-134128267D01*
X104646654Y-134155327D01*
X104665788Y-134159133D01*
X104822733Y-134155918D01*
X104828911Y-134159007D01*
X104848266Y-134156567D01*
X104942309Y-134121994D01*
X104951589Y-134121994D01*
X104962939Y-134114409D01*
X104965215Y-134113573D01*
X104965728Y-134112545D01*
X104967810Y-134111155D01*
X105026080Y-134048838D01*
X105031882Y-134046905D01*
X105043843Y-134031493D01*
X105045275Y-134028311D01*
X105045316Y-134028268D01*
X105045316Y-134028221D01*
X105069744Y-133973962D01*
X105072629Y-133972232D01*
X105080962Y-133954593D01*
X105108524Y-133831724D01*
X105111982Y-133828267D01*
X105115788Y-133809133D01*
X105112950Y-133720312D01*
X105115243Y-133716492D01*
X105114295Y-133697006D01*
X105080981Y-133576298D01*
X105082329Y-133572256D01*
X105077177Y-133553440D01*
X105045316Y-133495704D01*
X105045316Y-133489998D01*
X105034477Y-133473777D01*
X104969271Y-133412806D01*
X104965215Y-133404693D01*
X104953380Y-133397947D01*
X104951589Y-133396272D01*
X104950441Y-133396272D01*
X104948266Y-133395032D01*
X104856040Y-133367390D01*
X104851589Y-133362939D01*
X104832455Y-133359133D01*
X104646654Y-133362939D01*
X104619594Y-133389999D01*
X104615788Y-133409133D01*
X104378750Y-133409133D01*
X104378649Y-133389999D01*
X104351589Y-133362939D01*
X104313321Y-133362939D01*
X104286261Y-133389999D01*
X104282455Y-133409133D01*
X104285197Y-133927339D01*
X103978684Y-133396635D01*
X103978649Y-133389999D01*
X103969658Y-133381008D01*
X103963070Y-133369601D01*
X103956443Y-133367793D01*
X103951589Y-133362939D01*
X103938642Y-133362939D01*
X103926149Y-133359532D01*
X103920187Y-133362939D01*
X103913321Y-133362939D01*
X103904167Y-133372092D01*
X103892923Y-133378518D01*
X103891115Y-133385144D01*
X103886261Y-133389999D01*
X103882455Y-133409133D01*
X103636157Y-133409133D01*
X103621483Y-133397745D01*
X103557661Y-133369011D01*
X103551589Y-133362939D01*
X103538302Y-133360296D01*
X103535999Y-133359259D01*
X103534911Y-133359621D01*
X103532455Y-133359133D01*
X103441555Y-133362036D01*
X103435999Y-133359259D01*
X103416644Y-133361699D01*
X103322601Y-133396272D01*
X103313321Y-133396272D01*
X103301970Y-133403856D01*
X103299695Y-133404693D01*
X103299181Y-133405720D01*
X103297100Y-133407111D01*
X103238832Y-133469425D01*
X103233029Y-133471360D01*
X103221068Y-133486772D01*
X103219633Y-133489957D01*
X103219595Y-133489999D01*
X103219595Y-133490043D01*
X103195165Y-133544303D01*
X103192281Y-133546034D01*
X103183948Y-133563674D01*
X103156385Y-133686541D01*
X103152928Y-133689999D01*
X103149122Y-133709133D01*
X103071344Y-133709133D01*
X103071344Y-133281355D01*
X105193566Y-133281355D01*
X105193566Y-134236911D01*
G37*
G36*
X105327652Y-112746411D02*
G01*
X103176027Y-112746411D01*
X103176027Y-112332832D01*
X103253805Y-112332832D01*
X103253805Y-112371100D01*
X103280865Y-112398160D01*
X103299999Y-112401966D01*
X103518837Y-112400458D01*
X103520472Y-112637767D01*
X103547532Y-112664827D01*
X103585800Y-112664827D01*
X103612860Y-112637767D01*
X103616666Y-112618633D01*
X103615158Y-112399794D01*
X103852467Y-112398160D01*
X103879527Y-112371100D01*
X103879527Y-112332832D01*
X103852467Y-112305772D01*
X103833333Y-112301966D01*
X103614494Y-112303473D01*
X103614239Y-112266409D01*
X104085464Y-112266409D01*
X104087139Y-112268456D01*
X104087139Y-112271100D01*
X104099039Y-112283000D01*
X104109698Y-112296027D01*
X104112329Y-112296290D01*
X104114199Y-112298160D01*
X104131027Y-112298160D01*
X104147776Y-112299835D01*
X104149823Y-112298160D01*
X104152467Y-112298160D01*
X104168688Y-112287321D01*
X104191045Y-112262239D01*
X104240116Y-112235161D01*
X104382574Y-112232242D01*
X104431755Y-112254385D01*
X104456393Y-112276346D01*
X104483471Y-112325416D01*
X104486390Y-112467874D01*
X104464247Y-112517056D01*
X104442286Y-112541692D01*
X104393216Y-112568771D01*
X104250758Y-112571690D01*
X104201575Y-112549547D01*
X104152468Y-112505772D01*
X104114199Y-112505772D01*
X104087139Y-112532831D01*
X104087139Y-112571100D01*
X104097977Y-112587321D01*
X104127386Y-112613536D01*
X104128894Y-112618060D01*
X104144306Y-112630021D01*
X104147483Y-112631451D01*
X104147531Y-112631494D01*
X104147578Y-112631494D01*
X104208125Y-112658753D01*
X104214199Y-112664827D01*
X104227485Y-112667469D01*
X104229789Y-112668507D01*
X104230876Y-112668144D01*
X104233333Y-112668633D01*
X104394046Y-112665340D01*
X104403545Y-112668507D01*
X104416808Y-112664874D01*
X104419134Y-112664827D01*
X104419945Y-112664015D01*
X104422361Y-112663354D01*
X104480095Y-112631494D01*
X104485800Y-112631494D01*
X104502021Y-112620655D01*
X104504232Y-112618173D01*
X104504439Y-112618060D01*
X104504501Y-112617872D01*
X104528235Y-112591247D01*
X104532760Y-112589739D01*
X104544721Y-112574327D01*
X104546152Y-112571147D01*
X104546194Y-112571101D01*
X104546194Y-112571055D01*
X104573453Y-112510507D01*
X104579527Y-112504434D01*
X104582169Y-112491147D01*
X104583207Y-112488844D01*
X104582844Y-112487756D01*
X104583333Y-112485300D01*
X104580040Y-112324587D01*
X104583207Y-112315089D01*
X104579574Y-112301822D01*
X104579527Y-112299499D01*
X104578716Y-112298688D01*
X104578055Y-112296273D01*
X104546194Y-112238537D01*
X104546194Y-112232831D01*
X104535355Y-112216610D01*
X104532871Y-112214396D01*
X104532760Y-112214194D01*
X104532575Y-112214132D01*
X104505946Y-112190397D01*
X104504439Y-112185873D01*
X104489027Y-112173912D01*
X104485845Y-112172479D01*
X104485800Y-112172439D01*
X104485755Y-112172439D01*
X104425206Y-112145178D01*
X104419134Y-112139106D01*
X104405849Y-112136463D01*
X104403545Y-112135426D01*
X104402456Y-112135788D01*
X104400000Y-112135300D01*
X104239287Y-112138592D01*
X104229789Y-112135426D01*
X104216522Y-112139058D01*
X104214199Y-112139106D01*
X104213388Y-112139916D01*
X104210973Y-112140578D01*
X104192553Y-112150742D01*
X104208830Y-111968177D01*
X104519134Y-111964827D01*
X104546194Y-111937767D01*
X104546194Y-111915089D01*
X104683459Y-111915089D01*
X104685899Y-111934444D01*
X104917873Y-112618878D01*
X104916793Y-112622177D01*
X104923619Y-112635829D01*
X104928894Y-112651393D01*
X104932236Y-112653063D01*
X104933907Y-112656406D01*
X104948946Y-112661419D01*
X104963123Y-112668507D01*
X104966667Y-112667325D01*
X104970211Y-112668507D01*
X104984387Y-112661419D01*
X104999427Y-112656406D01*
X105001097Y-112653063D01*
X105004440Y-112651393D01*
X105014101Y-112634444D01*
X105249874Y-111915088D01*
X105232760Y-111880860D01*
X105196456Y-111868759D01*
X105162227Y-111885873D01*
X105152566Y-111902821D01*
X104967856Y-112466379D01*
X104771106Y-111885873D01*
X104736877Y-111868759D01*
X104700573Y-111880860D01*
X104683459Y-111915089D01*
X104546194Y-111915089D01*
X104546194Y-111899499D01*
X104519134Y-111872439D01*
X104500000Y-111868633D01*
X104166873Y-111872230D01*
X104152223Y-111870765D01*
X104150212Y-111872410D01*
X104147532Y-111872439D01*
X104135629Y-111884341D01*
X104122605Y-111894998D01*
X104121565Y-111898405D01*
X104120472Y-111899499D01*
X104120472Y-111901991D01*
X104116914Y-111913658D01*
X104088604Y-112231188D01*
X104087139Y-112232832D01*
X104087139Y-112247621D01*
X104085464Y-112266409D01*
X103614239Y-112266409D01*
X103612860Y-112066166D01*
X103585800Y-112039106D01*
X103547532Y-112039106D01*
X103520472Y-112066166D01*
X103516666Y-112085300D01*
X103518173Y-112304137D01*
X103280865Y-112305772D01*
X103253805Y-112332832D01*
X103176027Y-112332832D01*
X103176027Y-111790855D01*
X105327652Y-111790855D01*
X105327652Y-112746411D01*
G37*
G36*
X105327652Y-119246411D02*
G01*
X103176027Y-119246411D01*
X103176027Y-118832832D01*
X103253805Y-118832832D01*
X103253805Y-118871100D01*
X103280865Y-118898160D01*
X103299999Y-118901966D01*
X103518837Y-118900458D01*
X103520472Y-119137767D01*
X103547532Y-119164827D01*
X103585800Y-119164827D01*
X103612860Y-119137767D01*
X103616666Y-119118633D01*
X103615158Y-118899794D01*
X103852467Y-118898160D01*
X103879527Y-118871100D01*
X103879527Y-118832832D01*
X103852467Y-118805772D01*
X103833333Y-118801966D01*
X103614494Y-118803473D01*
X103614239Y-118766409D01*
X104085464Y-118766409D01*
X104087139Y-118768456D01*
X104087139Y-118771100D01*
X104099039Y-118783000D01*
X104109698Y-118796027D01*
X104112329Y-118796290D01*
X104114199Y-118798160D01*
X104131027Y-118798160D01*
X104147776Y-118799835D01*
X104149823Y-118798160D01*
X104152467Y-118798160D01*
X104168688Y-118787321D01*
X104191045Y-118762239D01*
X104240116Y-118735161D01*
X104382574Y-118732242D01*
X104431755Y-118754385D01*
X104456393Y-118776346D01*
X104483471Y-118825416D01*
X104486390Y-118967874D01*
X104464247Y-119017056D01*
X104442286Y-119041692D01*
X104393216Y-119068771D01*
X104250758Y-119071690D01*
X104201575Y-119049547D01*
X104152468Y-119005772D01*
X104114199Y-119005772D01*
X104087139Y-119032831D01*
X104087139Y-119071100D01*
X104097977Y-119087321D01*
X104127386Y-119113536D01*
X104128894Y-119118060D01*
X104144306Y-119130021D01*
X104147483Y-119131451D01*
X104147531Y-119131494D01*
X104147578Y-119131494D01*
X104208125Y-119158753D01*
X104214199Y-119164827D01*
X104227485Y-119167469D01*
X104229789Y-119168507D01*
X104230876Y-119168144D01*
X104233333Y-119168633D01*
X104394046Y-119165340D01*
X104403545Y-119168507D01*
X104416808Y-119164874D01*
X104419134Y-119164827D01*
X104419945Y-119164015D01*
X104422361Y-119163354D01*
X104480095Y-119131494D01*
X104485800Y-119131494D01*
X104502021Y-119120655D01*
X104504232Y-119118173D01*
X104504439Y-119118060D01*
X104504501Y-119117872D01*
X104528235Y-119091247D01*
X104532760Y-119089739D01*
X104544721Y-119074327D01*
X104546152Y-119071147D01*
X104546194Y-119071101D01*
X104546194Y-119071055D01*
X104573453Y-119010507D01*
X104579527Y-119004434D01*
X104582169Y-118991147D01*
X104583207Y-118988844D01*
X104582844Y-118987756D01*
X104583333Y-118985300D01*
X104580040Y-118824587D01*
X104583207Y-118815089D01*
X104579574Y-118801822D01*
X104579527Y-118799499D01*
X104578716Y-118798688D01*
X104578055Y-118796273D01*
X104546194Y-118738537D01*
X104546194Y-118732831D01*
X104535355Y-118716610D01*
X104532871Y-118714396D01*
X104532760Y-118714194D01*
X104532575Y-118714132D01*
X104505946Y-118690397D01*
X104504439Y-118685873D01*
X104489027Y-118673912D01*
X104485845Y-118672479D01*
X104485800Y-118672439D01*
X104485755Y-118672439D01*
X104425206Y-118645178D01*
X104419134Y-118639106D01*
X104405849Y-118636463D01*
X104403545Y-118635426D01*
X104402456Y-118635788D01*
X104400000Y-118635300D01*
X104239287Y-118638592D01*
X104229789Y-118635426D01*
X104216522Y-118639058D01*
X104214199Y-118639106D01*
X104213388Y-118639916D01*
X104210973Y-118640578D01*
X104192553Y-118650742D01*
X104208830Y-118468177D01*
X104519134Y-118464827D01*
X104546194Y-118437767D01*
X104546194Y-118415089D01*
X104683459Y-118415089D01*
X104685899Y-118434444D01*
X104917873Y-119118878D01*
X104916793Y-119122177D01*
X104923619Y-119135829D01*
X104928894Y-119151393D01*
X104932236Y-119153063D01*
X104933907Y-119156406D01*
X104948946Y-119161419D01*
X104963123Y-119168507D01*
X104966667Y-119167325D01*
X104970211Y-119168507D01*
X104984387Y-119161419D01*
X104999427Y-119156406D01*
X105001097Y-119153063D01*
X105004440Y-119151393D01*
X105014101Y-119134444D01*
X105249874Y-118415088D01*
X105232760Y-118380860D01*
X105196456Y-118368759D01*
X105162227Y-118385873D01*
X105152566Y-118402821D01*
X104967856Y-118966379D01*
X104771106Y-118385873D01*
X104736877Y-118368759D01*
X104700573Y-118380860D01*
X104683459Y-118415089D01*
X104546194Y-118415089D01*
X104546194Y-118399499D01*
X104519134Y-118372439D01*
X104500000Y-118368633D01*
X104166873Y-118372230D01*
X104152223Y-118370765D01*
X104150212Y-118372410D01*
X104147532Y-118372439D01*
X104135629Y-118384341D01*
X104122605Y-118394998D01*
X104121565Y-118398405D01*
X104120472Y-118399499D01*
X104120472Y-118401991D01*
X104116914Y-118413658D01*
X104088604Y-118731188D01*
X104087139Y-118732832D01*
X104087139Y-118747621D01*
X104085464Y-118766409D01*
X103614239Y-118766409D01*
X103612860Y-118566166D01*
X103585800Y-118539106D01*
X103547532Y-118539106D01*
X103520472Y-118566166D01*
X103516666Y-118585300D01*
X103518173Y-118804137D01*
X103280865Y-118805772D01*
X103253805Y-118832832D01*
X103176027Y-118832832D01*
X103176027Y-118290855D01*
X105327652Y-118290855D01*
X105327652Y-119246411D01*
G37*
G36*
X104884189Y-126966067D02*
G01*
X104969146Y-126991530D01*
X105021912Y-127040870D01*
X105021946Y-127040993D01*
X105051338Y-127094257D01*
X105051493Y-127097427D01*
X105084007Y-127215240D01*
X105083333Y-127218633D01*
X105086057Y-127303900D01*
X105084826Y-127306507D01*
X105057997Y-127426101D01*
X105055279Y-127429605D01*
X105030932Y-127483682D01*
X104978214Y-127540062D01*
X104900323Y-127568697D01*
X104900000Y-127568633D01*
X104783081Y-127571028D01*
X104779887Y-126967679D01*
X104883301Y-126965561D01*
X104884189Y-126966067D01*
G37*
G36*
X105261111Y-127746411D02*
G01*
X103138889Y-127746411D01*
X103138889Y-127218633D01*
X103216667Y-127218633D01*
X103219504Y-127307453D01*
X103217212Y-127311274D01*
X103218160Y-127330760D01*
X103251473Y-127451468D01*
X103250126Y-127455511D01*
X103255279Y-127474327D01*
X103287140Y-127532062D01*
X103287140Y-127537767D01*
X103297978Y-127553988D01*
X103363183Y-127614959D01*
X103367240Y-127623073D01*
X103379074Y-127629818D01*
X103380866Y-127631494D01*
X103382014Y-127631494D01*
X103384189Y-127632734D01*
X103476414Y-127660375D01*
X103480866Y-127664827D01*
X103500000Y-127668633D01*
X103503453Y-127668479D01*
X103503544Y-127668507D01*
X103503612Y-127668472D01*
X103558210Y-127666050D01*
X103563123Y-127668507D01*
X103582478Y-127666067D01*
X103676521Y-127631494D01*
X103685802Y-127631494D01*
X103697153Y-127623908D01*
X103699427Y-127623073D01*
X103699940Y-127622046D01*
X103702023Y-127620655D01*
X103746185Y-127571108D01*
X103746194Y-127571100D01*
X103750000Y-127551966D01*
X103746194Y-127299499D01*
X103719134Y-127272439D01*
X103700000Y-127268633D01*
X103547533Y-127272439D01*
X103520473Y-127299499D01*
X103520473Y-127337767D01*
X103547533Y-127364827D01*
X103566667Y-127368633D01*
X103650722Y-127366534D01*
X103653178Y-127529474D01*
X103643184Y-127540686D01*
X103566990Y-127568697D01*
X103566667Y-127568633D01*
X103514909Y-127570928D01*
X103430854Y-127545735D01*
X103378088Y-127496395D01*
X103378055Y-127496272D01*
X103348661Y-127443007D01*
X103348507Y-127439839D01*
X103315992Y-127322025D01*
X103316667Y-127318633D01*
X103313942Y-127233365D01*
X103315174Y-127230760D01*
X103342002Y-127111164D01*
X103344721Y-127107661D01*
X103369068Y-127053583D01*
X103421786Y-126997203D01*
X103499676Y-126968568D01*
X103500000Y-126968633D01*
X103583444Y-126965967D01*
X103663123Y-127001840D01*
X103699428Y-126989738D01*
X103716541Y-126955510D01*
X103704440Y-126919206D01*
X103703702Y-126918633D01*
X103950000Y-126918633D01*
X103953806Y-127637767D01*
X103980866Y-127664827D01*
X104019134Y-127664827D01*
X104046194Y-127637767D01*
X104050000Y-127618633D01*
X104047257Y-127100426D01*
X104353770Y-127631128D01*
X104353806Y-127637767D01*
X104362798Y-127646759D01*
X104369386Y-127658165D01*
X104376010Y-127659971D01*
X104380866Y-127664827D01*
X104393814Y-127664827D01*
X104406306Y-127668234D01*
X104412268Y-127664827D01*
X104419134Y-127664827D01*
X104428287Y-127655673D01*
X104439532Y-127649248D01*
X104441339Y-127642621D01*
X104446194Y-127637767D01*
X104450000Y-127618633D01*
X104446295Y-126918633D01*
X104683333Y-126918633D01*
X104687139Y-127637767D01*
X104714199Y-127664827D01*
X104733333Y-127668633D01*
X104890278Y-127665418D01*
X104896456Y-127668507D01*
X104915811Y-127666067D01*
X105009854Y-127631494D01*
X105019134Y-127631494D01*
X105030484Y-127623909D01*
X105032760Y-127623073D01*
X105033273Y-127622045D01*
X105035355Y-127620655D01*
X105093625Y-127558338D01*
X105099427Y-127556405D01*
X105111388Y-127540993D01*
X105112820Y-127537811D01*
X105112861Y-127537768D01*
X105112861Y-127537721D01*
X105137289Y-127483462D01*
X105140174Y-127481732D01*
X105148507Y-127464093D01*
X105176069Y-127341224D01*
X105179527Y-127337767D01*
X105183333Y-127318633D01*
X105180495Y-127229812D01*
X105182788Y-127225992D01*
X105181840Y-127206506D01*
X105148526Y-127085798D01*
X105149874Y-127081756D01*
X105144722Y-127062940D01*
X105112861Y-127005204D01*
X105112861Y-126999498D01*
X105102022Y-126983277D01*
X105036816Y-126922306D01*
X105032760Y-126914193D01*
X105020925Y-126907447D01*
X105019134Y-126905772D01*
X105017986Y-126905772D01*
X105015811Y-126904532D01*
X104923585Y-126876890D01*
X104919134Y-126872439D01*
X104900000Y-126868633D01*
X104714199Y-126872439D01*
X104687139Y-126899499D01*
X104683333Y-126918633D01*
X104446295Y-126918633D01*
X104446194Y-126899499D01*
X104419134Y-126872439D01*
X104380866Y-126872439D01*
X104353806Y-126899499D01*
X104350000Y-126918633D01*
X104352742Y-127436839D01*
X104046229Y-126906135D01*
X104046194Y-126899499D01*
X104037203Y-126890508D01*
X104030615Y-126879101D01*
X104023988Y-126877293D01*
X104019134Y-126872439D01*
X104006187Y-126872439D01*
X103993694Y-126869032D01*
X103987732Y-126872439D01*
X103980866Y-126872439D01*
X103971712Y-126881592D01*
X103960468Y-126888018D01*
X103958660Y-126894644D01*
X103953806Y-126899499D01*
X103950000Y-126918633D01*
X103703702Y-126918633D01*
X103689028Y-126907245D01*
X103625206Y-126878511D01*
X103619134Y-126872439D01*
X103605847Y-126869796D01*
X103603544Y-126868759D01*
X103602456Y-126869121D01*
X103600000Y-126868633D01*
X103509100Y-126871536D01*
X103503544Y-126868759D01*
X103484189Y-126871199D01*
X103390146Y-126905772D01*
X103380866Y-126905772D01*
X103369515Y-126913356D01*
X103367240Y-126914193D01*
X103366726Y-126915220D01*
X103364645Y-126916611D01*
X103306377Y-126978925D01*
X103300574Y-126980860D01*
X103288613Y-126996272D01*
X103287178Y-126999457D01*
X103287140Y-126999499D01*
X103287140Y-126999543D01*
X103262710Y-127053803D01*
X103259826Y-127055534D01*
X103251493Y-127073174D01*
X103223930Y-127196041D01*
X103220473Y-127199499D01*
X103216667Y-127218633D01*
X103138889Y-127218633D01*
X103138889Y-126790855D01*
X105261111Y-126790855D01*
X105261111Y-127746411D01*
G37*
G36*
X105260108Y-132236911D02*
G01*
X103108483Y-132236911D01*
X103108483Y-131823332D01*
X103186261Y-131823332D01*
X103186261Y-131861600D01*
X103213321Y-131888660D01*
X103232455Y-131892466D01*
X103451293Y-131890958D01*
X103452928Y-132128267D01*
X103479988Y-132155327D01*
X103518256Y-132155327D01*
X103545316Y-132128267D01*
X103549122Y-132109133D01*
X103547614Y-131890294D01*
X103784923Y-131888660D01*
X103811983Y-131861600D01*
X103811983Y-131823332D01*
X103784923Y-131796272D01*
X103765789Y-131792466D01*
X103546950Y-131793973D01*
X103546695Y-131756909D01*
X104017920Y-131756909D01*
X104019595Y-131758956D01*
X104019595Y-131761600D01*
X104031495Y-131773500D01*
X104042154Y-131786527D01*
X104044785Y-131786790D01*
X104046655Y-131788660D01*
X104063483Y-131788660D01*
X104080232Y-131790335D01*
X104082279Y-131788660D01*
X104084923Y-131788660D01*
X104101144Y-131777821D01*
X104123501Y-131752739D01*
X104172572Y-131725661D01*
X104315030Y-131722742D01*
X104364211Y-131744885D01*
X104388849Y-131766846D01*
X104415927Y-131815916D01*
X104418846Y-131958374D01*
X104396703Y-132007556D01*
X104374742Y-132032192D01*
X104325672Y-132059271D01*
X104183214Y-132062190D01*
X104134031Y-132040047D01*
X104084924Y-131996272D01*
X104046655Y-131996272D01*
X104019595Y-132023331D01*
X104019595Y-132061600D01*
X104030433Y-132077821D01*
X104059842Y-132104036D01*
X104061350Y-132108560D01*
X104076762Y-132120521D01*
X104079939Y-132121951D01*
X104079987Y-132121994D01*
X104080034Y-132121994D01*
X104140581Y-132149253D01*
X104146655Y-132155327D01*
X104159941Y-132157969D01*
X104162245Y-132159007D01*
X104163332Y-132158644D01*
X104165789Y-132159133D01*
X104326502Y-132155840D01*
X104336001Y-132159007D01*
X104349264Y-132155374D01*
X104351590Y-132155327D01*
X104352401Y-132154515D01*
X104354817Y-132153854D01*
X104412551Y-132121994D01*
X104418256Y-132121994D01*
X104434477Y-132111155D01*
X104436688Y-132108673D01*
X104436895Y-132108560D01*
X104436957Y-132108372D01*
X104460691Y-132081747D01*
X104465216Y-132080239D01*
X104477177Y-132064827D01*
X104478608Y-132061647D01*
X104478650Y-132061601D01*
X104478650Y-132061555D01*
X104505909Y-132001007D01*
X104511983Y-131994934D01*
X104514625Y-131981647D01*
X104515663Y-131979344D01*
X104515300Y-131978256D01*
X104515789Y-131975800D01*
X104512496Y-131815087D01*
X104515663Y-131805589D01*
X104512030Y-131792322D01*
X104511983Y-131789999D01*
X104511172Y-131789188D01*
X104510511Y-131786773D01*
X104478650Y-131729037D01*
X104478650Y-131723331D01*
X104467811Y-131707110D01*
X104465327Y-131704896D01*
X104465216Y-131704694D01*
X104465031Y-131704632D01*
X104438402Y-131680897D01*
X104436895Y-131676373D01*
X104421483Y-131664412D01*
X104418301Y-131662979D01*
X104418256Y-131662939D01*
X104418211Y-131662939D01*
X104357662Y-131635678D01*
X104351590Y-131629606D01*
X104338305Y-131626963D01*
X104336001Y-131625926D01*
X104334912Y-131626288D01*
X104332456Y-131625800D01*
X104171743Y-131629092D01*
X104162245Y-131625926D01*
X104148978Y-131629558D01*
X104146655Y-131629606D01*
X104145844Y-131630416D01*
X104143429Y-131631078D01*
X104125009Y-131641242D01*
X104141286Y-131458677D01*
X104451590Y-131455327D01*
X104478650Y-131428267D01*
X104478650Y-131405589D01*
X104615915Y-131405589D01*
X104618355Y-131424944D01*
X104850329Y-132109378D01*
X104849249Y-132112677D01*
X104856075Y-132126329D01*
X104861350Y-132141893D01*
X104864692Y-132143563D01*
X104866363Y-132146906D01*
X104881402Y-132151919D01*
X104895579Y-132159007D01*
X104899123Y-132157825D01*
X104902667Y-132159007D01*
X104916843Y-132151919D01*
X104931883Y-132146906D01*
X104933553Y-132143563D01*
X104936896Y-132141893D01*
X104946557Y-132124944D01*
X105182330Y-131405588D01*
X105165216Y-131371360D01*
X105128912Y-131359259D01*
X105094683Y-131376373D01*
X105085022Y-131393321D01*
X104900312Y-131956879D01*
X104703562Y-131376373D01*
X104669333Y-131359259D01*
X104633029Y-131371360D01*
X104615915Y-131405589D01*
X104478650Y-131405589D01*
X104478650Y-131389999D01*
X104451590Y-131362939D01*
X104432456Y-131359133D01*
X104099329Y-131362730D01*
X104084679Y-131361265D01*
X104082668Y-131362910D01*
X104079988Y-131362939D01*
X104068085Y-131374841D01*
X104055061Y-131385498D01*
X104054021Y-131388905D01*
X104052928Y-131389999D01*
X104052928Y-131392491D01*
X104049370Y-131404158D01*
X104021060Y-131721688D01*
X104019595Y-131723332D01*
X104019595Y-131738121D01*
X104017920Y-131756909D01*
X103546695Y-131756909D01*
X103545316Y-131556666D01*
X103518256Y-131529606D01*
X103479988Y-131529606D01*
X103452928Y-131556666D01*
X103449122Y-131575800D01*
X103450629Y-131794637D01*
X103213321Y-131796272D01*
X103186261Y-131823332D01*
X103108483Y-131823332D01*
X103108483Y-131281355D01*
X105260108Y-131281355D01*
X105260108Y-132236911D01*
G37*
G36*
X104884189Y-113966067D02*
G01*
X104969146Y-113991530D01*
X105021912Y-114040870D01*
X105021946Y-114040993D01*
X105051338Y-114094257D01*
X105051493Y-114097427D01*
X105084007Y-114215240D01*
X105083333Y-114218633D01*
X105086057Y-114303900D01*
X105084826Y-114306507D01*
X105057997Y-114426101D01*
X105055279Y-114429605D01*
X105030932Y-114483682D01*
X104978214Y-114540062D01*
X104900323Y-114568697D01*
X104900000Y-114568633D01*
X104783081Y-114571028D01*
X104779887Y-113967679D01*
X104883301Y-113965561D01*
X104884189Y-113966067D01*
G37*
G36*
X105261111Y-114746411D02*
G01*
X103138889Y-114746411D01*
X103138889Y-114218633D01*
X103216667Y-114218633D01*
X103219504Y-114307453D01*
X103217212Y-114311274D01*
X103218160Y-114330760D01*
X103251473Y-114451468D01*
X103250126Y-114455511D01*
X103255279Y-114474327D01*
X103287140Y-114532062D01*
X103287140Y-114537767D01*
X103297978Y-114553988D01*
X103363183Y-114614959D01*
X103367240Y-114623073D01*
X103379074Y-114629818D01*
X103380866Y-114631494D01*
X103382014Y-114631494D01*
X103384189Y-114632734D01*
X103476414Y-114660375D01*
X103480866Y-114664827D01*
X103500000Y-114668633D01*
X103503453Y-114668479D01*
X103503544Y-114668507D01*
X103503612Y-114668472D01*
X103558210Y-114666050D01*
X103563123Y-114668507D01*
X103582478Y-114666067D01*
X103676521Y-114631494D01*
X103685802Y-114631494D01*
X103697153Y-114623908D01*
X103699427Y-114623073D01*
X103699940Y-114622046D01*
X103702023Y-114620655D01*
X103746185Y-114571108D01*
X103746194Y-114571100D01*
X103750000Y-114551966D01*
X103746194Y-114299499D01*
X103719134Y-114272439D01*
X103700000Y-114268633D01*
X103547533Y-114272439D01*
X103520473Y-114299499D01*
X103520473Y-114337767D01*
X103547533Y-114364827D01*
X103566667Y-114368633D01*
X103650722Y-114366534D01*
X103653178Y-114529474D01*
X103643184Y-114540686D01*
X103566990Y-114568697D01*
X103566667Y-114568633D01*
X103514909Y-114570928D01*
X103430854Y-114545735D01*
X103378088Y-114496395D01*
X103378055Y-114496272D01*
X103348661Y-114443007D01*
X103348507Y-114439839D01*
X103315992Y-114322025D01*
X103316667Y-114318633D01*
X103313942Y-114233365D01*
X103315174Y-114230760D01*
X103342002Y-114111164D01*
X103344721Y-114107661D01*
X103369068Y-114053583D01*
X103421786Y-113997203D01*
X103499676Y-113968568D01*
X103500000Y-113968633D01*
X103583444Y-113965967D01*
X103663123Y-114001840D01*
X103699428Y-113989738D01*
X103716541Y-113955510D01*
X103704440Y-113919206D01*
X103703702Y-113918633D01*
X103950000Y-113918633D01*
X103953806Y-114637767D01*
X103980866Y-114664827D01*
X104019134Y-114664827D01*
X104046194Y-114637767D01*
X104050000Y-114618633D01*
X104047257Y-114100426D01*
X104353770Y-114631128D01*
X104353806Y-114637767D01*
X104362798Y-114646759D01*
X104369386Y-114658165D01*
X104376010Y-114659971D01*
X104380866Y-114664827D01*
X104393814Y-114664827D01*
X104406306Y-114668234D01*
X104412268Y-114664827D01*
X104419134Y-114664827D01*
X104428287Y-114655673D01*
X104439532Y-114649248D01*
X104441339Y-114642621D01*
X104446194Y-114637767D01*
X104450000Y-114618633D01*
X104446295Y-113918633D01*
X104683333Y-113918633D01*
X104687139Y-114637767D01*
X104714199Y-114664827D01*
X104733333Y-114668633D01*
X104890278Y-114665418D01*
X104896456Y-114668507D01*
X104915811Y-114666067D01*
X105009854Y-114631494D01*
X105019134Y-114631494D01*
X105030484Y-114623909D01*
X105032760Y-114623073D01*
X105033273Y-114622045D01*
X105035355Y-114620655D01*
X105093625Y-114558338D01*
X105099427Y-114556405D01*
X105111388Y-114540993D01*
X105112820Y-114537811D01*
X105112861Y-114537768D01*
X105112861Y-114537721D01*
X105137289Y-114483462D01*
X105140174Y-114481732D01*
X105148507Y-114464093D01*
X105176069Y-114341224D01*
X105179527Y-114337767D01*
X105183333Y-114318633D01*
X105180495Y-114229812D01*
X105182788Y-114225992D01*
X105181840Y-114206506D01*
X105148526Y-114085798D01*
X105149874Y-114081756D01*
X105144722Y-114062940D01*
X105112861Y-114005204D01*
X105112861Y-113999498D01*
X105102022Y-113983277D01*
X105036816Y-113922306D01*
X105032760Y-113914193D01*
X105020925Y-113907447D01*
X105019134Y-113905772D01*
X105017986Y-113905772D01*
X105015811Y-113904532D01*
X104923585Y-113876890D01*
X104919134Y-113872439D01*
X104900000Y-113868633D01*
X104714199Y-113872439D01*
X104687139Y-113899499D01*
X104683333Y-113918633D01*
X104446295Y-113918633D01*
X104446194Y-113899499D01*
X104419134Y-113872439D01*
X104380866Y-113872439D01*
X104353806Y-113899499D01*
X104350000Y-113918633D01*
X104352742Y-114436839D01*
X104046229Y-113906135D01*
X104046194Y-113899499D01*
X104037203Y-113890508D01*
X104030615Y-113879101D01*
X104023988Y-113877293D01*
X104019134Y-113872439D01*
X104006187Y-113872439D01*
X103993694Y-113869032D01*
X103987732Y-113872439D01*
X103980866Y-113872439D01*
X103971712Y-113881592D01*
X103960468Y-113888018D01*
X103958660Y-113894644D01*
X103953806Y-113899499D01*
X103950000Y-113918633D01*
X103703702Y-113918633D01*
X103689028Y-113907245D01*
X103625206Y-113878511D01*
X103619134Y-113872439D01*
X103605847Y-113869796D01*
X103603544Y-113868759D01*
X103602456Y-113869121D01*
X103600000Y-113868633D01*
X103509100Y-113871536D01*
X103503544Y-113868759D01*
X103484189Y-113871199D01*
X103390146Y-113905772D01*
X103380866Y-113905772D01*
X103369515Y-113913356D01*
X103367240Y-113914193D01*
X103366726Y-113915220D01*
X103364645Y-113916611D01*
X103306377Y-113978925D01*
X103300574Y-113980860D01*
X103288613Y-113996272D01*
X103287178Y-113999457D01*
X103287140Y-113999499D01*
X103287140Y-113999543D01*
X103262710Y-114053803D01*
X103259826Y-114055534D01*
X103251493Y-114073174D01*
X103223930Y-114196041D01*
X103220473Y-114199499D01*
X103216667Y-114218633D01*
X103138889Y-114218633D01*
X103138889Y-113790855D01*
X105261111Y-113790855D01*
X105261111Y-114746411D01*
G37*
G36*
X131684189Y-115166067D02*
G01*
X131769146Y-115191530D01*
X131821912Y-115240870D01*
X131821946Y-115240993D01*
X131851338Y-115294257D01*
X131851493Y-115297427D01*
X131884007Y-115415240D01*
X131883333Y-115418633D01*
X131886057Y-115503900D01*
X131884826Y-115506507D01*
X131857997Y-115626101D01*
X131855279Y-115629605D01*
X131830932Y-115683682D01*
X131778214Y-115740062D01*
X131700323Y-115768697D01*
X131700000Y-115768633D01*
X131583081Y-115771028D01*
X131579887Y-115167679D01*
X131683301Y-115165561D01*
X131684189Y-115166067D01*
G37*
G36*
X132061111Y-115946411D02*
G01*
X129938889Y-115946411D01*
X129938889Y-115418633D01*
X130016667Y-115418633D01*
X130019504Y-115507453D01*
X130017212Y-115511274D01*
X130018160Y-115530760D01*
X130051473Y-115651468D01*
X130050126Y-115655511D01*
X130055279Y-115674327D01*
X130087140Y-115732062D01*
X130087140Y-115737767D01*
X130097978Y-115753988D01*
X130163183Y-115814959D01*
X130167240Y-115823073D01*
X130179074Y-115829818D01*
X130180866Y-115831494D01*
X130182014Y-115831494D01*
X130184189Y-115832734D01*
X130276414Y-115860375D01*
X130280866Y-115864827D01*
X130300000Y-115868633D01*
X130303453Y-115868479D01*
X130303544Y-115868507D01*
X130303612Y-115868472D01*
X130358210Y-115866050D01*
X130363123Y-115868507D01*
X130382478Y-115866067D01*
X130476521Y-115831494D01*
X130485802Y-115831494D01*
X130497153Y-115823908D01*
X130499427Y-115823073D01*
X130499940Y-115822046D01*
X130502023Y-115820655D01*
X130546185Y-115771108D01*
X130546194Y-115771100D01*
X130550000Y-115751966D01*
X130546194Y-115499499D01*
X130519134Y-115472439D01*
X130500000Y-115468633D01*
X130347533Y-115472439D01*
X130320473Y-115499499D01*
X130320473Y-115537767D01*
X130347533Y-115564827D01*
X130366667Y-115568633D01*
X130450722Y-115566534D01*
X130453178Y-115729474D01*
X130443184Y-115740686D01*
X130366990Y-115768697D01*
X130366667Y-115768633D01*
X130314909Y-115770928D01*
X130230854Y-115745735D01*
X130178088Y-115696395D01*
X130178055Y-115696272D01*
X130148661Y-115643007D01*
X130148507Y-115639839D01*
X130115992Y-115522025D01*
X130116667Y-115518633D01*
X130113942Y-115433365D01*
X130115174Y-115430760D01*
X130142002Y-115311164D01*
X130144721Y-115307661D01*
X130169068Y-115253583D01*
X130221786Y-115197203D01*
X130299676Y-115168568D01*
X130300000Y-115168633D01*
X130383444Y-115165967D01*
X130463123Y-115201840D01*
X130499428Y-115189738D01*
X130516541Y-115155510D01*
X130504440Y-115119206D01*
X130503702Y-115118633D01*
X130750000Y-115118633D01*
X130753806Y-115837767D01*
X130780866Y-115864827D01*
X130819134Y-115864827D01*
X130846194Y-115837767D01*
X130850000Y-115818633D01*
X130847257Y-115300426D01*
X131153770Y-115831128D01*
X131153806Y-115837767D01*
X131162798Y-115846759D01*
X131169386Y-115858165D01*
X131176010Y-115859971D01*
X131180866Y-115864827D01*
X131193814Y-115864827D01*
X131206306Y-115868234D01*
X131212268Y-115864827D01*
X131219134Y-115864827D01*
X131228287Y-115855673D01*
X131239532Y-115849248D01*
X131241339Y-115842621D01*
X131246194Y-115837767D01*
X131250000Y-115818633D01*
X131246295Y-115118633D01*
X131483333Y-115118633D01*
X131487139Y-115837767D01*
X131514199Y-115864827D01*
X131533333Y-115868633D01*
X131690278Y-115865418D01*
X131696456Y-115868507D01*
X131715811Y-115866067D01*
X131809854Y-115831494D01*
X131819134Y-115831494D01*
X131830484Y-115823909D01*
X131832760Y-115823073D01*
X131833273Y-115822045D01*
X131835355Y-115820655D01*
X131893625Y-115758338D01*
X131899427Y-115756405D01*
X131911388Y-115740993D01*
X131912820Y-115737811D01*
X131912861Y-115737768D01*
X131912861Y-115737721D01*
X131937289Y-115683462D01*
X131940174Y-115681732D01*
X131948507Y-115664093D01*
X131976069Y-115541224D01*
X131979527Y-115537767D01*
X131983333Y-115518633D01*
X131980495Y-115429812D01*
X131982788Y-115425992D01*
X131981840Y-115406506D01*
X131948526Y-115285798D01*
X131949874Y-115281756D01*
X131944722Y-115262940D01*
X131912861Y-115205204D01*
X131912861Y-115199498D01*
X131902022Y-115183277D01*
X131836816Y-115122306D01*
X131832760Y-115114193D01*
X131820925Y-115107447D01*
X131819134Y-115105772D01*
X131817986Y-115105772D01*
X131815811Y-115104532D01*
X131723585Y-115076890D01*
X131719134Y-115072439D01*
X131700000Y-115068633D01*
X131514199Y-115072439D01*
X131487139Y-115099499D01*
X131483333Y-115118633D01*
X131246295Y-115118633D01*
X131246194Y-115099499D01*
X131219134Y-115072439D01*
X131180866Y-115072439D01*
X131153806Y-115099499D01*
X131150000Y-115118633D01*
X131152742Y-115636839D01*
X130846229Y-115106135D01*
X130846194Y-115099499D01*
X130837203Y-115090508D01*
X130830615Y-115079101D01*
X130823988Y-115077293D01*
X130819134Y-115072439D01*
X130806187Y-115072439D01*
X130793694Y-115069032D01*
X130787732Y-115072439D01*
X130780866Y-115072439D01*
X130771712Y-115081592D01*
X130760468Y-115088018D01*
X130758660Y-115094644D01*
X130753806Y-115099499D01*
X130750000Y-115118633D01*
X130503702Y-115118633D01*
X130489028Y-115107245D01*
X130425206Y-115078511D01*
X130419134Y-115072439D01*
X130405847Y-115069796D01*
X130403544Y-115068759D01*
X130402456Y-115069121D01*
X130400000Y-115068633D01*
X130309100Y-115071536D01*
X130303544Y-115068759D01*
X130284189Y-115071199D01*
X130190146Y-115105772D01*
X130180866Y-115105772D01*
X130169515Y-115113356D01*
X130167240Y-115114193D01*
X130166726Y-115115220D01*
X130164645Y-115116611D01*
X130106377Y-115178925D01*
X130100574Y-115180860D01*
X130088613Y-115196272D01*
X130087178Y-115199457D01*
X130087140Y-115199499D01*
X130087140Y-115199543D01*
X130062710Y-115253803D01*
X130059826Y-115255534D01*
X130051493Y-115273174D01*
X130023930Y-115396041D01*
X130020473Y-115399499D01*
X130016667Y-115418633D01*
X129938889Y-115418633D01*
X129938889Y-114990855D01*
X132061111Y-114990855D01*
X132061111Y-115946411D01*
G37*
D11*
%TO.C,D2*%
X121300000Y-113610000D02*
X127250000Y-113610000D01*
X126700000Y-109990000D02*
X121300000Y-109990000D01*
D12*
%TO.C,C8*%
X124352500Y-125833767D02*
X124352500Y-125541233D01*
X125372500Y-125833767D02*
X125372500Y-125541233D01*
D10*
%TO.C,J1*%
X132050000Y-111500000D02*
X132050000Y-117500000D01*
X132050000Y-117500000D02*
X137350000Y-117500000D01*
X137350000Y-111500000D02*
X133700000Y-111500000D01*
X137350000Y-117500000D02*
X137350000Y-111500000D01*
D12*
%TO.C,D1*%
X134765000Y-123065000D02*
X134765000Y-125525000D01*
X136235000Y-123065000D02*
X134765000Y-123065000D01*
X136235000Y-125525000D02*
X136235000Y-123065000D01*
%TO.C,Q1*%
X127600000Y-122590000D02*
X126950000Y-122590000D01*
X127600000Y-122590000D02*
X128250000Y-122590000D01*
X127600000Y-125710000D02*
X126950000Y-125710000D01*
X127600000Y-125710000D02*
X128250000Y-125710000D01*
X129002500Y-125990000D02*
X128522500Y-125990000D01*
X128762500Y-125660000D01*
X129002500Y-125990000D01*
G36*
X129002500Y-125990000D02*
G01*
X128522500Y-125990000D01*
X128762500Y-125660000D01*
X129002500Y-125990000D01*
G37*
D10*
%TO.C,J6*%
X97750000Y-123300000D02*
X97750000Y-129300000D01*
X97750000Y-129300000D02*
X101400000Y-129300000D01*
X103050000Y-123300000D02*
X97750000Y-123300000D01*
X103050000Y-129300000D02*
X103050000Y-123300000D01*
D12*
%TO.C,C1*%
X116660000Y-115683767D02*
X116660000Y-115391233D01*
X117680000Y-115683767D02*
X117680000Y-115391233D01*
D10*
%TO.C,J5*%
X97750000Y-116800000D02*
X97750000Y-122800000D01*
X97750000Y-122800000D02*
X101400000Y-122800000D01*
X103050000Y-116800000D02*
X97750000Y-116800000D01*
X103050000Y-122800000D02*
X103050000Y-116800000D01*
D12*
%TO.C,C7*%
X127088748Y-128090000D02*
X128511252Y-128090000D01*
X127088748Y-129910000D02*
X128511252Y-129910000D01*
%TO.C,R5*%
X128054724Y-126127500D02*
X127545276Y-126127500D01*
X128054724Y-127172500D02*
X127545276Y-127172500D01*
%TO.C,C6*%
X129065000Y-119023752D02*
X129065000Y-118501248D01*
X130535000Y-119023752D02*
X130535000Y-118501248D01*
%TO.C,C3*%
X112461252Y-123240000D02*
X111038748Y-123240000D01*
X112461252Y-125060000D02*
X111038748Y-125060000D01*
%TO.C,C4*%
X112461252Y-120840000D02*
X111038748Y-120840000D01*
X112461252Y-122660000D02*
X111038748Y-122660000D01*
%TO.C,R1*%
X113832776Y-118477500D02*
X114342224Y-118477500D01*
X113832776Y-119522500D02*
X114342224Y-119522500D01*
%TO.C,R2*%
X116057776Y-123227500D02*
X116567224Y-123227500D01*
X116057776Y-124272500D02*
X116567224Y-124272500D01*
D10*
%TO.C,J7*%
X97750000Y-129800000D02*
X97750000Y-135800000D01*
X97750000Y-135800000D02*
X101400000Y-135800000D01*
X103050000Y-129800000D02*
X97750000Y-129800000D01*
X103050000Y-135800000D02*
X103050000Y-129800000D01*
D11*
%TO.C,IC1*%
X118233000Y-115802500D02*
X119758000Y-115802500D01*
D10*
%TO.C,J2*%
X108700000Y-129000000D02*
X108700000Y-138499000D01*
X108700000Y-142949000D02*
X108700000Y-140999000D01*
X109650000Y-129000000D02*
X108700000Y-129000000D01*
X118600000Y-129000000D02*
X117650000Y-129000000D01*
X118600000Y-138499000D02*
X118600000Y-129000000D01*
X118600000Y-140999000D02*
X118600000Y-142949000D01*
X118600000Y-142949000D02*
X108700000Y-142949000D01*
D12*
%TO.C,R3*%
X116057776Y-121727500D02*
X116567224Y-121727500D01*
X116057776Y-122772500D02*
X116567224Y-122772500D01*
%TO.C,C2*%
X112011252Y-126015000D02*
X111488748Y-126015000D01*
X112011252Y-127485000D02*
X111488748Y-127485000D01*
D10*
%TO.C,J3*%
X123900000Y-131700000D02*
X129100000Y-131700000D01*
X123900000Y-141900000D02*
X123900000Y-131700000D01*
X129100000Y-131700000D02*
X129100000Y-141900000D01*
X129100000Y-141900000D02*
X123900000Y-141900000D01*
D12*
%TO.C,L1*%
X105860000Y-104977500D02*
X105860000Y-116497500D01*
X105860000Y-104977500D02*
X108810000Y-104977500D01*
X105860000Y-116497500D02*
X108810000Y-116497500D01*
X116380000Y-104977500D02*
X113430000Y-104977500D01*
X116380000Y-104977500D02*
X116380000Y-116497500D01*
X116380000Y-116497500D02*
X113430000Y-116497500D01*
%TO.C,R4*%
X134977500Y-120982776D02*
X134977500Y-121492224D01*
X136022500Y-120982776D02*
X136022500Y-121492224D01*
%TO.C,C5*%
X126490000Y-119948752D02*
X126490000Y-118526248D01*
X128310000Y-119948752D02*
X128310000Y-118526248D01*
D10*
%TO.C,J4*%
X97750000Y-110300000D02*
X97750000Y-116300000D01*
X97750000Y-116300000D02*
X101400000Y-116300000D01*
X103050000Y-110300000D02*
X97750000Y-110300000D01*
X103050000Y-116300000D02*
X103050000Y-110300000D01*
D11*
%TO.C,Z1*%
X130637500Y-124145000D02*
X130637500Y-125745000D01*
D10*
X131362500Y-122545000D02*
X131362500Y-122545000D01*
X131362500Y-122645000D02*
X131362500Y-122645000D01*
D11*
X132087500Y-124145000D02*
X132087500Y-125745000D01*
D10*
X131362500Y-122545000D02*
G75*
G02*
X131362500Y-122645000I0J-50000D01*
G01*
X131362500Y-122645000D02*
G75*
G02*
X131362500Y-122545000I0J50000D01*
G01*
%TD*%
%LPC*%
D13*
%TO.C,D2*%
X126200000Y-111800000D03*
X121800000Y-111800000D03*
%TD*%
D14*
%TO.C,C8*%
X124862500Y-126550000D03*
X124862500Y-124825000D03*
%TD*%
D15*
%TO.C,J1*%
X133000000Y-112000000D03*
D16*
X134700000Y-113500000D03*
X134700000Y-115500000D03*
%TD*%
D17*
%TO.C,D1*%
X135500000Y-123850000D03*
X135500000Y-125600000D03*
%TD*%
D18*
%TO.C,Q1*%
X128537500Y-125100000D03*
X128537500Y-123200000D03*
X126662500Y-124150000D03*
%TD*%
D15*
%TO.C,J6*%
X102100000Y-128800000D03*
D16*
X100400000Y-127300000D03*
X100400000Y-125300000D03*
%TD*%
D14*
%TO.C,C1*%
X117170000Y-116400000D03*
X117170000Y-114675000D03*
%TD*%
D19*
%TO.C,H4*%
X131600000Y-106450001D03*
X132302944Y-104752945D03*
X132302944Y-108147057D03*
X134000000Y-104050001D03*
D20*
X134000000Y-106450001D03*
D19*
X134000000Y-108850001D03*
X135697056Y-104752945D03*
X135697056Y-108147057D03*
X136400000Y-106450001D03*
%TD*%
D15*
%TO.C,J5*%
X102100000Y-122300000D03*
D16*
X100400000Y-120800000D03*
X100400000Y-118800000D03*
%TD*%
D21*
%TO.C,C7*%
X126237500Y-129000000D03*
X129362500Y-129000000D03*
%TD*%
D22*
%TO.C,R5*%
X128712500Y-126650000D03*
X126887500Y-126650000D03*
%TD*%
D23*
%TO.C,C6*%
X129800000Y-119800000D03*
X129800000Y-117725000D03*
%TD*%
D24*
%TO.C,C3*%
X113312500Y-124150000D03*
X110187500Y-124150000D03*
%TD*%
%TO.C,C4*%
X113312500Y-121750000D03*
X110187500Y-121750000D03*
%TD*%
D25*
%TO.C,R1*%
X113175000Y-119000000D03*
X115000000Y-119000000D03*
%TD*%
%TO.C,R2*%
X115400000Y-123750000D03*
X117225000Y-123750000D03*
%TD*%
D19*
%TO.C,H1*%
X98500000Y-106450001D03*
X99202944Y-104752945D03*
X99202944Y-108147057D03*
X100900000Y-104050001D03*
D20*
X100900000Y-106450001D03*
D19*
X100900000Y-108850001D03*
X102597056Y-104752945D03*
X102597056Y-108147057D03*
X103300000Y-106450001D03*
%TD*%
D15*
%TO.C,J7*%
X102100000Y-135300000D03*
D16*
X100400000Y-133800000D03*
X100400000Y-131800000D03*
%TD*%
D26*
%TO.C,IC1*%
X118996000Y-116477500D03*
X118996000Y-117747500D03*
X118996000Y-119017500D03*
X118996000Y-120287500D03*
X124420000Y-120287500D03*
X124420000Y-119017500D03*
X124420000Y-117747500D03*
X124420000Y-116477500D03*
D27*
X121708000Y-118382500D03*
%TD*%
D28*
%TO.C,J2*%
X116150000Y-129850000D03*
X111150000Y-129850000D03*
D29*
X108150000Y-139850000D03*
X119150000Y-139850000D03*
%TD*%
D25*
%TO.C,R3*%
X115400000Y-122250000D03*
X117225000Y-122250000D03*
%TD*%
D30*
%TO.C,C2*%
X112787500Y-126750000D03*
X110712500Y-126750000D03*
%TD*%
D19*
%TO.C,H2*%
X98500000Y-139550001D03*
X99202944Y-137852945D03*
X99202944Y-141247057D03*
X100900000Y-137150001D03*
D20*
X100900000Y-139550001D03*
D19*
X100900000Y-141950001D03*
X102597056Y-137852945D03*
X102597056Y-141247057D03*
X103300000Y-139550001D03*
%TD*%
D31*
%TO.C,J3*%
X126500000Y-139300000D03*
X126500000Y-134300000D03*
%TD*%
D32*
%TO.C,L1*%
X111120000Y-105987500D03*
X111120000Y-115487500D03*
%TD*%
D33*
%TO.C,R4*%
X135500000Y-120325000D03*
X135500000Y-122150000D03*
%TD*%
D34*
%TO.C,C5*%
X127400000Y-120800000D03*
X127400000Y-117675000D03*
%TD*%
D15*
%TO.C,J4*%
X102100000Y-115800000D03*
D16*
X100400000Y-114300000D03*
X100400000Y-112300000D03*
%TD*%
D19*
%TO.C,H3*%
X131600000Y-139550001D03*
X132302944Y-137852945D03*
X132302944Y-141247057D03*
X134000000Y-137150001D03*
D20*
X134000000Y-139550001D03*
D19*
X134000000Y-141950001D03*
X135697056Y-137852945D03*
X135697056Y-141247057D03*
X136400000Y-139550001D03*
%TD*%
D35*
%TO.C,Z1*%
X131362500Y-123390000D03*
X131362500Y-126500000D03*
%TD*%
%LPD*%
M02*
