%TF.GenerationSoftware,KiCad,Pcbnew,8.0.2*%
%TF.CreationDate,2024-05-06T11:08:47+09:00*%
%TF.ProjectId,5V-3A-BEC,35562d33-412d-4424-9543-2e6b69636164,0.1*%
%TF.SameCoordinates,Original*%
%TF.FileFunction,Copper,L5,Inr*%
%TF.FilePolarity,Positive*%
%FSLAX46Y46*%
G04 Gerber Fmt 4.6, Leading zero omitted, Abs format (unit mm)*
G04 Created by KiCad (PCBNEW 8.0.2) date 2024-05-06 11:08:47*
%MOMM*%
%LPD*%
G01*
G04 APERTURE LIST*
%TA.AperFunction,ComponentPad*%
%ADD10C,1.300000*%
%TD*%
%TA.AperFunction,ComponentPad*%
%ADD11C,0.800000*%
%TD*%
%TA.AperFunction,ComponentPad*%
%ADD12C,6.400000*%
%TD*%
%TA.AperFunction,ComponentPad*%
%ADD13C,2.550000*%
%TD*%
%TA.AperFunction,ComponentPad*%
%ADD14C,1.500000*%
%TD*%
%TA.AperFunction,ComponentPad*%
%ADD15C,2.700000*%
%TD*%
%TA.AperFunction,ViaPad*%
%ADD16C,0.600000*%
%TD*%
G04 APERTURE END LIST*
D10*
%TO.N,Net-(IC1-ENA)*%
%TO.C,J1*%
X134700000Y-113500000D03*
%TO.N,GND*%
X134700000Y-115500000D03*
%TD*%
%TO.N,GND*%
%TO.C,J6*%
X100400000Y-127300000D03*
%TO.N,+5V*%
X100400000Y-125300000D03*
%TD*%
D11*
%TO.N,N/C*%
%TO.C,H4*%
X131600000Y-106450001D03*
X132302944Y-104752945D03*
X132302944Y-108147057D03*
X134000000Y-104050001D03*
D12*
X134000000Y-106450001D03*
D11*
X134000000Y-108850001D03*
X135697056Y-104752945D03*
X135697056Y-108147057D03*
X136400000Y-106450001D03*
%TD*%
D10*
%TO.N,GND*%
%TO.C,J5*%
X100400000Y-120800000D03*
%TO.N,+5V*%
X100400000Y-118800000D03*
%TD*%
D11*
%TO.N,N/C*%
%TO.C,H1*%
X98500000Y-106450001D03*
X99202944Y-104752945D03*
X99202944Y-108147057D03*
X100900000Y-104050001D03*
D12*
X100900000Y-106450001D03*
D11*
X100900000Y-108850001D03*
X102597056Y-104752945D03*
X102597056Y-108147057D03*
X103300000Y-106450001D03*
%TD*%
D10*
%TO.N,GND*%
%TO.C,J7*%
X100400000Y-133800000D03*
%TO.N,+5V*%
X100400000Y-131800000D03*
%TD*%
D13*
%TO.N,GND*%
%TO.C,J2*%
X116150000Y-129850000D03*
%TO.N,+BATT*%
X111150000Y-129850000D03*
D14*
%TO.N,GND*%
X108150000Y-139850000D03*
X119150000Y-139850000D03*
%TD*%
D11*
%TO.N,N/C*%
%TO.C,H2*%
X98500000Y-139550001D03*
X99202944Y-137852945D03*
X99202944Y-141247057D03*
X100900000Y-137150001D03*
D12*
X100900000Y-139550001D03*
D11*
X100900000Y-141950001D03*
X102597056Y-137852945D03*
X102597056Y-141247057D03*
X103300000Y-139550001D03*
%TD*%
D15*
%TO.N,GND*%
%TO.C,J3*%
X126500000Y-139300000D03*
%TO.N,+BATT*%
X126500000Y-134300000D03*
%TD*%
D10*
%TO.N,GND*%
%TO.C,J4*%
X100400000Y-114300000D03*
%TO.N,+5V*%
X100400000Y-112300000D03*
%TD*%
D11*
%TO.N,N/C*%
%TO.C,H3*%
X131600000Y-139550001D03*
X132302944Y-137852945D03*
X132302944Y-141247057D03*
X134000000Y-137150001D03*
D12*
X134000000Y-139550001D03*
D11*
X134000000Y-141950001D03*
X135697056Y-137852945D03*
X135697056Y-141247057D03*
X136400000Y-139550001D03*
%TD*%
D16*
%TO.N,GND*%
X114400000Y-125800000D03*
X115600000Y-125800000D03*
X115600000Y-126800000D03*
X114400000Y-126800000D03*
%TO.N,+5V*%
X135500000Y-126750000D03*
%TO.N,Net-(IC1-ENA)*%
X124400000Y-121350000D03*
%TD*%
%TA.AperFunction,Conductor*%
%TO.N,+BATT*%
G36*
X132060948Y-103514853D02*
G01*
X132075300Y-103549501D01*
X132060948Y-103584149D01*
X132055956Y-103588507D01*
X131760319Y-103813245D01*
X131760315Y-103813248D01*
X131760308Y-103813254D01*
X131488367Y-104070851D01*
X131488357Y-104070861D01*
X131245853Y-104356360D01*
X131035643Y-104666395D01*
X131035639Y-104666403D01*
X130860176Y-104997362D01*
X130860174Y-104997367D01*
X130721524Y-105345352D01*
X130721521Y-105345361D01*
X130621309Y-105706293D01*
X130560706Y-106075958D01*
X130560705Y-106075962D01*
X130540426Y-106449999D01*
X130540426Y-106450002D01*
X130560705Y-106824039D01*
X130560705Y-106824041D01*
X130560706Y-106824047D01*
X130609188Y-107119775D01*
X130621309Y-107193708D01*
X130721521Y-107554640D01*
X130721524Y-107554649D01*
X130860174Y-107902634D01*
X130860176Y-107902639D01*
X131035639Y-108233598D01*
X131035643Y-108233606D01*
X131245853Y-108543641D01*
X131488357Y-108829140D01*
X131488365Y-108829148D01*
X131760319Y-109086757D01*
X132058532Y-109313452D01*
X132058539Y-109313457D01*
X132240562Y-109422976D01*
X132379506Y-109506576D01*
X132506498Y-109565329D01*
X132719474Y-109663863D01*
X133074465Y-109783474D01*
X133074467Y-109783474D01*
X133366085Y-109847663D01*
X133440289Y-109863997D01*
X133440293Y-109863998D01*
X133440294Y-109863998D01*
X133440303Y-109864000D01*
X133812702Y-109904501D01*
X133812707Y-109904501D01*
X134187293Y-109904501D01*
X134187298Y-109904501D01*
X134559697Y-109864000D01*
X134925534Y-109783474D01*
X135280520Y-109663865D01*
X135280522Y-109663863D01*
X135280525Y-109663863D01*
X135366508Y-109624082D01*
X135620494Y-109506576D01*
X135941468Y-109313452D01*
X136239681Y-109086757D01*
X136511635Y-108829148D01*
X136754143Y-108543646D01*
X136859943Y-108387601D01*
X136891266Y-108366978D01*
X136927998Y-108374543D01*
X136948622Y-108405866D01*
X136949500Y-108415100D01*
X136949500Y-137584900D01*
X136935148Y-137619548D01*
X136900500Y-137633900D01*
X136865852Y-137619548D01*
X136859943Y-137612398D01*
X136754146Y-137456360D01*
X136511642Y-137170861D01*
X136511632Y-137170851D01*
X136239691Y-136913254D01*
X136239688Y-136913252D01*
X136239681Y-136913245D01*
X135941468Y-136686550D01*
X135941467Y-136686549D01*
X135941460Y-136686544D01*
X135620492Y-136493425D01*
X135280525Y-136336138D01*
X134925534Y-136216527D01*
X134925527Y-136216526D01*
X134559710Y-136136004D01*
X134559706Y-136136003D01*
X134559697Y-136136002D01*
X134187298Y-136095501D01*
X133812702Y-136095501D01*
X133502697Y-136129216D01*
X133440293Y-136136003D01*
X133440289Y-136136004D01*
X133074472Y-136216526D01*
X133074465Y-136216527D01*
X132719474Y-136336138D01*
X132379507Y-136493425D01*
X132058539Y-136686544D01*
X131904813Y-136803403D01*
X131760319Y-136913245D01*
X131760315Y-136913248D01*
X131760308Y-136913254D01*
X131488367Y-137170851D01*
X131488357Y-137170861D01*
X131245853Y-137456360D01*
X131035643Y-137766395D01*
X131035639Y-137766403D01*
X130860176Y-138097362D01*
X130860174Y-138097367D01*
X130721524Y-138445352D01*
X130721521Y-138445361D01*
X130621309Y-138806293D01*
X130603082Y-138917472D01*
X130567212Y-139136275D01*
X130560706Y-139175958D01*
X130560705Y-139175962D01*
X130540426Y-139549999D01*
X130540426Y-139550002D01*
X130560705Y-139924039D01*
X130560705Y-139924041D01*
X130560706Y-139924047D01*
X130609188Y-140219775D01*
X130621309Y-140293708D01*
X130721521Y-140654640D01*
X130721524Y-140654649D01*
X130860174Y-141002634D01*
X130860176Y-141002639D01*
X131035639Y-141333598D01*
X131035643Y-141333606D01*
X131245853Y-141643641D01*
X131488357Y-141929140D01*
X131488365Y-141929148D01*
X131760319Y-142186757D01*
X131970340Y-142346410D01*
X132055954Y-142411492D01*
X132074851Y-142443886D01*
X132065309Y-142480155D01*
X132032915Y-142499052D01*
X132026300Y-142499501D01*
X102873700Y-142499501D01*
X102839052Y-142485149D01*
X102824700Y-142450501D01*
X102839052Y-142415853D01*
X102844046Y-142411492D01*
X103139681Y-142186757D01*
X103411635Y-141929148D01*
X103654143Y-141643646D01*
X103864361Y-141333598D01*
X104039824Y-141002638D01*
X104178476Y-140654648D01*
X104278691Y-140293707D01*
X104339294Y-139924047D01*
X104343309Y-139849999D01*
X107140640Y-139849999D01*
X107140640Y-139850000D01*
X107160034Y-140046912D01*
X107160035Y-140046916D01*
X107217473Y-140236265D01*
X107248177Y-140293708D01*
X107310751Y-140410775D01*
X107436273Y-140563723D01*
X107436276Y-140563726D01*
X107589225Y-140689248D01*
X107589224Y-140689248D01*
X107589227Y-140689249D01*
X107589230Y-140689252D01*
X107763735Y-140782527D01*
X107953084Y-140839965D01*
X108150000Y-140859360D01*
X108346916Y-140839965D01*
X108536265Y-140782527D01*
X108710770Y-140689252D01*
X108863725Y-140563725D01*
X108989252Y-140410770D01*
X109082527Y-140236265D01*
X109139965Y-140046916D01*
X109159360Y-139850000D01*
X109159360Y-139849999D01*
X118140640Y-139849999D01*
X118140640Y-139850000D01*
X118160034Y-140046912D01*
X118160035Y-140046916D01*
X118217473Y-140236265D01*
X118248177Y-140293708D01*
X118310751Y-140410775D01*
X118436273Y-140563723D01*
X118436276Y-140563726D01*
X118589225Y-140689248D01*
X118589224Y-140689248D01*
X118589227Y-140689249D01*
X118589230Y-140689252D01*
X118763735Y-140782527D01*
X118953084Y-140839965D01*
X119150000Y-140859360D01*
X119346916Y-140839965D01*
X119536265Y-140782527D01*
X119710770Y-140689252D01*
X119863725Y-140563725D01*
X119989252Y-140410770D01*
X120082527Y-140236265D01*
X120139965Y-140046916D01*
X120159360Y-139850000D01*
X120139965Y-139653084D01*
X120082527Y-139463735D01*
X119995009Y-139300000D01*
X124890539Y-139300000D01*
X124910354Y-139551777D01*
X124969311Y-139797349D01*
X125065961Y-140030683D01*
X125065963Y-140030686D01*
X125197915Y-140246011D01*
X125197919Y-140246017D01*
X125361938Y-140438061D01*
X125509075Y-140563726D01*
X125553983Y-140602081D01*
X125553988Y-140602084D01*
X125769313Y-140734036D01*
X125769316Y-140734038D01*
X125769318Y-140734038D01*
X125769320Y-140734040D01*
X126002649Y-140830688D01*
X126248225Y-140889646D01*
X126500000Y-140909461D01*
X126751775Y-140889646D01*
X126997351Y-140830688D01*
X127230680Y-140734040D01*
X127446017Y-140602081D01*
X127638061Y-140438061D01*
X127802081Y-140246017D01*
X127934040Y-140030680D01*
X128030688Y-139797351D01*
X128089646Y-139551775D01*
X128109461Y-139300000D01*
X128089646Y-139048225D01*
X128030688Y-138802649D01*
X127934040Y-138569320D01*
X127802081Y-138353983D01*
X127778145Y-138325958D01*
X127638061Y-138161938D01*
X127446017Y-137997919D01*
X127446011Y-137997915D01*
X127230686Y-137865963D01*
X127230683Y-137865961D01*
X126997349Y-137769311D01*
X126751777Y-137710354D01*
X126500000Y-137690539D01*
X126248222Y-137710354D01*
X126002650Y-137769311D01*
X125769316Y-137865961D01*
X125769313Y-137865963D01*
X125553988Y-137997915D01*
X125553982Y-137997919D01*
X125361938Y-138161938D01*
X125197919Y-138353982D01*
X125197915Y-138353988D01*
X125065963Y-138569313D01*
X125065961Y-138569316D01*
X124969311Y-138802650D01*
X124910354Y-139048222D01*
X124890539Y-139300000D01*
X119995009Y-139300000D01*
X119989252Y-139289230D01*
X119989249Y-139289227D01*
X119989248Y-139289224D01*
X119863726Y-139136276D01*
X119863723Y-139136273D01*
X119710774Y-139010751D01*
X119710775Y-139010751D01*
X119710771Y-139010748D01*
X119710770Y-139010748D01*
X119536265Y-138917473D01*
X119441590Y-138888754D01*
X119346920Y-138860036D01*
X119346912Y-138860034D01*
X119150000Y-138840640D01*
X118953087Y-138860034D01*
X118953079Y-138860036D01*
X118763738Y-138917472D01*
X118763735Y-138917473D01*
X118763732Y-138917474D01*
X118763731Y-138917475D01*
X118589224Y-139010751D01*
X118436276Y-139136273D01*
X118436273Y-139136276D01*
X118310751Y-139289224D01*
X118217475Y-139463731D01*
X118217472Y-139463738D01*
X118160036Y-139653079D01*
X118160034Y-139653087D01*
X118140640Y-139849999D01*
X109159360Y-139849999D01*
X109139965Y-139653084D01*
X109082527Y-139463735D01*
X108989252Y-139289230D01*
X108989249Y-139289227D01*
X108989248Y-139289224D01*
X108863726Y-139136276D01*
X108863723Y-139136273D01*
X108710774Y-139010751D01*
X108710775Y-139010751D01*
X108710771Y-139010748D01*
X108710770Y-139010748D01*
X108536265Y-138917473D01*
X108441590Y-138888754D01*
X108346920Y-138860036D01*
X108346912Y-138860034D01*
X108150000Y-138840640D01*
X107953087Y-138860034D01*
X107953079Y-138860036D01*
X107763738Y-138917472D01*
X107763735Y-138917473D01*
X107763732Y-138917474D01*
X107763731Y-138917475D01*
X107589224Y-139010751D01*
X107436276Y-139136273D01*
X107436273Y-139136276D01*
X107310751Y-139289224D01*
X107217475Y-139463731D01*
X107217472Y-139463738D01*
X107160036Y-139653079D01*
X107160034Y-139653087D01*
X107140640Y-139849999D01*
X104343309Y-139849999D01*
X104359574Y-139550001D01*
X104339294Y-139175955D01*
X104278691Y-138806295D01*
X104178476Y-138445354D01*
X104039824Y-138097364D01*
X103864361Y-137766404D01*
X103864359Y-137766401D01*
X103864356Y-137766395D01*
X103654146Y-137456360D01*
X103411642Y-137170861D01*
X103411632Y-137170851D01*
X103139691Y-136913254D01*
X103139688Y-136913252D01*
X103139681Y-136913245D01*
X102841468Y-136686550D01*
X102841467Y-136686549D01*
X102841460Y-136686544D01*
X102520492Y-136493425D01*
X102180525Y-136336138D01*
X101825534Y-136216527D01*
X101825527Y-136216526D01*
X101459710Y-136136004D01*
X101459706Y-136136003D01*
X101459697Y-136136002D01*
X101087298Y-136095501D01*
X100712702Y-136095501D01*
X100402697Y-136129216D01*
X100340293Y-136136003D01*
X100340289Y-136136004D01*
X99974472Y-136216526D01*
X99974465Y-136216527D01*
X99619474Y-136336138D01*
X99279507Y-136493425D01*
X98958539Y-136686544D01*
X98804813Y-136803403D01*
X98660319Y-136913245D01*
X98660315Y-136913248D01*
X98660308Y-136913254D01*
X98388367Y-137170851D01*
X98388357Y-137170861D01*
X98145853Y-137456360D01*
X98040057Y-137612398D01*
X98008734Y-137633022D01*
X97972002Y-137625457D01*
X97951378Y-137594134D01*
X97950500Y-137584900D01*
X97950500Y-135216233D01*
X101249500Y-135216233D01*
X101249500Y-135383767D01*
X101271189Y-135492809D01*
X101282183Y-135548079D01*
X101282185Y-135548085D01*
X101346296Y-135702862D01*
X101439371Y-135842159D01*
X101557840Y-135960628D01*
X101697137Y-136053703D01*
X101851918Y-136117816D01*
X102016233Y-136150500D01*
X102016236Y-136150500D01*
X102183764Y-136150500D01*
X102183767Y-136150500D01*
X102348082Y-136117816D01*
X102502863Y-136053703D01*
X102642162Y-135960626D01*
X102760626Y-135842162D01*
X102853703Y-135702863D01*
X102917816Y-135548082D01*
X102950500Y-135383767D01*
X102950500Y-135216233D01*
X102917816Y-135051918D01*
X102853703Y-134897137D01*
X102786096Y-134795956D01*
X102760628Y-134757840D01*
X102642159Y-134639371D01*
X102502862Y-134546296D01*
X102348085Y-134482185D01*
X102348079Y-134482183D01*
X102281816Y-134469002D01*
X102183767Y-134449500D01*
X102016233Y-134449500D01*
X101934451Y-134465767D01*
X101851920Y-134482183D01*
X101851914Y-134482185D01*
X101697137Y-134546296D01*
X101557840Y-134639371D01*
X101439371Y-134757840D01*
X101346296Y-134897137D01*
X101282185Y-135051914D01*
X101282183Y-135051920D01*
X101273103Y-135097570D01*
X101249500Y-135216233D01*
X97950500Y-135216233D01*
X97950500Y-133800000D01*
X99490518Y-133800000D01*
X99510392Y-133989092D01*
X99569147Y-134169920D01*
X99664214Y-134334580D01*
X99791438Y-134475877D01*
X99945259Y-134587635D01*
X100118955Y-134664969D01*
X100304933Y-134704500D01*
X100495067Y-134704500D01*
X100681045Y-134664969D01*
X100854741Y-134587635D01*
X101008562Y-134475877D01*
X101135786Y-134334580D01*
X101155751Y-134300000D01*
X124895052Y-134300000D01*
X124914812Y-134551072D01*
X124973603Y-134795956D01*
X125068304Y-135024586D01*
X125068305Y-135024586D01*
X125617296Y-134475596D01*
X125634586Y-134562520D01*
X125702430Y-134726310D01*
X125800924Y-134873717D01*
X125926283Y-134999076D01*
X126073690Y-135097570D01*
X126237480Y-135165414D01*
X126324402Y-135182703D01*
X125775412Y-135731693D01*
X125775412Y-135731694D01*
X126004043Y-135826396D01*
X126248927Y-135885187D01*
X126500000Y-135904947D01*
X126751072Y-135885187D01*
X126995954Y-135826396D01*
X127224586Y-135731693D01*
X126675596Y-135182703D01*
X126762520Y-135165414D01*
X126926310Y-135097570D01*
X127073717Y-134999076D01*
X127199076Y-134873717D01*
X127297570Y-134726310D01*
X127365414Y-134562520D01*
X127382703Y-134475596D01*
X127931693Y-135024586D01*
X128026396Y-134795954D01*
X128085187Y-134551072D01*
X128104947Y-134300000D01*
X128085187Y-134048927D01*
X128026396Y-133804043D01*
X127931694Y-133575412D01*
X127931693Y-133575412D01*
X127382703Y-134124402D01*
X127365414Y-134037480D01*
X127297570Y-133873690D01*
X127199076Y-133726283D01*
X127073717Y-133600924D01*
X126926310Y-133502430D01*
X126762520Y-133434586D01*
X126675595Y-133417295D01*
X127224586Y-132868305D01*
X127224586Y-132868304D01*
X126995956Y-132773603D01*
X126751072Y-132714812D01*
X126500000Y-132695052D01*
X126248927Y-132714812D01*
X126004043Y-132773603D01*
X125775412Y-132868304D01*
X125775412Y-132868305D01*
X126324403Y-133417296D01*
X126237480Y-133434586D01*
X126073690Y-133502430D01*
X125926283Y-133600924D01*
X125800924Y-133726283D01*
X125702430Y-133873690D01*
X125634586Y-134037480D01*
X125617296Y-134124403D01*
X125068305Y-133575412D01*
X125068304Y-133575412D01*
X124973603Y-133804043D01*
X124914812Y-134048927D01*
X124895052Y-134300000D01*
X101155751Y-134300000D01*
X101230853Y-134169920D01*
X101289608Y-133989092D01*
X101309482Y-133800000D01*
X101289608Y-133610908D01*
X101230853Y-133430080D01*
X101135786Y-133265420D01*
X101008562Y-133124123D01*
X100854741Y-133012365D01*
X100681045Y-132935031D01*
X100681042Y-132935030D01*
X100681038Y-132935029D01*
X100495067Y-132895500D01*
X100304933Y-132895500D01*
X100118961Y-132935029D01*
X100118952Y-132935032D01*
X99945259Y-133012365D01*
X99791438Y-133124123D01*
X99791437Y-133124124D01*
X99791433Y-133124127D01*
X99664217Y-133265416D01*
X99664211Y-133265424D01*
X99569149Y-133430076D01*
X99569147Y-133430079D01*
X99516246Y-133592892D01*
X99510392Y-133610908D01*
X99490518Y-133800000D01*
X97950500Y-133800000D01*
X97950500Y-131800000D01*
X99490518Y-131800000D01*
X99510392Y-131989092D01*
X99569147Y-132169920D01*
X99664214Y-132334580D01*
X99791438Y-132475877D01*
X99945259Y-132587635D01*
X100118955Y-132664969D01*
X100304933Y-132704500D01*
X100495067Y-132704500D01*
X100681045Y-132664969D01*
X100854741Y-132587635D01*
X101008562Y-132475877D01*
X101135786Y-132334580D01*
X101230853Y-132169920D01*
X101289608Y-131989092D01*
X101309482Y-131800000D01*
X101289608Y-131610908D01*
X101230853Y-131430080D01*
X101135786Y-131265420D01*
X101008562Y-131124123D01*
X100854741Y-131012365D01*
X100681045Y-130935031D01*
X100681042Y-130935030D01*
X100681038Y-130935029D01*
X100495067Y-130895500D01*
X100304933Y-130895500D01*
X100118961Y-130935029D01*
X100118952Y-130935032D01*
X99945259Y-131012365D01*
X99791438Y-131124123D01*
X99791437Y-131124124D01*
X99791433Y-131124127D01*
X99664217Y-131265416D01*
X99664211Y-131265424D01*
X99569149Y-131430076D01*
X99569147Y-131430079D01*
X99569147Y-131430080D01*
X99510392Y-131610908D01*
X99490518Y-131800000D01*
X97950500Y-131800000D01*
X97950500Y-129850000D01*
X109620284Y-129850000D01*
X109639117Y-130089302D01*
X109695153Y-130322708D01*
X109775707Y-130517183D01*
X109775708Y-130517183D01*
X110309817Y-129983074D01*
X110332665Y-130097936D01*
X110396740Y-130252626D01*
X110489762Y-130391844D01*
X110608156Y-130510238D01*
X110747374Y-130603260D01*
X110902064Y-130667335D01*
X111016924Y-130690182D01*
X110482815Y-131224290D01*
X110677293Y-131304846D01*
X110910697Y-131360882D01*
X111150000Y-131379715D01*
X111389302Y-131360882D01*
X111622706Y-131304846D01*
X111817183Y-131224290D01*
X111283075Y-130690182D01*
X111397936Y-130667335D01*
X111552626Y-130603260D01*
X111691844Y-130510238D01*
X111810238Y-130391844D01*
X111903260Y-130252626D01*
X111967335Y-130097936D01*
X111990182Y-129983075D01*
X112524290Y-130517183D01*
X112604846Y-130322706D01*
X112660882Y-130089302D01*
X112679715Y-129850000D01*
X114615770Y-129850000D01*
X114634659Y-130090008D01*
X114690860Y-130324103D01*
X114782990Y-130546524D01*
X114782994Y-130546532D01*
X114908778Y-130751792D01*
X114908782Y-130751798D01*
X115065135Y-130934864D01*
X115221489Y-131068402D01*
X115248202Y-131091218D01*
X115248207Y-131091221D01*
X115301904Y-131124127D01*
X115453474Y-131217009D01*
X115564685Y-131263074D01*
X115675896Y-131309139D01*
X115784009Y-131335094D01*
X115909994Y-131365341D01*
X116150000Y-131384230D01*
X116390006Y-131365341D01*
X116624103Y-131309139D01*
X116846526Y-131217009D01*
X117051798Y-131091218D01*
X117234864Y-130934864D01*
X117391218Y-130751798D01*
X117517009Y-130546526D01*
X117609139Y-130324103D01*
X117665341Y-130090006D01*
X117684230Y-129850000D01*
X117665341Y-129609994D01*
X117609139Y-129375897D01*
X117595164Y-129342159D01*
X117517009Y-129153475D01*
X117517005Y-129153467D01*
X117391221Y-128948207D01*
X117391217Y-128948201D01*
X117234864Y-128765135D01*
X117051798Y-128608782D01*
X117051792Y-128608778D01*
X116846532Y-128482994D01*
X116846524Y-128482990D01*
X116624103Y-128390860D01*
X116390008Y-128334659D01*
X116150000Y-128315770D01*
X115909991Y-128334659D01*
X115675896Y-128390860D01*
X115453475Y-128482990D01*
X115453467Y-128482994D01*
X115248207Y-128608778D01*
X115248201Y-128608782D01*
X115065135Y-128765135D01*
X114908782Y-128948201D01*
X114908778Y-128948207D01*
X114782994Y-129153467D01*
X114782990Y-129153475D01*
X114690860Y-129375896D01*
X114634659Y-129609991D01*
X114615770Y-129850000D01*
X112679715Y-129850000D01*
X112660882Y-129610697D01*
X112604846Y-129377293D01*
X112524290Y-129182815D01*
X111990182Y-129716923D01*
X111967335Y-129602064D01*
X111903260Y-129447374D01*
X111810238Y-129308156D01*
X111691844Y-129189762D01*
X111552626Y-129096740D01*
X111397936Y-129032665D01*
X111283073Y-129009817D01*
X111817183Y-128475708D01*
X111817183Y-128475707D01*
X111622708Y-128395153D01*
X111389302Y-128339117D01*
X111150000Y-128320284D01*
X110910697Y-128339117D01*
X110677291Y-128395153D01*
X110482815Y-128475707D01*
X110482815Y-128475708D01*
X111016924Y-129009817D01*
X110902064Y-129032665D01*
X110747374Y-129096740D01*
X110608156Y-129189762D01*
X110489762Y-129308156D01*
X110396740Y-129447374D01*
X110332665Y-129602064D01*
X110309817Y-129716924D01*
X109775708Y-129182815D01*
X109775707Y-129182815D01*
X109695153Y-129377291D01*
X109639117Y-129610697D01*
X109620284Y-129850000D01*
X97950500Y-129850000D01*
X97950500Y-128716233D01*
X101249500Y-128716233D01*
X101249500Y-128883767D01*
X101262317Y-128948201D01*
X101282183Y-129048079D01*
X101282185Y-129048085D01*
X101346296Y-129202862D01*
X101439371Y-129342159D01*
X101557840Y-129460628D01*
X101697137Y-129553703D01*
X101851918Y-129617816D01*
X102016233Y-129650500D01*
X102016236Y-129650500D01*
X102183764Y-129650500D01*
X102183767Y-129650500D01*
X102348082Y-129617816D01*
X102502863Y-129553703D01*
X102642162Y-129460626D01*
X102760626Y-129342162D01*
X102853703Y-129202863D01*
X102917816Y-129048082D01*
X102950500Y-128883767D01*
X102950500Y-128716233D01*
X102917816Y-128551918D01*
X102853703Y-128397137D01*
X102852377Y-128395153D01*
X102760628Y-128257840D01*
X102642159Y-128139371D01*
X102502862Y-128046296D01*
X102348085Y-127982185D01*
X102348079Y-127982183D01*
X102281816Y-127969002D01*
X102183767Y-127949500D01*
X102016233Y-127949500D01*
X101934451Y-127965767D01*
X101851920Y-127982183D01*
X101851914Y-127982185D01*
X101697137Y-128046296D01*
X101557840Y-128139371D01*
X101439371Y-128257840D01*
X101346296Y-128397137D01*
X101282185Y-128551914D01*
X101282183Y-128551920D01*
X101270874Y-128608778D01*
X101249500Y-128716233D01*
X97950500Y-128716233D01*
X97950500Y-127300000D01*
X99490518Y-127300000D01*
X99510392Y-127489092D01*
X99569147Y-127669920D01*
X99664214Y-127834580D01*
X99791438Y-127975877D01*
X99945259Y-128087635D01*
X100118955Y-128164969D01*
X100304933Y-128204500D01*
X100495067Y-128204500D01*
X100681045Y-128164969D01*
X100854741Y-128087635D01*
X101008562Y-127975877D01*
X101135786Y-127834580D01*
X101230853Y-127669920D01*
X101289608Y-127489092D01*
X101309482Y-127300000D01*
X101289608Y-127110908D01*
X101230853Y-126930080D01*
X101135786Y-126765420D01*
X101008562Y-126624123D01*
X100854741Y-126512365D01*
X100681045Y-126435031D01*
X100681042Y-126435030D01*
X100681038Y-126435029D01*
X100495067Y-126395500D01*
X100304933Y-126395500D01*
X100118961Y-126435029D01*
X100118952Y-126435032D01*
X99945259Y-126512365D01*
X99791438Y-126624123D01*
X99791437Y-126624124D01*
X99791433Y-126624127D01*
X99664217Y-126765416D01*
X99664211Y-126765424D01*
X99569149Y-126930076D01*
X99569147Y-126930079D01*
X99520551Y-127079643D01*
X99510392Y-127110908D01*
X99490518Y-127300000D01*
X97950500Y-127300000D01*
X97950500Y-125300000D01*
X99490518Y-125300000D01*
X99510392Y-125489092D01*
X99569147Y-125669920D01*
X99569149Y-125669923D01*
X99659993Y-125827270D01*
X99664214Y-125834580D01*
X99664217Y-125834583D01*
X99763414Y-125944754D01*
X99791438Y-125975877D01*
X99945259Y-126087635D01*
X100118955Y-126164969D01*
X100304933Y-126204500D01*
X100495067Y-126204500D01*
X100681045Y-126164969D01*
X100854741Y-126087635D01*
X101008562Y-125975877D01*
X101135786Y-125834580D01*
X101155751Y-125800000D01*
X113840715Y-125800000D01*
X113859771Y-125944753D01*
X113915642Y-126079638D01*
X113915645Y-126079643D01*
X113921777Y-126087635D01*
X114004526Y-126195474D01*
X114090085Y-126261126D01*
X114108836Y-126293605D01*
X114099129Y-126329830D01*
X114090085Y-126338874D01*
X114004524Y-126404527D01*
X113915645Y-126520357D01*
X113915644Y-126520359D01*
X113859771Y-126655247D01*
X113840715Y-126800000D01*
X113859771Y-126944753D01*
X113915642Y-127079638D01*
X113915645Y-127079643D01*
X113966158Y-127145473D01*
X114004526Y-127195474D01*
X114120357Y-127284355D01*
X114120359Y-127284355D01*
X114120361Y-127284357D01*
X114180543Y-127309285D01*
X114255246Y-127340228D01*
X114400000Y-127359285D01*
X114544754Y-127340228D01*
X114679643Y-127284355D01*
X114795474Y-127195474D01*
X114884355Y-127079643D01*
X114940228Y-126944754D01*
X114951419Y-126859747D01*
X114970171Y-126827270D01*
X115006396Y-126817563D01*
X115038874Y-126836315D01*
X115048581Y-126859748D01*
X115059771Y-126944753D01*
X115115642Y-127079638D01*
X115115645Y-127079643D01*
X115166158Y-127145473D01*
X115204526Y-127195474D01*
X115320357Y-127284355D01*
X115320359Y-127284355D01*
X115320361Y-127284357D01*
X115380543Y-127309285D01*
X115455246Y-127340228D01*
X115600000Y-127359285D01*
X115744754Y-127340228D01*
X115879643Y-127284355D01*
X115995474Y-127195474D01*
X116084355Y-127079643D01*
X116140228Y-126944754D01*
X116159285Y-126800000D01*
X116152702Y-126750000D01*
X134940715Y-126750000D01*
X134959771Y-126894753D01*
X135015642Y-127029638D01*
X135015645Y-127029643D01*
X135078001Y-127110907D01*
X135104526Y-127145474D01*
X135220357Y-127234355D01*
X135220359Y-127234355D01*
X135220361Y-127234357D01*
X135341065Y-127284354D01*
X135355246Y-127290228D01*
X135500000Y-127309285D01*
X135644754Y-127290228D01*
X135779643Y-127234355D01*
X135895474Y-127145474D01*
X135984355Y-127029643D01*
X136040228Y-126894754D01*
X136059285Y-126750000D01*
X136040228Y-126605246D01*
X135984355Y-126470358D01*
X135895474Y-126354526D01*
X135779643Y-126265645D01*
X135779641Y-126265644D01*
X135779638Y-126265642D01*
X135644753Y-126209771D01*
X135500000Y-126190715D01*
X135355247Y-126209771D01*
X135220359Y-126265644D01*
X135220357Y-126265645D01*
X135104526Y-126354525D01*
X135104525Y-126354526D01*
X135015645Y-126470357D01*
X135015644Y-126470359D01*
X134959771Y-126605247D01*
X134940715Y-126750000D01*
X116152702Y-126750000D01*
X116140228Y-126655246D01*
X116084355Y-126520358D01*
X115995474Y-126404526D01*
X115909914Y-126338873D01*
X115891163Y-126306396D01*
X115900870Y-126270171D01*
X115909915Y-126261126D01*
X115995474Y-126195474D01*
X116084355Y-126079643D01*
X116140228Y-125944754D01*
X116159285Y-125800000D01*
X116140228Y-125655246D01*
X116084355Y-125520358D01*
X115995474Y-125404526D01*
X115879643Y-125315645D01*
X115879641Y-125315644D01*
X115879638Y-125315642D01*
X115744753Y-125259771D01*
X115600000Y-125240715D01*
X115455247Y-125259771D01*
X115320359Y-125315644D01*
X115320357Y-125315645D01*
X115204526Y-125404525D01*
X115204525Y-125404526D01*
X115115645Y-125520357D01*
X115115644Y-125520359D01*
X115059771Y-125655247D01*
X115048581Y-125740251D01*
X115029829Y-125772729D01*
X114993604Y-125782436D01*
X114961126Y-125763684D01*
X114951419Y-125740251D01*
X114940228Y-125655247D01*
X114884355Y-125520359D01*
X114884354Y-125520357D01*
X114795474Y-125404526D01*
X114795473Y-125404525D01*
X114679643Y-125315645D01*
X114679638Y-125315642D01*
X114544753Y-125259771D01*
X114400000Y-125240715D01*
X114255247Y-125259771D01*
X114120359Y-125315644D01*
X114120357Y-125315645D01*
X114004526Y-125404525D01*
X114004525Y-125404526D01*
X113915645Y-125520357D01*
X113915644Y-125520359D01*
X113859771Y-125655247D01*
X113840715Y-125800000D01*
X101155751Y-125800000D01*
X101230853Y-125669920D01*
X101289608Y-125489092D01*
X101309482Y-125300000D01*
X101289608Y-125110908D01*
X101230853Y-124930080D01*
X101135786Y-124765420D01*
X101008562Y-124624123D01*
X100854741Y-124512365D01*
X100681045Y-124435031D01*
X100681042Y-124435030D01*
X100681038Y-124435029D01*
X100495067Y-124395500D01*
X100304933Y-124395500D01*
X100118961Y-124435029D01*
X100118952Y-124435032D01*
X99945259Y-124512365D01*
X99791438Y-124624123D01*
X99791437Y-124624124D01*
X99791433Y-124624127D01*
X99664217Y-124765416D01*
X99664211Y-124765424D01*
X99569149Y-124930076D01*
X99569147Y-124930079D01*
X99510392Y-125110907D01*
X99490518Y-125300000D01*
X97950500Y-125300000D01*
X97950500Y-122216233D01*
X101249500Y-122216233D01*
X101249500Y-122383767D01*
X101271189Y-122492809D01*
X101282183Y-122548079D01*
X101282185Y-122548085D01*
X101346296Y-122702862D01*
X101439371Y-122842159D01*
X101557840Y-122960628D01*
X101697137Y-123053703D01*
X101851918Y-123117816D01*
X102016233Y-123150500D01*
X102016236Y-123150500D01*
X102183764Y-123150500D01*
X102183767Y-123150500D01*
X102348082Y-123117816D01*
X102502863Y-123053703D01*
X102642162Y-122960626D01*
X102760626Y-122842162D01*
X102853703Y-122702863D01*
X102917816Y-122548082D01*
X102950500Y-122383767D01*
X102950500Y-122216233D01*
X102917816Y-122051918D01*
X102853703Y-121897137D01*
X102811755Y-121834357D01*
X102760628Y-121757840D01*
X102642159Y-121639371D01*
X102502862Y-121546296D01*
X102348085Y-121482185D01*
X102348079Y-121482183D01*
X102281816Y-121469002D01*
X102183767Y-121449500D01*
X102016233Y-121449500D01*
X101934451Y-121465767D01*
X101851920Y-121482183D01*
X101851914Y-121482185D01*
X101697137Y-121546296D01*
X101557840Y-121639371D01*
X101439371Y-121757840D01*
X101346296Y-121897137D01*
X101282185Y-122051914D01*
X101282183Y-122051920D01*
X101265767Y-122134451D01*
X101249500Y-122216233D01*
X97950500Y-122216233D01*
X97950500Y-120800000D01*
X99490518Y-120800000D01*
X99510392Y-120989092D01*
X99569147Y-121169920D01*
X99664214Y-121334580D01*
X99791438Y-121475877D01*
X99945259Y-121587635D01*
X100118955Y-121664969D01*
X100304933Y-121704500D01*
X100495067Y-121704500D01*
X100681045Y-121664969D01*
X100854741Y-121587635D01*
X101008562Y-121475877D01*
X101121902Y-121350000D01*
X123840715Y-121350000D01*
X123859771Y-121494753D01*
X123915642Y-121629638D01*
X123915645Y-121629643D01*
X124004526Y-121745474D01*
X124120357Y-121834355D01*
X124120359Y-121834355D01*
X124120361Y-121834357D01*
X124255246Y-121890228D01*
X124400000Y-121909285D01*
X124544754Y-121890228D01*
X124679643Y-121834355D01*
X124795474Y-121745474D01*
X124884355Y-121629643D01*
X124940228Y-121494754D01*
X124959285Y-121350000D01*
X124940228Y-121205246D01*
X124884355Y-121070358D01*
X124795474Y-120954526D01*
X124679643Y-120865645D01*
X124679641Y-120865644D01*
X124679638Y-120865642D01*
X124544753Y-120809771D01*
X124400000Y-120790715D01*
X124255247Y-120809771D01*
X124120359Y-120865644D01*
X124120357Y-120865645D01*
X124004526Y-120954525D01*
X124004525Y-120954526D01*
X123915645Y-121070357D01*
X123915644Y-121070359D01*
X123859771Y-121205247D01*
X123840715Y-121350000D01*
X101121902Y-121350000D01*
X101135786Y-121334580D01*
X101230853Y-121169920D01*
X101289608Y-120989092D01*
X101309482Y-120800000D01*
X101289608Y-120610908D01*
X101230853Y-120430080D01*
X101135786Y-120265420D01*
X101008562Y-120124123D01*
X100854741Y-120012365D01*
X100681045Y-119935031D01*
X100681042Y-119935030D01*
X100681038Y-119935029D01*
X100495067Y-119895500D01*
X100304933Y-119895500D01*
X100118961Y-119935029D01*
X100118952Y-119935032D01*
X99945259Y-120012365D01*
X99791438Y-120124123D01*
X99791437Y-120124124D01*
X99791433Y-120124127D01*
X99664217Y-120265416D01*
X99664211Y-120265424D01*
X99569149Y-120430076D01*
X99569147Y-120430079D01*
X99569147Y-120430080D01*
X99510392Y-120610908D01*
X99490518Y-120800000D01*
X97950500Y-120800000D01*
X97950500Y-118800000D01*
X99490518Y-118800000D01*
X99510392Y-118989092D01*
X99569147Y-119169920D01*
X99664214Y-119334580D01*
X99791438Y-119475877D01*
X99945259Y-119587635D01*
X100118955Y-119664969D01*
X100304933Y-119704500D01*
X100495067Y-119704500D01*
X100681045Y-119664969D01*
X100854741Y-119587635D01*
X101008562Y-119475877D01*
X101135786Y-119334580D01*
X101230853Y-119169920D01*
X101289608Y-118989092D01*
X101309482Y-118800000D01*
X101289608Y-118610908D01*
X101230853Y-118430080D01*
X101135786Y-118265420D01*
X101008562Y-118124123D01*
X100854741Y-118012365D01*
X100681045Y-117935031D01*
X100681042Y-117935030D01*
X100681038Y-117935029D01*
X100495067Y-117895500D01*
X100304933Y-117895500D01*
X100118961Y-117935029D01*
X100118952Y-117935032D01*
X99945259Y-118012365D01*
X99791438Y-118124123D01*
X99791437Y-118124124D01*
X99791433Y-118124127D01*
X99664217Y-118265416D01*
X99664211Y-118265424D01*
X99569149Y-118430076D01*
X99569147Y-118430079D01*
X99569147Y-118430080D01*
X99510392Y-118610908D01*
X99490518Y-118800000D01*
X97950500Y-118800000D01*
X97950500Y-115716233D01*
X101249500Y-115716233D01*
X101249500Y-115883767D01*
X101271189Y-115992809D01*
X101282183Y-116048079D01*
X101282185Y-116048085D01*
X101346296Y-116202862D01*
X101439371Y-116342159D01*
X101557840Y-116460628D01*
X101697137Y-116553703D01*
X101851918Y-116617816D01*
X102016233Y-116650500D01*
X102016236Y-116650500D01*
X102183764Y-116650500D01*
X102183767Y-116650500D01*
X102348082Y-116617816D01*
X102502863Y-116553703D01*
X102642162Y-116460626D01*
X102760626Y-116342162D01*
X102853703Y-116202863D01*
X102917816Y-116048082D01*
X102950500Y-115883767D01*
X102950500Y-115716233D01*
X102917816Y-115551918D01*
X102896311Y-115500000D01*
X133790518Y-115500000D01*
X133810392Y-115689092D01*
X133869147Y-115869920D01*
X133964214Y-116034580D01*
X134091438Y-116175877D01*
X134245259Y-116287635D01*
X134418955Y-116364969D01*
X134604933Y-116404500D01*
X134795067Y-116404500D01*
X134981045Y-116364969D01*
X135154741Y-116287635D01*
X135308562Y-116175877D01*
X135435786Y-116034580D01*
X135530853Y-115869920D01*
X135589608Y-115689092D01*
X135609482Y-115500000D01*
X135589608Y-115310908D01*
X135530853Y-115130080D01*
X135435786Y-114965420D01*
X135372174Y-114894771D01*
X135308566Y-114824127D01*
X135308564Y-114824126D01*
X135308562Y-114824123D01*
X135154741Y-114712365D01*
X134981045Y-114635031D01*
X134981042Y-114635030D01*
X134981038Y-114635029D01*
X134795067Y-114595500D01*
X134604933Y-114595500D01*
X134418961Y-114635029D01*
X134418952Y-114635032D01*
X134245259Y-114712365D01*
X134091438Y-114824123D01*
X134091437Y-114824124D01*
X134091433Y-114824127D01*
X133964217Y-114965416D01*
X133964211Y-114965424D01*
X133869149Y-115130076D01*
X133869147Y-115130079D01*
X133827636Y-115257838D01*
X133810392Y-115310908D01*
X133790518Y-115500000D01*
X102896311Y-115500000D01*
X102853703Y-115397137D01*
X102760628Y-115257840D01*
X102642159Y-115139371D01*
X102502862Y-115046296D01*
X102348085Y-114982185D01*
X102348079Y-114982183D01*
X102263823Y-114965424D01*
X102183767Y-114949500D01*
X102016233Y-114949500D01*
X101936217Y-114965416D01*
X101851920Y-114982183D01*
X101851914Y-114982185D01*
X101697137Y-115046296D01*
X101557840Y-115139371D01*
X101439371Y-115257840D01*
X101346296Y-115397137D01*
X101282185Y-115551914D01*
X101282183Y-115551920D01*
X101265767Y-115634451D01*
X101249500Y-115716233D01*
X97950500Y-115716233D01*
X97950500Y-114300000D01*
X99490518Y-114300000D01*
X99510392Y-114489092D01*
X99569147Y-114669920D01*
X99664214Y-114834580D01*
X99664217Y-114834583D01*
X99782022Y-114965420D01*
X99791438Y-114975877D01*
X99945259Y-115087635D01*
X100118955Y-115164969D01*
X100304933Y-115204500D01*
X100495067Y-115204500D01*
X100681045Y-115164969D01*
X100854741Y-115087635D01*
X101008562Y-114975877D01*
X101135786Y-114834580D01*
X101230853Y-114669920D01*
X101289608Y-114489092D01*
X101309482Y-114300000D01*
X101289608Y-114110908D01*
X101230853Y-113930080D01*
X101135786Y-113765420D01*
X101008562Y-113624123D01*
X100854741Y-113512365D01*
X100826969Y-113500000D01*
X133790518Y-113500000D01*
X133810392Y-113689092D01*
X133869147Y-113869920D01*
X133964214Y-114034580D01*
X134091438Y-114175877D01*
X134245259Y-114287635D01*
X134418955Y-114364969D01*
X134604933Y-114404500D01*
X134795067Y-114404500D01*
X134981045Y-114364969D01*
X135154741Y-114287635D01*
X135308562Y-114175877D01*
X135435786Y-114034580D01*
X135530853Y-113869920D01*
X135589608Y-113689092D01*
X135609482Y-113500000D01*
X135589608Y-113310908D01*
X135530853Y-113130080D01*
X135435786Y-112965420D01*
X135332312Y-112850500D01*
X135308566Y-112824127D01*
X135308564Y-112824126D01*
X135308562Y-112824123D01*
X135154741Y-112712365D01*
X134981045Y-112635031D01*
X134981042Y-112635030D01*
X134981038Y-112635029D01*
X134795067Y-112595500D01*
X134604933Y-112595500D01*
X134418961Y-112635029D01*
X134418952Y-112635032D01*
X134245259Y-112712365D01*
X134091438Y-112824123D01*
X134091437Y-112824124D01*
X134091433Y-112824127D01*
X133964217Y-112965416D01*
X133964211Y-112965424D01*
X133869149Y-113130076D01*
X133869147Y-113130079D01*
X133857811Y-113164969D01*
X133810392Y-113310908D01*
X133790518Y-113500000D01*
X100826969Y-113500000D01*
X100681045Y-113435031D01*
X100681042Y-113435030D01*
X100681038Y-113435029D01*
X100495067Y-113395500D01*
X100304933Y-113395500D01*
X100118961Y-113435029D01*
X100118952Y-113435032D01*
X99973031Y-113500000D01*
X99945259Y-113512365D01*
X99791438Y-113624123D01*
X99791437Y-113624124D01*
X99791433Y-113624127D01*
X99664217Y-113765416D01*
X99664211Y-113765424D01*
X99569149Y-113930076D01*
X99569147Y-113930079D01*
X99535192Y-114034583D01*
X99510392Y-114110908D01*
X99490518Y-114300000D01*
X97950500Y-114300000D01*
X97950500Y-112300000D01*
X99490518Y-112300000D01*
X99510392Y-112489092D01*
X99569147Y-112669920D01*
X99664214Y-112834580D01*
X99711923Y-112887566D01*
X99782022Y-112965420D01*
X99791438Y-112975877D01*
X99945259Y-113087635D01*
X100118955Y-113164969D01*
X100304933Y-113204500D01*
X100495067Y-113204500D01*
X100681045Y-113164969D01*
X100854741Y-113087635D01*
X101008562Y-112975877D01*
X101135786Y-112834580D01*
X101230853Y-112669920D01*
X101289608Y-112489092D01*
X101309482Y-112300000D01*
X101289608Y-112110908D01*
X101230853Y-111930080D01*
X101222858Y-111916233D01*
X132149500Y-111916233D01*
X132149500Y-112083767D01*
X132154899Y-112110908D01*
X132182183Y-112248079D01*
X132182185Y-112248085D01*
X132246296Y-112402862D01*
X132339371Y-112542159D01*
X132457840Y-112660628D01*
X132597137Y-112753703D01*
X132751918Y-112817816D01*
X132916233Y-112850500D01*
X132916236Y-112850500D01*
X133083764Y-112850500D01*
X133083767Y-112850500D01*
X133248082Y-112817816D01*
X133402863Y-112753703D01*
X133542162Y-112660626D01*
X133660626Y-112542162D01*
X133753703Y-112402863D01*
X133817816Y-112248082D01*
X133850500Y-112083767D01*
X133850500Y-111916233D01*
X133817816Y-111751918D01*
X133753703Y-111597137D01*
X133697060Y-111512365D01*
X133660628Y-111457840D01*
X133542159Y-111339371D01*
X133402862Y-111246296D01*
X133248085Y-111182185D01*
X133248079Y-111182183D01*
X133181816Y-111169002D01*
X133083767Y-111149500D01*
X132916233Y-111149500D01*
X132834451Y-111165767D01*
X132751920Y-111182183D01*
X132751914Y-111182185D01*
X132597137Y-111246296D01*
X132457840Y-111339371D01*
X132339371Y-111457840D01*
X132246296Y-111597137D01*
X132182185Y-111751914D01*
X132182183Y-111751920D01*
X132165767Y-111834451D01*
X132149500Y-111916233D01*
X101222858Y-111916233D01*
X101135786Y-111765420D01*
X101008562Y-111624123D01*
X100854741Y-111512365D01*
X100681045Y-111435031D01*
X100681042Y-111435030D01*
X100681038Y-111435029D01*
X100495067Y-111395500D01*
X100304933Y-111395500D01*
X100118961Y-111435029D01*
X100118952Y-111435032D01*
X99945259Y-111512365D01*
X99791438Y-111624123D01*
X99791437Y-111624124D01*
X99791433Y-111624127D01*
X99664217Y-111765416D01*
X99664211Y-111765424D01*
X99569149Y-111930076D01*
X99569147Y-111930079D01*
X99519211Y-112083767D01*
X99510392Y-112110908D01*
X99490518Y-112300000D01*
X97950500Y-112300000D01*
X97950500Y-108415100D01*
X97964852Y-108380452D01*
X97999500Y-108366100D01*
X98034148Y-108380452D01*
X98040057Y-108387602D01*
X98145853Y-108543641D01*
X98388357Y-108829140D01*
X98388365Y-108829148D01*
X98660319Y-109086757D01*
X98958532Y-109313452D01*
X98958539Y-109313457D01*
X99140562Y-109422976D01*
X99279506Y-109506576D01*
X99406498Y-109565329D01*
X99619474Y-109663863D01*
X99974465Y-109783474D01*
X99974467Y-109783474D01*
X100266085Y-109847663D01*
X100340289Y-109863997D01*
X100340293Y-109863998D01*
X100340294Y-109863998D01*
X100340303Y-109864000D01*
X100712702Y-109904501D01*
X100712707Y-109904501D01*
X101087293Y-109904501D01*
X101087298Y-109904501D01*
X101459697Y-109864000D01*
X101825534Y-109783474D01*
X102180520Y-109663865D01*
X102180522Y-109663863D01*
X102180525Y-109663863D01*
X102266508Y-109624082D01*
X102520494Y-109506576D01*
X102841468Y-109313452D01*
X103139681Y-109086757D01*
X103411635Y-108829148D01*
X103654143Y-108543646D01*
X103774522Y-108366100D01*
X103864356Y-108233606D01*
X103864357Y-108233603D01*
X103864361Y-108233598D01*
X104039824Y-107902638D01*
X104178476Y-107554648D01*
X104278691Y-107193707D01*
X104339294Y-106824047D01*
X104359574Y-106450001D01*
X104339294Y-106075955D01*
X104278691Y-105706295D01*
X104178476Y-105345354D01*
X104039824Y-104997364D01*
X103864361Y-104666404D01*
X103864359Y-104666401D01*
X103864356Y-104666395D01*
X103654146Y-104356360D01*
X103411642Y-104070861D01*
X103411632Y-104070851D01*
X103139691Y-103813254D01*
X103139688Y-103813252D01*
X103139681Y-103813245D01*
X102844045Y-103588509D01*
X102825149Y-103556116D01*
X102834691Y-103519847D01*
X102867085Y-103500950D01*
X102873700Y-103500501D01*
X132026300Y-103500501D01*
X132060948Y-103514853D01*
G37*
%TD.AperFunction*%
%TD*%
M02*
