%TF.GenerationSoftware,KiCad,Pcbnew,8.0.2*%
%TF.CreationDate,2024-05-06T11:08:47+09:00*%
%TF.ProjectId,5V-3A-BEC,35562d33-412d-4424-9543-2e6b69636164,0.1*%
%TF.SameCoordinates,Original*%
%TF.FileFunction,Legend,Bot*%
%TF.FilePolarity,Positive*%
%FSLAX46Y46*%
G04 Gerber Fmt 4.6, Leading zero omitted, Abs format (unit mm)*
G04 Created by KiCad (PCBNEW 8.0.2) date 2024-05-06 11:08:47*
%MOMM*%
%LPD*%
G01*
G04 APERTURE LIST*
%ADD10C,0.100000*%
%ADD11C,1.200000*%
%ADD12C,1.300000*%
%ADD13C,0.800000*%
%ADD14C,6.400000*%
%ADD15C,2.550000*%
%ADD16C,1.500000*%
%ADD17C,2.700000*%
G04 APERTURE END LIST*
D10*
G36*
X123536775Y-134489252D02*
G01*
X123334656Y-134491944D01*
X123284908Y-134469547D01*
X123260272Y-134447586D01*
X123233110Y-134398366D01*
X123230666Y-134321855D01*
X123252417Y-134273543D01*
X123273480Y-134249914D01*
X123349675Y-134221901D01*
X123349999Y-134221966D01*
X123535345Y-134219171D01*
X123536775Y-134489252D01*
G37*
G36*
X123534835Y-134122697D02*
G01*
X123367849Y-134125214D01*
X123318239Y-134102879D01*
X123293606Y-134080921D01*
X123266349Y-134031529D01*
X123264402Y-133987627D01*
X123285751Y-133940210D01*
X123307712Y-133915572D01*
X123356713Y-133888531D01*
X123533581Y-133885865D01*
X123534835Y-134122697D01*
G37*
G36*
X122849967Y-134289353D02*
G01*
X122650277Y-134291509D01*
X122748809Y-133990886D01*
X122849967Y-134289353D01*
G37*
G36*
X124573971Y-134666411D02*
G01*
X121326027Y-134666411D01*
X121326027Y-133819499D01*
X121403805Y-133819499D01*
X121403805Y-133857767D01*
X121430865Y-133884827D01*
X121449999Y-133888633D01*
X121600256Y-133887268D01*
X121603805Y-134557767D01*
X121630865Y-134584827D01*
X121669133Y-134584827D01*
X121696193Y-134557767D01*
X121699999Y-134538633D01*
X121696547Y-133886394D01*
X121869133Y-133884827D01*
X121896193Y-133857767D01*
X121896193Y-133819499D01*
X121937138Y-133819499D01*
X121937138Y-133857767D01*
X121964198Y-133884827D01*
X121983332Y-133888633D01*
X122133589Y-133887268D01*
X122137138Y-134557767D01*
X122164198Y-134584827D01*
X122202466Y-134584827D01*
X122229526Y-134557767D01*
X122232627Y-134542177D01*
X122466791Y-134542177D01*
X122483905Y-134576406D01*
X122520209Y-134588507D01*
X122554438Y-134571393D01*
X122564099Y-134554444D01*
X122618569Y-134388252D01*
X122882521Y-134385402D01*
X122945559Y-134571393D01*
X122979788Y-134588507D01*
X123016092Y-134576406D01*
X123033206Y-134542178D01*
X123030766Y-134522822D01*
X122962859Y-134322463D01*
X122962859Y-134319499D01*
X122961338Y-134317978D01*
X122957041Y-134305300D01*
X123133332Y-134305300D01*
X123136361Y-134400133D01*
X123133458Y-134408845D01*
X123137060Y-134421998D01*
X123137138Y-134424434D01*
X123137949Y-134425245D01*
X123138611Y-134427661D01*
X123170471Y-134485395D01*
X123170471Y-134491100D01*
X123181310Y-134507321D01*
X123183791Y-134509532D01*
X123183905Y-134509739D01*
X123184092Y-134509801D01*
X123210717Y-134533535D01*
X123212226Y-134538060D01*
X123227638Y-134550021D01*
X123230817Y-134551452D01*
X123230864Y-134551494D01*
X123230910Y-134551494D01*
X123291457Y-134578753D01*
X123297531Y-134584827D01*
X123310817Y-134587469D01*
X123313121Y-134588507D01*
X123314208Y-134588144D01*
X123316665Y-134588633D01*
X123602466Y-134584827D01*
X123629526Y-134557767D01*
X123633332Y-134538633D01*
X123631819Y-134252832D01*
X123870472Y-134252832D01*
X123870472Y-134291100D01*
X123897532Y-134318160D01*
X123916666Y-134321966D01*
X124135503Y-134320458D01*
X124137138Y-134557767D01*
X124164198Y-134584827D01*
X124202466Y-134584827D01*
X124229526Y-134557767D01*
X124233332Y-134538633D01*
X124231824Y-134319794D01*
X124469133Y-134318160D01*
X124496193Y-134291100D01*
X124496193Y-134252832D01*
X124469133Y-134225772D01*
X124449999Y-134221966D01*
X124231160Y-134223473D01*
X124229526Y-133986166D01*
X124202466Y-133959106D01*
X124164198Y-133959106D01*
X124137138Y-133986166D01*
X124133332Y-134005300D01*
X124134839Y-134224137D01*
X123897532Y-134225772D01*
X123870472Y-134252832D01*
X123631819Y-134252832D01*
X123629526Y-133819499D01*
X123602466Y-133792439D01*
X123583332Y-133788633D01*
X123356342Y-133792054D01*
X123346455Y-133788759D01*
X123333140Y-133792404D01*
X123330865Y-133792439D01*
X123330054Y-133793249D01*
X123327639Y-133793911D01*
X123269904Y-133825772D01*
X123264197Y-133825772D01*
X123247976Y-133836611D01*
X123245762Y-133839094D01*
X123245560Y-133839206D01*
X123245498Y-133839390D01*
X123221763Y-133866019D01*
X123217239Y-133867527D01*
X123205278Y-133882939D01*
X123203845Y-133886120D01*
X123203805Y-133886166D01*
X123203805Y-133886210D01*
X123176543Y-133946759D01*
X123170471Y-133952832D01*
X123167828Y-133966116D01*
X123166791Y-133968421D01*
X123167153Y-133969509D01*
X123166665Y-133971966D01*
X123169428Y-134034265D01*
X123166791Y-134042178D01*
X123170357Y-134055199D01*
X123170471Y-134057767D01*
X123171282Y-134058578D01*
X123171944Y-134060994D01*
X123203805Y-134118729D01*
X123203805Y-134124434D01*
X123214644Y-134140655D01*
X123217125Y-134142866D01*
X123217239Y-134143073D01*
X123217426Y-134143135D01*
X123235343Y-134159106D01*
X123230866Y-134159106D01*
X123219513Y-134166690D01*
X123217239Y-134167527D01*
X123216726Y-134168552D01*
X123214644Y-134169944D01*
X123188429Y-134199351D01*
X123183905Y-134200860D01*
X123171944Y-134216272D01*
X123170512Y-134219451D01*
X123170471Y-134219498D01*
X123170471Y-134219543D01*
X123143210Y-134280093D01*
X123137138Y-134286166D01*
X123134495Y-134299452D01*
X123133458Y-134301756D01*
X123133820Y-134302843D01*
X123133332Y-134305300D01*
X122957041Y-134305300D01*
X122798791Y-133838387D01*
X122799873Y-133835089D01*
X122793046Y-133821436D01*
X122787772Y-133805873D01*
X122784429Y-133804202D01*
X122782759Y-133800860D01*
X122767719Y-133795846D01*
X122753543Y-133788759D01*
X122749999Y-133789940D01*
X122746455Y-133788759D01*
X122732278Y-133795846D01*
X122717239Y-133800860D01*
X122715568Y-133804202D01*
X122712226Y-133805873D01*
X122702565Y-133822822D01*
X122541061Y-134315575D01*
X122537138Y-134319499D01*
X122537138Y-134327545D01*
X122466791Y-134542177D01*
X122232627Y-134542177D01*
X122233332Y-134538633D01*
X122229880Y-133886394D01*
X122402466Y-133884827D01*
X122429526Y-133857767D01*
X122429526Y-133819499D01*
X122402466Y-133792439D01*
X122383332Y-133788633D01*
X121964198Y-133792439D01*
X121937138Y-133819499D01*
X121896193Y-133819499D01*
X121869133Y-133792439D01*
X121849999Y-133788633D01*
X121430865Y-133792439D01*
X121403805Y-133819499D01*
X121326027Y-133819499D01*
X121326027Y-133710855D01*
X124573971Y-133710855D01*
X124573971Y-134666411D01*
G37*
G36*
X111646775Y-128069252D02*
G01*
X111444656Y-128071944D01*
X111394908Y-128049547D01*
X111370272Y-128027586D01*
X111343110Y-127978366D01*
X111340666Y-127901855D01*
X111362417Y-127853543D01*
X111383480Y-127829914D01*
X111459675Y-127801901D01*
X111459999Y-127801966D01*
X111645345Y-127799171D01*
X111646775Y-128069252D01*
G37*
G36*
X111644835Y-127702697D02*
G01*
X111477849Y-127705214D01*
X111428239Y-127682879D01*
X111403606Y-127660921D01*
X111376349Y-127611529D01*
X111374402Y-127567627D01*
X111395751Y-127520210D01*
X111417712Y-127495572D01*
X111466713Y-127468531D01*
X111643581Y-127465865D01*
X111644835Y-127702697D01*
G37*
G36*
X110959967Y-127869353D02*
G01*
X110760277Y-127871509D01*
X110858809Y-127570886D01*
X110959967Y-127869353D01*
G37*
G36*
X112683971Y-128246411D02*
G01*
X109436027Y-128246411D01*
X109436027Y-127399499D01*
X109513805Y-127399499D01*
X109513805Y-127437767D01*
X109540865Y-127464827D01*
X109559999Y-127468633D01*
X109710256Y-127467268D01*
X109713805Y-128137767D01*
X109740865Y-128164827D01*
X109779133Y-128164827D01*
X109806193Y-128137767D01*
X109809999Y-128118633D01*
X109806547Y-127466394D01*
X109979133Y-127464827D01*
X110006193Y-127437767D01*
X110006193Y-127399499D01*
X110047138Y-127399499D01*
X110047138Y-127437767D01*
X110074198Y-127464827D01*
X110093332Y-127468633D01*
X110243589Y-127467268D01*
X110247138Y-128137767D01*
X110274198Y-128164827D01*
X110312466Y-128164827D01*
X110339526Y-128137767D01*
X110342627Y-128122177D01*
X110576791Y-128122177D01*
X110593905Y-128156406D01*
X110630209Y-128168507D01*
X110664438Y-128151393D01*
X110674099Y-128134444D01*
X110728569Y-127968252D01*
X110992521Y-127965402D01*
X111055559Y-128151393D01*
X111089788Y-128168507D01*
X111126092Y-128156406D01*
X111143206Y-128122178D01*
X111140766Y-128102822D01*
X111072859Y-127902463D01*
X111072859Y-127899499D01*
X111071338Y-127897978D01*
X111067041Y-127885300D01*
X111243332Y-127885300D01*
X111246361Y-127980133D01*
X111243458Y-127988845D01*
X111247060Y-128001998D01*
X111247138Y-128004434D01*
X111247949Y-128005245D01*
X111248611Y-128007661D01*
X111280471Y-128065395D01*
X111280471Y-128071100D01*
X111291310Y-128087321D01*
X111293791Y-128089532D01*
X111293905Y-128089739D01*
X111294092Y-128089801D01*
X111320717Y-128113535D01*
X111322226Y-128118060D01*
X111337638Y-128130021D01*
X111340817Y-128131452D01*
X111340864Y-128131494D01*
X111340910Y-128131494D01*
X111401457Y-128158753D01*
X111407531Y-128164827D01*
X111420817Y-128167469D01*
X111423121Y-128168507D01*
X111424208Y-128168144D01*
X111426665Y-128168633D01*
X111712466Y-128164827D01*
X111739526Y-128137767D01*
X111743332Y-128118633D01*
X111741819Y-127832832D01*
X111980472Y-127832832D01*
X111980472Y-127871100D01*
X112007532Y-127898160D01*
X112026666Y-127901966D01*
X112245503Y-127900458D01*
X112247138Y-128137767D01*
X112274198Y-128164827D01*
X112312466Y-128164827D01*
X112339526Y-128137767D01*
X112343332Y-128118633D01*
X112341824Y-127899794D01*
X112579133Y-127898160D01*
X112606193Y-127871100D01*
X112606193Y-127832832D01*
X112579133Y-127805772D01*
X112559999Y-127801966D01*
X112341160Y-127803473D01*
X112339526Y-127566166D01*
X112312466Y-127539106D01*
X112274198Y-127539106D01*
X112247138Y-127566166D01*
X112243332Y-127585300D01*
X112244839Y-127804137D01*
X112007532Y-127805772D01*
X111980472Y-127832832D01*
X111741819Y-127832832D01*
X111739526Y-127399499D01*
X111712466Y-127372439D01*
X111693332Y-127368633D01*
X111466342Y-127372054D01*
X111456455Y-127368759D01*
X111443140Y-127372404D01*
X111440865Y-127372439D01*
X111440054Y-127373249D01*
X111437639Y-127373911D01*
X111379904Y-127405772D01*
X111374197Y-127405772D01*
X111357976Y-127416611D01*
X111355762Y-127419094D01*
X111355560Y-127419206D01*
X111355498Y-127419390D01*
X111331763Y-127446019D01*
X111327239Y-127447527D01*
X111315278Y-127462939D01*
X111313845Y-127466120D01*
X111313805Y-127466166D01*
X111313805Y-127466210D01*
X111286543Y-127526759D01*
X111280471Y-127532832D01*
X111277828Y-127546116D01*
X111276791Y-127548421D01*
X111277153Y-127549509D01*
X111276665Y-127551966D01*
X111279428Y-127614265D01*
X111276791Y-127622178D01*
X111280357Y-127635199D01*
X111280471Y-127637767D01*
X111281282Y-127638578D01*
X111281944Y-127640994D01*
X111313805Y-127698729D01*
X111313805Y-127704434D01*
X111324644Y-127720655D01*
X111327125Y-127722866D01*
X111327239Y-127723073D01*
X111327426Y-127723135D01*
X111345343Y-127739106D01*
X111340866Y-127739106D01*
X111329513Y-127746690D01*
X111327239Y-127747527D01*
X111326726Y-127748552D01*
X111324644Y-127749944D01*
X111298429Y-127779351D01*
X111293905Y-127780860D01*
X111281944Y-127796272D01*
X111280512Y-127799451D01*
X111280471Y-127799498D01*
X111280471Y-127799543D01*
X111253210Y-127860093D01*
X111247138Y-127866166D01*
X111244495Y-127879452D01*
X111243458Y-127881756D01*
X111243820Y-127882843D01*
X111243332Y-127885300D01*
X111067041Y-127885300D01*
X110908791Y-127418387D01*
X110909873Y-127415089D01*
X110903046Y-127401436D01*
X110897772Y-127385873D01*
X110894429Y-127384202D01*
X110892759Y-127380860D01*
X110877719Y-127375846D01*
X110863543Y-127368759D01*
X110859999Y-127369940D01*
X110856455Y-127368759D01*
X110842278Y-127375846D01*
X110827239Y-127380860D01*
X110825568Y-127384202D01*
X110822226Y-127385873D01*
X110812565Y-127402822D01*
X110651061Y-127895575D01*
X110647138Y-127899499D01*
X110647138Y-127907545D01*
X110576791Y-128122177D01*
X110342627Y-128122177D01*
X110343332Y-128118633D01*
X110339880Y-127466394D01*
X110512466Y-127464827D01*
X110539526Y-127437767D01*
X110539526Y-127399499D01*
X110512466Y-127372439D01*
X110493332Y-127368633D01*
X110074198Y-127372439D01*
X110047138Y-127399499D01*
X110006193Y-127399499D01*
X109979133Y-127372439D01*
X109959999Y-127368633D01*
X109540865Y-127372439D01*
X109513805Y-127399499D01*
X109436027Y-127399499D01*
X109436027Y-127290855D01*
X112683971Y-127290855D01*
X112683971Y-128246411D01*
G37*
G36*
X115610111Y-128069586D02*
G01*
X115506697Y-128071704D01*
X115505810Y-128071199D01*
X115420853Y-128045735D01*
X115368087Y-127996395D01*
X115368054Y-127996272D01*
X115338660Y-127943007D01*
X115338506Y-127939839D01*
X115305991Y-127822025D01*
X115306666Y-127818633D01*
X115303941Y-127733365D01*
X115305173Y-127730760D01*
X115332001Y-127611164D01*
X115334720Y-127607661D01*
X115359067Y-127553583D01*
X115411785Y-127497203D01*
X115489675Y-127468568D01*
X115489999Y-127468633D01*
X115606917Y-127466237D01*
X115610111Y-128069586D01*
G37*
G36*
X117251110Y-128246411D02*
G01*
X115128888Y-128246411D01*
X115128888Y-127718633D01*
X115206666Y-127718633D01*
X115209503Y-127807453D01*
X115207211Y-127811274D01*
X115208159Y-127830760D01*
X115241472Y-127951468D01*
X115240125Y-127955511D01*
X115245278Y-127974327D01*
X115277139Y-128032062D01*
X115277139Y-128037767D01*
X115287977Y-128053988D01*
X115353182Y-128114959D01*
X115357239Y-128123073D01*
X115369073Y-128129818D01*
X115370865Y-128131494D01*
X115372013Y-128131494D01*
X115374188Y-128132734D01*
X115466413Y-128160375D01*
X115470865Y-128164827D01*
X115489999Y-128168633D01*
X115675800Y-128164827D01*
X115702860Y-128137767D01*
X115706666Y-128118633D01*
X115702961Y-127418633D01*
X115939999Y-127418633D01*
X115943640Y-128106592D01*
X115940398Y-128112327D01*
X115943735Y-128124563D01*
X115943805Y-128137767D01*
X115948659Y-128142621D01*
X115950467Y-128149248D01*
X115961711Y-128155673D01*
X115970865Y-128164827D01*
X115977731Y-128164827D01*
X115983693Y-128168234D01*
X115996186Y-128164827D01*
X116009133Y-128164827D01*
X116013987Y-128159972D01*
X116020614Y-128158165D01*
X116033411Y-128143440D01*
X116340955Y-127599428D01*
X116343805Y-128137767D01*
X116370865Y-128164827D01*
X116409133Y-128164827D01*
X116436193Y-128137767D01*
X116439999Y-128118633D01*
X116438411Y-127818633D01*
X116639999Y-127818633D01*
X116643805Y-128071100D01*
X116654643Y-128087321D01*
X116687212Y-128116353D01*
X116690572Y-128123073D01*
X116702160Y-128129678D01*
X116704197Y-128131494D01*
X116705346Y-128131494D01*
X116707521Y-128132734D01*
X116799746Y-128160375D01*
X116804198Y-128164827D01*
X116823332Y-128168633D01*
X116826785Y-128168479D01*
X116826876Y-128168507D01*
X116826944Y-128168472D01*
X116881542Y-128166050D01*
X116886455Y-128168507D01*
X116905810Y-128166067D01*
X116999853Y-128131494D01*
X117009133Y-128131494D01*
X117020483Y-128123909D01*
X117022759Y-128123073D01*
X117023272Y-128122045D01*
X117025354Y-128120655D01*
X117083624Y-128058338D01*
X117089426Y-128056405D01*
X117101387Y-128040993D01*
X117102819Y-128037811D01*
X117102860Y-128037768D01*
X117102860Y-128037721D01*
X117127288Y-127983462D01*
X117130173Y-127981732D01*
X117138506Y-127964093D01*
X117166068Y-127841224D01*
X117169526Y-127837767D01*
X117173332Y-127818633D01*
X117170494Y-127729812D01*
X117172787Y-127725992D01*
X117171839Y-127706506D01*
X117138525Y-127585798D01*
X117139873Y-127581756D01*
X117134721Y-127562940D01*
X117102860Y-127505204D01*
X117102860Y-127499498D01*
X117092021Y-127483277D01*
X117026815Y-127422306D01*
X117022759Y-127414193D01*
X117010924Y-127407447D01*
X117009133Y-127405772D01*
X117007985Y-127405772D01*
X117005810Y-127404532D01*
X116913584Y-127376890D01*
X116909133Y-127372439D01*
X116889999Y-127368633D01*
X116795165Y-127371662D01*
X116786455Y-127368759D01*
X116773298Y-127372361D01*
X116770865Y-127372439D01*
X116770054Y-127373249D01*
X116767639Y-127373911D01*
X116685560Y-127419206D01*
X116673458Y-127455510D01*
X116690572Y-127489738D01*
X116726876Y-127501840D01*
X116745692Y-127496687D01*
X116796931Y-127468411D01*
X116873982Y-127465949D01*
X116874188Y-127466067D01*
X116959145Y-127491530D01*
X117011911Y-127540870D01*
X117011945Y-127540993D01*
X117041337Y-127594257D01*
X117041492Y-127597427D01*
X117074006Y-127715240D01*
X117073332Y-127718633D01*
X117076056Y-127803900D01*
X117074825Y-127806507D01*
X117047996Y-127926101D01*
X117045278Y-127929605D01*
X117020931Y-127983682D01*
X116968213Y-128040062D01*
X116890322Y-128068697D01*
X116889999Y-128068633D01*
X116838241Y-128070928D01*
X116753854Y-128045636D01*
X116739713Y-128033030D01*
X116737217Y-127867454D01*
X116842466Y-127864827D01*
X116869526Y-127837767D01*
X116869526Y-127799499D01*
X116842466Y-127772439D01*
X116823332Y-127768633D01*
X116670865Y-127772439D01*
X116643805Y-127799499D01*
X116639999Y-127818633D01*
X116438411Y-127818633D01*
X116436357Y-127430672D01*
X116439600Y-127424938D01*
X116436262Y-127412701D01*
X116436193Y-127399499D01*
X116431338Y-127394644D01*
X116429531Y-127388018D01*
X116418286Y-127381592D01*
X116409133Y-127372439D01*
X116402267Y-127372439D01*
X116396305Y-127369032D01*
X116383813Y-127372439D01*
X116370865Y-127372439D01*
X116366009Y-127377294D01*
X116359385Y-127379101D01*
X116346587Y-127393826D01*
X116039042Y-127937837D01*
X116036193Y-127399499D01*
X116009133Y-127372439D01*
X115970865Y-127372439D01*
X115943805Y-127399499D01*
X115939999Y-127418633D01*
X115702961Y-127418633D01*
X115702860Y-127399499D01*
X115675800Y-127372439D01*
X115656666Y-127368633D01*
X115499720Y-127371847D01*
X115493543Y-127368759D01*
X115474188Y-127371199D01*
X115380145Y-127405772D01*
X115370865Y-127405772D01*
X115359514Y-127413356D01*
X115357239Y-127414193D01*
X115356725Y-127415220D01*
X115354644Y-127416611D01*
X115296376Y-127478925D01*
X115290573Y-127480860D01*
X115278612Y-127496272D01*
X115277177Y-127499457D01*
X115277139Y-127499499D01*
X115277139Y-127499543D01*
X115252709Y-127553803D01*
X115249825Y-127555534D01*
X115241492Y-127573174D01*
X115213929Y-127696041D01*
X115210472Y-127699499D01*
X115206666Y-127718633D01*
X115128888Y-127718633D01*
X115128888Y-127290855D01*
X117251110Y-127290855D01*
X117251110Y-128246411D01*
G37*
G36*
X122420111Y-139569586D02*
G01*
X122316697Y-139571704D01*
X122315810Y-139571199D01*
X122230853Y-139545735D01*
X122178087Y-139496395D01*
X122178054Y-139496272D01*
X122148660Y-139443007D01*
X122148506Y-139439839D01*
X122115991Y-139322025D01*
X122116666Y-139318633D01*
X122113941Y-139233365D01*
X122115173Y-139230760D01*
X122142001Y-139111164D01*
X122144720Y-139107661D01*
X122169067Y-139053583D01*
X122221785Y-138997203D01*
X122299675Y-138968568D01*
X122299999Y-138968633D01*
X122416917Y-138966237D01*
X122420111Y-139569586D01*
G37*
G36*
X124061110Y-139746411D02*
G01*
X121938888Y-139746411D01*
X121938888Y-139218633D01*
X122016666Y-139218633D01*
X122019503Y-139307453D01*
X122017211Y-139311274D01*
X122018159Y-139330760D01*
X122051472Y-139451468D01*
X122050125Y-139455511D01*
X122055278Y-139474327D01*
X122087139Y-139532062D01*
X122087139Y-139537767D01*
X122097977Y-139553988D01*
X122163182Y-139614959D01*
X122167239Y-139623073D01*
X122179073Y-139629818D01*
X122180865Y-139631494D01*
X122182013Y-139631494D01*
X122184188Y-139632734D01*
X122276413Y-139660375D01*
X122280865Y-139664827D01*
X122299999Y-139668633D01*
X122485800Y-139664827D01*
X122512860Y-139637767D01*
X122516666Y-139618633D01*
X122512961Y-138918633D01*
X122749999Y-138918633D01*
X122753640Y-139606592D01*
X122750398Y-139612327D01*
X122753735Y-139624563D01*
X122753805Y-139637767D01*
X122758659Y-139642621D01*
X122760467Y-139649248D01*
X122771711Y-139655673D01*
X122780865Y-139664827D01*
X122787731Y-139664827D01*
X122793693Y-139668234D01*
X122806186Y-139664827D01*
X122819133Y-139664827D01*
X122823987Y-139659972D01*
X122830614Y-139658165D01*
X122843411Y-139643440D01*
X123150955Y-139099428D01*
X123153805Y-139637767D01*
X123180865Y-139664827D01*
X123219133Y-139664827D01*
X123246193Y-139637767D01*
X123249999Y-139618633D01*
X123248411Y-139318633D01*
X123449999Y-139318633D01*
X123453805Y-139571100D01*
X123464643Y-139587321D01*
X123497212Y-139616353D01*
X123500572Y-139623073D01*
X123512160Y-139629678D01*
X123514197Y-139631494D01*
X123515346Y-139631494D01*
X123517521Y-139632734D01*
X123609746Y-139660375D01*
X123614198Y-139664827D01*
X123633332Y-139668633D01*
X123636785Y-139668479D01*
X123636876Y-139668507D01*
X123636944Y-139668472D01*
X123691542Y-139666050D01*
X123696455Y-139668507D01*
X123715810Y-139666067D01*
X123809853Y-139631494D01*
X123819133Y-139631494D01*
X123830483Y-139623909D01*
X123832759Y-139623073D01*
X123833272Y-139622045D01*
X123835354Y-139620655D01*
X123893624Y-139558338D01*
X123899426Y-139556405D01*
X123911387Y-139540993D01*
X123912819Y-139537811D01*
X123912860Y-139537768D01*
X123912860Y-139537721D01*
X123937288Y-139483462D01*
X123940173Y-139481732D01*
X123948506Y-139464093D01*
X123976068Y-139341224D01*
X123979526Y-139337767D01*
X123983332Y-139318633D01*
X123980494Y-139229812D01*
X123982787Y-139225992D01*
X123981839Y-139206506D01*
X123948525Y-139085798D01*
X123949873Y-139081756D01*
X123944721Y-139062940D01*
X123912860Y-139005204D01*
X123912860Y-138999498D01*
X123902021Y-138983277D01*
X123836815Y-138922306D01*
X123832759Y-138914193D01*
X123820924Y-138907447D01*
X123819133Y-138905772D01*
X123817985Y-138905772D01*
X123815810Y-138904532D01*
X123723584Y-138876890D01*
X123719133Y-138872439D01*
X123699999Y-138868633D01*
X123605165Y-138871662D01*
X123596455Y-138868759D01*
X123583298Y-138872361D01*
X123580865Y-138872439D01*
X123580054Y-138873249D01*
X123577639Y-138873911D01*
X123495560Y-138919206D01*
X123483458Y-138955510D01*
X123500572Y-138989738D01*
X123536876Y-139001840D01*
X123555692Y-138996687D01*
X123606931Y-138968411D01*
X123683982Y-138965949D01*
X123684188Y-138966067D01*
X123769145Y-138991530D01*
X123821911Y-139040870D01*
X123821945Y-139040993D01*
X123851337Y-139094257D01*
X123851492Y-139097427D01*
X123884006Y-139215240D01*
X123883332Y-139218633D01*
X123886056Y-139303900D01*
X123884825Y-139306507D01*
X123857996Y-139426101D01*
X123855278Y-139429605D01*
X123830931Y-139483682D01*
X123778213Y-139540062D01*
X123700322Y-139568697D01*
X123699999Y-139568633D01*
X123648241Y-139570928D01*
X123563854Y-139545636D01*
X123549713Y-139533030D01*
X123547217Y-139367454D01*
X123652466Y-139364827D01*
X123679526Y-139337767D01*
X123679526Y-139299499D01*
X123652466Y-139272439D01*
X123633332Y-139268633D01*
X123480865Y-139272439D01*
X123453805Y-139299499D01*
X123449999Y-139318633D01*
X123248411Y-139318633D01*
X123246357Y-138930672D01*
X123249600Y-138924938D01*
X123246262Y-138912701D01*
X123246193Y-138899499D01*
X123241338Y-138894644D01*
X123239531Y-138888018D01*
X123228286Y-138881592D01*
X123219133Y-138872439D01*
X123212267Y-138872439D01*
X123206305Y-138869032D01*
X123193813Y-138872439D01*
X123180865Y-138872439D01*
X123176009Y-138877294D01*
X123169385Y-138879101D01*
X123156587Y-138893826D01*
X122849042Y-139437837D01*
X122846193Y-138899499D01*
X122819133Y-138872439D01*
X122780865Y-138872439D01*
X122753805Y-138899499D01*
X122749999Y-138918633D01*
X122512961Y-138918633D01*
X122512860Y-138899499D01*
X122485800Y-138872439D01*
X122466666Y-138868633D01*
X122309720Y-138871847D01*
X122303543Y-138868759D01*
X122284188Y-138871199D01*
X122190145Y-138905772D01*
X122180865Y-138905772D01*
X122169514Y-138913356D01*
X122167239Y-138914193D01*
X122166725Y-138915220D01*
X122164644Y-138916611D01*
X122106376Y-138978925D01*
X122100573Y-138980860D01*
X122088612Y-138996272D01*
X122087177Y-138999457D01*
X122087139Y-138999499D01*
X122087139Y-138999543D01*
X122062709Y-139053803D01*
X122059825Y-139055534D01*
X122051492Y-139073174D01*
X122023929Y-139196041D01*
X122020472Y-139199499D01*
X122016666Y-139218633D01*
X121938888Y-139218633D01*
X121938888Y-138790855D01*
X124061110Y-138790855D01*
X124061110Y-139746411D01*
G37*
%LPC*%
D11*
%TO.C,J1*%
X133000000Y-112000000D03*
D12*
X134700000Y-113500000D03*
X134700000Y-115500000D03*
%TD*%
D11*
%TO.C,J6*%
X102100000Y-128800000D03*
D12*
X100400000Y-127300000D03*
X100400000Y-125300000D03*
%TD*%
D13*
%TO.C,H4*%
X131600000Y-106450001D03*
X132302944Y-104752945D03*
X132302944Y-108147057D03*
X134000000Y-104050001D03*
D14*
X134000000Y-106450001D03*
D13*
X134000000Y-108850001D03*
X135697056Y-104752945D03*
X135697056Y-108147057D03*
X136400000Y-106450001D03*
%TD*%
D11*
%TO.C,J5*%
X102100000Y-122300000D03*
D12*
X100400000Y-120800000D03*
X100400000Y-118800000D03*
%TD*%
D13*
%TO.C,H1*%
X98500000Y-106450001D03*
X99202944Y-104752945D03*
X99202944Y-108147057D03*
X100900000Y-104050001D03*
D14*
X100900000Y-106450001D03*
D13*
X100900000Y-108850001D03*
X102597056Y-104752945D03*
X102597056Y-108147057D03*
X103300000Y-106450001D03*
%TD*%
D11*
%TO.C,J7*%
X102100000Y-135300000D03*
D12*
X100400000Y-133800000D03*
X100400000Y-131800000D03*
%TD*%
D15*
%TO.C,J2*%
X116150000Y-129850000D03*
X111150000Y-129850000D03*
D16*
X108150000Y-139850000D03*
X119150000Y-139850000D03*
%TD*%
D13*
%TO.C,H2*%
X98500000Y-139550001D03*
X99202944Y-137852945D03*
X99202944Y-141247057D03*
X100900000Y-137150001D03*
D14*
X100900000Y-139550001D03*
D13*
X100900000Y-141950001D03*
X102597056Y-137852945D03*
X102597056Y-141247057D03*
X103300000Y-139550001D03*
%TD*%
D17*
%TO.C,J3*%
X126500000Y-139300000D03*
X126500000Y-134300000D03*
%TD*%
D11*
%TO.C,J4*%
X102100000Y-115800000D03*
D12*
X100400000Y-114300000D03*
X100400000Y-112300000D03*
%TD*%
D13*
%TO.C,H3*%
X131600000Y-139550001D03*
X132302944Y-137852945D03*
X132302944Y-141247057D03*
X134000000Y-137150001D03*
D14*
X134000000Y-139550001D03*
D13*
X134000000Y-141950001D03*
X135697056Y-137852945D03*
X135697056Y-141247057D03*
X136400000Y-139550001D03*
%TD*%
%LPD*%
M02*
